SplineFontDB: 3.0
FontName: VeranaSansDemi-Oblique
FullName: Verana Sans Demi Oblique
FamilyName: Verana Sans Demi
Weight: Normal
Copyright: Copyright (c) Arkandis Digital fondry, from initial release of Bitstream VeraSans Font modified  and under Public Domain.
Version: 1.002
ItalicAngle: -11
UnderlinePosition: -100
UnderlineWidth: 50
Ascent: 760
Descent: 240
sfntRevision: 0x00010041
LayerCount: 2
Layer: 0 0 "Arri+AOgA-re"  1
Layer: 1 0 "Avant"  0
NeedsXUIDChange: 1
XUID: [1021 905 1196402830 8914238]
BaseHoriz: 2 'ideo' 'romn'
BaseScript: 'latn' 1  -135 0
FSType: 8
OS2Version: 2
OS2_WeightWidthSlopeOnly: 0
OS2_UseTypoMetrics: 1
CreationTime: 1214138651
ModificationTime: 1312111737
PfmFamily: 17
TTFWeight: 400
TTFWidth: 5
LineGap: 200
VLineGap: 0
Panose: 2 11 5 6 2 2 2 9 0 3
OS2TypoAscent: 0
OS2TypoAOffset: 1
OS2TypoDescent: 0
OS2TypoDOffset: 1
OS2TypoLinegap: 200
OS2WinAscent: 0
OS2WinAOffset: 1
OS2WinDescent: 0
OS2WinDOffset: 1
HheadAscent: -168
HheadAOffset: 1
HheadDescent: -4
HheadDOffset: 1
OS2SubXSize: 650
OS2SubYSize: 600
OS2SubXOff: -15
OS2SubYOff: 75
OS2SupXSize: 650
OS2SupYSize: 600
OS2SupXOff: 68
OS2SupYOff: 350
OS2StrikeYSize: 100
OS2StrikeYPos: 328
OS2Vendor: 'ADFP'
OS2CodePages: 00000003.00000000
OS2UnicodeRanges: 800000af.5000204a.00000000.00000000
Lookup: 1 0 0 "'aalt' Activer toutes les variantes dans Latin lookup 0"  {"sous-table 'aalt' Activer toutes les variantes dans Latin lookup 0"  } ['aalt' ('latn' <'dflt' > ) ]
Lookup: 3 0 0 "'aalt' Activer toutes les variantes dans Latin lookup 1"  {"sous-table 'aalt' Activer toutes les variantes dans Latin lookup 1"  } ['aalt' ('latn' <'dflt' > ) ]
Lookup: 1 0 0 "'numr' Num+AOkA-rateurs dans Latin lookup 2"  {"sous-table 'numr' Num+AOkA-rateurs dans Latin lookup 2"  } ['numr' ('latn' <'dflt' > ) ]
Lookup: 1 0 0 "'dnom' D+AOkA-nominateurs dans Latin lookup 3"  {"sous-table 'dnom' D+AOkA-nominateurs dans Latin lookup 3"  } ['dnom' ('latn' <'dflt' > ) ]

StartChar: .notdef
Encoding: 65536 -1 0
Width: 571
Flags: W
HStem: -177 49<2 392> 657 48<154 544>
LayerCount: 2
Fore
SplineSet
-50 -177 m 1
 122 705 l 1
 597 705 l 1
 425 -177 l 1
 -50 -177 l 1
2 -128 m 1
 392 -128 l 1
 544 657 l 1
 154 657 l 1
 2 -128 l 1
EndSplineSet
Validated: 1
EndChar

StartChar: exclam
Encoding: 33 33 2
Width: 433
Flags: W
HStem: 0 168<102 237> 709 20G<207.129 378>
VStem: 70 308
LayerCount: 2
Fore
SplineSet
211 729 m 1
 378 729 l 1
 324 450 l 1
 261 248 l 1
 142 248 l 1
 157 450 l 1
 211 729 l 1
102 168 m 1
 269 168 l 1
 237 0 l 1
 70 0 l 1
 102 168 l 1
EndSplineSet
Validated: 1
Position2: "sous-table 'cpsp' Chasses pour composition en capitales dans Latin lookup 1" dx=5 dy=0 dh=10 dv=0
EndChar

StartChar: quotedbl
Encoding: 34 34 3
Width: 494
Flags: W
HStem: 458 271<-43 7 168 219>
LayerCount: 2
Fore
SplineSet
482 729 m 1
 430 458 l 1
 327 458 l 1
 379 729 l 1
 482 729 l 1
270 729 m 1
 218 458 l 1
 116 458 l 1
 168 729 l 1
 270 729 l 1
EndSplineSet
Validated: 1
EndChar

StartChar: numbersign
Encoding: 35 35 4
Width: 796
Flags: W
HStem: 0 21G<88 190.677 318 419.677> 189 99<57 169 305 399 535 650> 430 98<158 272 411 502 640 751>
LayerCount: 2
Fore
SplineSet
493 718 m 1
 411 528 l 1
 546 528 l 1
 629 718 l 1
 722 718 l 1
 640 528 l 1
 770 528 l 1
 751 430 l 1
 597 430 l 1
 535 288 l 1
 669 288 l 1
 650 189 l 1
 493 189 l 1
 411 0 l 1
 318 0 l 1
 399 189 l 1
 264 189 l 1
 182 0 l 1
 88 0 l 1
 169 189 l 1
 38 189 l 1
 57 288 l 1
 210 288 l 1
 272 430 l 1
 139 430 l 1
 158 528 l 1
 316 528 l 1
 399 718 l 1
 493 718 l 1
502 430 m 1
 367 430 l 1
 305 288 l 1
 440 288 l 1
 502 430 l 1
EndSplineSet
Validated: 1
EndChar

StartChar: dollar
Encoding: 36 36 5
Width: 661
Flags: W
HStem: 0 105<131.921 235 321 400.21> 543 106<273.554 340 427 526.41> 740 20G<378.106 448>
VStem: 97.0465 141.495<411.965 508.468> 433.861 141.444<141.247 244.01>
LayerCount: 2
Fore
SplineSet
272 -147 m 1
 206 -147 l 1
 235 0 l 1
 156 3 84 18 19 45 c 1
 43 168 l 1
 108 128 178 108 255 105 c 1
 286 265 l 1
 268 270 l 1
 147.19872833 293.653395851 97.0464750215 335.147452905 97.0464750215 411.964706059 c 0
 97.0464750215 426.080826777 98.7400468886 441.389762718 102 458 c 0
 124 573 217 642 360 647 c 1
 382 760 l 1
 448 760 l 1
 427 649 l 1
 490 644 552 632 612 614 c 1
 589 496 l 1
 532 525 471 540 406 543 c 1
 377 395 l 1
 397 389 l 1
 474 376 525 356 551 325 c 0
 567.307806183 304.615242271 575.304845413 277.304845413 575.304845413 244.009992599 c 0
 575.304845413 228.30521551 573.525588833 211.268960314 570 193 c 0
 547 74 458 10 301 1 c 1
 272 -147 l 1
313 405 m 1
 340 542 l 1
 285 539 247 513 240 475 c 0
 239.026714833 470.011913521 238.541872987 465.305051983 238.541872987 460.872212439 c 0
 238.541872987 428.868951274 263.812996167 411.148375479 313 405 c 1
349 252 m 1
 321 107 l 1
 386 108 423 130 432 177 c 0
 433.228917803 183.281135437 433.861197989 189.114792662 433.861197989 194.523884755 c 0
 433.861197989 228.728368709 408.578296844 245.955824958 349 252 c 1
EndSplineSet
Validated: 524289
EndChar

StartChar: percent
Encoding: 37 37 6
Width: 951
Flags: W
HStem: -14 75<643.241 739.973> 305 73<681.478 780.434> 350 73<184.245 281.595> 668 74<222.226 322.043>
VStem: 67.3865 102.212<435.93 599.573> 336.862 102.416<492.761 652.489> 524.516 104.488<73.2595 237.188> 794.125 104.423<128.58 292.953>
LayerCount: 2
Fore
SplineSet
736 305 m 0xdf
 686 305 649 262 634 183 c 0
 630.658333125 165.400554458 629.004084362 149.587786917 629.004084362 135.639092523 c 0
 629.004084362 86.9751975284 649.138889583 61 688 61 c 0
 738 61 774 104 789 183 c 0
 792.420911755 201.016801909 794.125436715 217.16118186 794.125436715 231.350107016 c 0
 794.125436715 279.376723389 774.596960817 305 736 305 c 0xdf
750 378 m 0
 844.611439607 378 898.548014995 325.194035927 898.548014995 235.857844217 c 0
 898.548014995 219.438817392 896.726120084 201.785855425 893 183 c 0
 869 61 786 -14 674 -14 c 0
 579.196031471 -14 524.516136374 39.7375983469 524.516136374 130.231003099 c 0
 524.516136374 146.645162339 526.315136113 164.268608576 530 183 c 0
 554 304 638 378 750 378 c 0
237 -14 m 1
 143 -14 l 1
 728 742 l 1
 822 742 l 1
 237 -14 l 1
291 742 m 0
 386.619930782 742 439.277196534 689.01271313 439.277196534 598.791865566 c 0
 439.277196534 582.393144475 437.537536213 564.764322519 434 546 c 1
 410 425 328 350 215 350 c 0xbf
 120.584733102 350 67.3864681304 403.297847317 67.3864681304 492.520710535 c 0
 67.3864681304 509.138364521 69.2318429066 527.002207988 73 546 c 1
 96 668 179 742 291 742 c 0
276 668 m 0
 226 668 190 625 175 546 c 0
 171.37604307 528.10671266 169.598923241 512.00896139 169.598923241 497.811322098 c 0
 169.598923241 449.325482232 190.324865405 423 229 423 c 0
 280 423 316 467 332 546 c 0
 335.254638756 563.141097448 336.861528311 578.587367147 336.861528311 592.267304718 c 0
 336.861528311 641.635551278 315.93422823 668 276 668 c 0
EndSplineSet
Validated: 524289
Ligature2: "sous-table Remplacement de ligature lookups12" zero fraction zero
Ligature2: "sous-table Remplacement de ligature lookups12" zero slash zero
EndChar

StartChar: ampersand
Encoding: 38 38 7
Width: 828
Flags: W
HStem: -14 117<234.263 393.024> -2 21G<520.182 724> 632 110<387.069 559.407>
VStem: 32.0146 154.509<148.714 280.812> 206.008 156.737<495.993 606.963> 643 135<369.884 434>
LayerCount: 2
Fore
SplineSet
393 482 m 1xbc
 549 257 l 1
 595 303 626 361 643 434 c 1
 778 434 l 1
 747 315 692 223 615 154 c 1
 724 -2 l 1
 534 -2 l 1x7c
 496 53 l 1
 421 8 344 -14 261 -14 c 0
 181 -14 119 8 78 53 c 1
 46.6499490143 85.8429105565 32.0146207634 127.04318248 32.0146207634 174.937300185 c 0
 32.0146207634 191.207446344 33.7035872099 208.250084976 37 226 c 0
 56 322 113 391 227 461 c 1
 212.634883858 486.857209056 206.008138782 512.198526708 206.008138782 538.506120943 c 0
 206.008138782 548.825580711 207.02779065 559.29372067 209 570 c 0
 229 673 328 742 456 742 c 0
 511 742 571 734 633 716 c 1
 607 585 l 1
 557 618 507 632 459 632 c 0
 405 632 371 610 364 572 c 0
 363.161984871 567.809924355 362.745331356 563.535576387 362.745331356 559.148707503 c 0
 362.745331356 537.361413586 373.022472619 512.798688045 393 482 c 1xbc
284 368 m 1
 230 336 199 295 189 245 c 0
 187.340436662 235.753861404 186.523980612 226.78875857 186.523980612 218.118017116 c 0
 186.523980612 190.21577049 194.978690013 165.361746649 211 144 c 1
 235 117 267 103 306 103 c 0xbc
 352 103 394 119 433 149 c 1
 284 368 l 1
EndSplineSet
Validated: 524289
Position2: "sous-table 'cpsp' Chasses pour composition en capitales dans Latin lookup 1" dx=5 dy=0 dh=10 dv=0
EndChar

StartChar: quotesingle
Encoding: 39 39 8
Width: 290
Flags: W
HStem: 458 271<168 226>
VStem: 116 162
LayerCount: 2
Fore
SplineSet
278 729 m 1
 226 458 l 1
 116 458 l 1
 168 729 l 1
 278 729 l 1
EndSplineSet
Validated: 1
EndChar

StartChar: parenleft
Encoding: 40 40 9
Width: 435
Flags: W
HStem: 739 20G<244.5 443>
VStem: 66.7146 148.753<9.72177 347.14>
LayerCount: 2
Fore
SplineSet
270 -132 m 1
 135 -132 l 1
 88.9087813575 -19.5653605842 66.7146291433 83.115374167 66.7146291433 183.535026796 c 0
 66.7146291433 226.910597394 70.8554985356 269.864307059 79 313 c 0
 107 456 181 598 308 759 c 1
 443 759 l 1
 327 603 258 458 230 314 c 0
 220.365747882 264.452417678 215.467149533 214.549661324 215.467149533 164.088050212 c 0
 215.467149533 67.8932220063 233.268504236 -30.3324670822 270 -132 c 1
EndSplineSet
Validated: 524289
EndChar

StartChar: parenright
Encoding: 41 41 10
Width: 435
Flags: W
HStem: 739 20G<160 317.022>
VStem: 214.302 148.425<279.852 616.704>
LayerCount: 2
Fore
SplineSet
-13 -132 m 1
 102 23 172 170 200 314 c 0
 209.521490081 362.967663275 214.301896351 412.050962741 214.301896351 461.643122983 c 0
 214.301896351 557.88743108 196.297073055 656.048301881 160 759 c 1
 294 759 l 1
 340.0442139 646.680023669 362.726778944 543.607366677 362.726778944 442.991190912 c 0
 362.726778944 399.383651293 358.466091073 356.237536551 350 313 c 0
 323 170 250 29 121 -132 c 1
 -13 -132 l 1
EndSplineSet
Validated: 524289
EndChar

StartChar: asterisk
Encoding: 42 42 11
Width: 496
Flags: W
HStem: 722 20G<289.023 365>
LayerCount: 2
Fore
SplineSet
529 596 m 1
 355 510 l 1
 496 422 l 1
 453 358 l 1
 308 449 l 1
 275 278 l 1
 203 278 l 1
 236 449 l 1
 55 358 l 1
 38 422 l 1
 215 510 l 1
 71 596 l 1
 114 661 l 1
 259 571 l 1
 293 742 l 1
 365 742 l 1
 331 571 l 1
 512 661 l 1
 529 596 l 1
EndSplineSet
Validated: 1
EndChar

StartChar: plus
Encoding: 43 43 12
Width: 797
Flags: W
HStem: 0 21G<285 389.861> 259 109<109 335 457 683>
LayerCount: 2
Fore
SplineSet
507 627 m 1
 457 368 l 1
 704 368 l 1
 683 259 l 1
 436 259 l 1
 386 0 l 1
 285 0 l 1
 335 259 l 1
 88 259 l 1
 109 368 l 1
 356 368 l 1
 406 627 l 1
 507 627 l 1
EndSplineSet
Validated: 1
EndChar

StartChar: comma
Encoding: 44 44 13
Width: 361
Flags: W
HStem: -142 331
VStem: -41 278
LayerCount: 2
Fore
SplineSet
74 189 m 1
 237 189 l 1
 208 40 l 1
 54 -142 l 1
 -41 -142 l 1
 45 40 l 1
 74 189 l 1
EndSplineSet
Validated: 1
EndChar

StartChar: hyphen
Encoding: 45 45 14
Width: 394
Flags: W
HStem: 217 142<57 322>
VStem: 30 319
LayerCount: 2
Fore
SplineSet
57 359 m 1
 349 359 l 1
 322 217 l 1
 30 217 l 1
 57 359 l 1
EndSplineSet
Validated: 1
AlternateSubs2: "sous-table 'aalt' Activer toutes les variantes dans Latin lookup 1" endash emdash minus
EndChar

StartChar: period
Encoding: 46 46 15
Width: 361
Flags: W
HStem: 0 189<70 201>
VStem: 34 203
LayerCount: 2
Fore
SplineSet
70 189 m 1
 237 189 l 1
 201 0 l 1
 34 0 l 1
 70 189 l 1
EndSplineSet
Validated: 1
Substitution2: "sous-table 'aalt' Activer toutes les variantes dans Latin lookup 0" ellipsis
EndChar

StartChar: slash
Encoding: 47 47 16
Width: 347
Flags: W
HStem: 709 20G<319 425>
LayerCount: 2
Fore
SplineSet
329 729 m 1
 425 729 l 1
 13 -93 l 1
 -82 -93 l 1
 329 729 l 1
EndSplineSet
Validated: 1
Substitution2: "sous-table 'dnom' D+AOkA-nominateurs dans Latin lookup 3" fraction
Substitution2: "sous-table 'numr' Num+AOkA-rateurs dans Latin lookup 2" fraction
Substitution2: "sous-table 'aalt' Activer toutes les variantes dans Latin lookup 0" fraction
EndChar

StartChar: zero
Encoding: 48 48 17
Width: 662
Flags: W
HStem: -14 119<229.981 355.251> 622 120<321.033 446.191>
VStem: 39.4168 163.803<133.042 378.793> 473.05 163.54<350.114 594.78>
LayerCount: 2
Fore
SplineSet
455 365 m 0
 467.033333333 423.9 473.05 472.371111111 473.05 509.651222222 c 0
 473.05 531.234444444 471.033333333 549.066666667 467 563 c 1
 458 602 431 622 388 622 c 0
 304 622 258 554 221 365 c 0
 209.221464507 304.19728975 203.219285629 255.75800945 203.219285629 217.972361975 c 0
 203.219285629 137.06167769 230.740458958 105 288 105 c 0
 372 105 418 174 455 365 c 0
623 364 m 0
 576 123 447 -14 265 -14 c 0
 117.409031776 -14 39.4167690208 75.1123612072 39.4167690208 236.025371717 c 0
 39.4167690208 274.630538219 43.9058770848 317.368433562 53 364 c 0
 100 605 229 742 412 742 c 0
 558.755999906 742 636.590483935 652.922191745 636.590483935 492.068219298 c 0
 636.590483935 453.438538578 632.101472552 410.669252872 623 364 c 0
EndSplineSet
Validated: 524289
Position2: "sous-table 'cpsp' Chasses pour composition en capitales dans Latin lookup 1" dx=5 dy=0 dh=10 dv=0
EndChar

StartChar: one
Encoding: 49 49 18
Width: 660
Flags: W
HStem: 0 124<72 233 395 532> 709 20G<244.394 512>
LayerCount: 2
Fore
SplineSet
72 124 m 1
 233 124 l 1
 327 609 l 1
 155 573 l 1
 179 696 l 1
 345 729 l 1
 512 729 l 1
 395 124 l 1
 556 124 l 1
 532 0 l 1
 48 0 l 1
 72 124 l 1
EndSplineSet
Validated: 1
Position2: "sous-table 'cpsp' Chasses pour composition en capitales dans Latin lookup 1" dx=5 dy=0 dh=10 dv=0
EndChar

StartChar: two
Encoding: 50 50 19
Width: 661
Flags: W
HStem: 0 133<227 515> 546 21G<122.871 161> 623 119<231.988 405.509>
VStem: 439.709 175.156<472.928 589.071>
LayerCount: 2
Fore
SplineSet
227 133 m 1
 540 133 l 1
 515 0 l 1
 12 0 l 1
 37 133 l 1
 340 370 l 1
 398 414 428 457 437 502 c 0
 438.818316002 511.351339437 439.708851291 520.314697848 439.708851291 528.833111649 c 0
 439.708851291 585.90164374 399.739502563 623 331 623 c 0
 275 623 203 596 119 546 c 1
 149 701 l 1
 234 728 317 742 392 742 c 0
 536.337316499 742 614.865250433 680.781969707 614.865250433 574.411447691 c 0
 614.865250433 559.183920371 613.255938006 543.03106034 610 526 c 0
 602 487 586 451 559 416 c 0
 533 382 483 336 410 278 c 2
 227 133 l 1
EndSplineSet
Validated: 524289
Position2: "sous-table 'cpsp' Chasses pour composition en capitales dans Latin lookup 1" dx=5 dy=0 dh=10 dv=0
EndChar

StartChar: three
Encoding: 51 51 20
Width: 662
Flags: W
HStem: -14 119<101.169 326.151> 318 114<207 361.49> 622 120<201.348 413.516>
VStem: 398.337 168.507<166.594 284.06> 443.014 175.299<503.861 646.78>
LayerCount: 2
Fore
SplineSet
453 393 m 1xe8
 528.515449114 372.253997496 566.844630269 323.96261132 566.844630269 252.126037661 c 0
 566.844630269 237.39584545 565.233038097 221.675670185 562 205 c 0
 535 62 413 -14 211 -14 c 0
 140 -14 69 -3 4 20 c 1
 32 160 l 1
 92 124 154 105 218 105 c 0
 320 105 382 144 396 212 c 0
 397.559692701 219.909870125 398.337464977 227.372928578 398.337464977 234.390558077 c 0xf0
 398.337464977 290.364063267 348.856678259 318 252 318 c 2
 185 318 l 1
 207 432 l 1
 278 432 l 2
 375 432 428 463 441 528 c 0
 442.347340481 534.736702406 443.013933573 541.145637551 443.013933573 547.215481995 c 0
 443.013933573 595.206310667 401.344059884 622 325 622 c 0
 269 622 207 608 143 580 c 1
 169 712 l 1
 244 733 315 742 382 742 c 0
 540.451592651 742 618.313112764 694.730822839 618.313112764 598.828192303 c 0
 618.313112764 585.786045399 616.87312098 571.844458396 614 557 c 0
 597 471 543 417 453 393 c 1xe8
EndSplineSet
Validated: 524289
Position2: "sous-table 'cpsp' Chasses pour composition en capitales dans Latin lookup 1" dx=5 dy=0 dh=10 dv=0
EndChar

StartChar: four
Encoding: 52 52 21
Width: 662
Flags: W
HStem: 0 21G<292 457.852> 135 129<131 318 505 581> 709 20G<385.249 595>
LayerCount: 2
Fore
SplineSet
404 581 m 1
 131 264 l 1
 343 264 l 1
 404 581 l 1
402 729 m 1
 595 729 l 1
 505 264 l 1
 606 264 l 1
 581 135 l 1
 480 135 l 1
 454 0 l 1
 292 0 l 1
 318 135 l 1
 6 135 l 1
 36 292 l 1
 402 729 l 1
EndSplineSet
Validated: 1
Position2: "sous-table 'cpsp' Chasses pour composition en capitales dans Latin lookup 1" dx=5 dy=0 dh=10 dv=0
EndChar

StartChar: five
Encoding: 53 53 22
Width: 660
Flags: W
HStem: -14 119<131.887 326.627> 366 120<266.542 367.917> 366 109<266.677 357.5> 597 132<289 598>
VStem: 412.081 170.528<187.253 326.464>
LayerCount: 2
Fore
SplineSet
179 729 m 1xd8
 623 729 l 1
 598 597 l 1
 289 597 l 1
 265 475 l 1xb8
 295 482 327 486 359 486 c 0
 503.873237952 486 582.609332361 418.393142156 582.609332361 299.558062595 c 0
 582.609332361 279.767618701 580.425619074 258.556381086 576 236 c 0
 561 158 524 97 465 53 c 0
 405 8 330 -14 239 -14 c 0
 161 -14 86 1 16 32 c 1
 44 175 l 1
 111 129 173 105 233 105 c 0
 327 105 394 156 409 236 c 0
 411.065609054 246.328045268 412.081199873 256.156081854 412.081199873 265.441075486 c 0
 412.081199873 328.07670878 365.86454681 366 284 366 c 0
 232 366 173 352 100 322 c 1
 179 729 l 1xd8
EndSplineSet
Validated: 524289
Position2: "sous-table 'cpsp' Chasses pour composition en capitales dans Latin lookup 1" dx=5 dy=0 dh=10 dv=0
EndChar

StartChar: six
Encoding: 54 54 23
Width: 661
Flags: W
HStem: -14 109<238.044 370.003> 365 112<292.284 414.187> 626 115<367.56 569.933>
VStem: 51.5208 164.539<116.811 285.492> 435.523 163.944<185.707 343.468>
LayerCount: 2
Fore
SplineSet
352 365 m 0
 283 365 239 319 221 230 c 0
 217.701362285 212.730661375 216.059349048 197.080296671 216.059349048 183.070822749 c 0
 216.059349048 124.880474427 244.388588372 95 300 95 c 0
 370 95 413 141 430 230 c 0
 433.681818182 248.204545455 435.522727273 264.610020661 435.522727273 279.190751784 c 0
 435.522727273 335.893595041 407.681818182 365 352 365 c 0
640 711 m 1
 615 582 l 1
 563 612 515 626 466 626 c 0
 355 626 278 560 243 430 c 1
 292 461 344 477 404 477 c 0
 474 477 527 455 562 412 c 0
 587.227335371 381.006416544 599.466539111 342.739479374 599.466539111 297.573652436 c 0
 599.466539111 280.077136342 597.629846862 261.545329257 594 242 c 0
 579 165 542 102 485 56 c 0
 427 9 359 -14 277 -14 c 0
 130.45771902 -14 51.5207865495 74.1520720764 51.5207865495 233.728639906 c 0
 51.5207865495 270.162274847 55.635570245 310.319089057 64 354 c 0
 88 475 135 570 207 639 c 0
 279 707 365 741 466 741 c 0
 529 741 587 732 640 711 c 1
EndSplineSet
Validated: 524289
Position2: "sous-table 'cpsp' Chasses pour composition en capitales dans Latin lookup 1" dx=5 dy=0 dh=10 dv=0
EndChar

StartChar: seven
Encoding: 55 55 24
Width: 662
Flags: W
HStem: 0 21G<82 261.6> 597 132<142 460>
LayerCount: 2
Fore
SplineSet
142 729 m 1
 664 729 l 1
 644 627 l 1
 249 0 l 1
 82 0 l 1
 460 597 l 1
 117 597 l 1
 142 729 l 1
EndSplineSet
Validated: 1
Position2: "sous-table 'cpsp' Chasses pour composition en capitales dans Latin lookup 1" dx=5 dy=0 dh=10 dv=0
EndChar

StartChar: eight
Encoding: 56 56 25
Width: 662
Flags: W
HStem: -14 109<215.923 361.219> 330 110<290.183 400.973> 632 110<318.014 453.32>
VStem: 28.4912 162.898<120.235 255.72> 114.148 156.196<459.165 582.745> 425.551 157.867<163.552 306.008> 472.657 162.679<504.017 614.275>
LayerCount: 2
Fore
SplineSet
332 330 m 0xe4
 258 330 210 289 195 213 c 0
 192.585713549 200.767615317 191.388994281 189.416023915 191.388994281 178.978582457 c 0
 191.388994281 124.568034636 223.910479823 95 286 95 c 0
 358 95 407 137 422 213 c 0
 424.379126519 225.054241028 425.550734532 236.227999813 425.550734532 246.497336027 c 0
 425.550734532 300.974469579 392.58019271 330 332 330 c 0xe4
217 388 m 1
 149.022812461 411.498287051 114.147622667 454.012615359 114.147622667 516.725112958 c 0
 114.147622667 528.739336034 115.4275926 541.494861152 118 555 c 0
 142 678 244 742 412 742 c 0
 558.850599247 742 635.335679349 692.51216236 635.335679349 596.936243167 c 0xea
 635.335679349 583.82225175 633.895722264 569.840576603 631 555 c 0
 615 471 559 416 468 388 c 1
 544.945454545 365.418181818 583.418181818 316.954710744 583.418181818 246.704865515 c 0
 583.418181818 232.960330579 581.945454545 218.381818182 579 203 c 0
 551 60 445 -14 265 -14 c 0
 108.638438595 -14 28.4911588685 41.8401667745 28.4911588685 150.24300195 c 0xf4
 28.4911588685 166.631133022 30.3229095519 184.220573783 34 203 c 0
 52 297 115 361 217 388 c 1
273 536 m 0
 271.221398409 526.958775247 270.343493821 518.488724203 270.343493821 510.6191514 c 0
 270.343493821 465.393711739 299.337658352 440 353 440 c 0
 416 440 458 475 470 536 c 0
 471.778601591 545.337658352 472.656506179 554.016270116 472.656506179 562.026067116 c 0
 472.656506179 608.057357503 443.662341648 632 390 632 c 0
 327 632 285 597 273 536 c 0
EndSplineSet
Validated: 524289
Position2: "sous-table 'cpsp' Chasses pour composition en capitales dans Latin lookup 1" dx=5 dy=0 dh=10 dv=0
EndChar

StartChar: nine
Encoding: 57 57 26
Width: 661
Flags: W
HStem: -14 114<101.897 305.324> 248 114<259.06 378.368> 631 110<303.467 435.74>
VStem: 73.4891 164.563<383.9 538.938> 456.941 165.082<441.009 607.681>
LayerCount: 2
Fore
SplineSet
32 14 m 1
 57 144 l 1
 108 115 157 100 207 100 c 0
 318 100 395 166 430 297 c 1
 381 266 329 248 269 248 c 0
 198 248 145 271 109 313 c 1
 85.3260869565 343.847826087 73.4891304348 382.415406427 73.4891304348 427.225918468 c 0
 73.4891304348 444.878544423 75.3260869565 463.5 79 483 c 0
 95 562 130 623 187 670 c 0
 245 717 315 741 396 741 c 0
 543.488639965 741 622.022613028 653.657421924 622.022613028 495.469959715 c 0
 622.022613028 458.455146489 617.722651437 417.561371474 609 373 c 0
 585 251 537 157 466 88 c 1
 393 19 308 -14 207 -14 c 0
 143 -14 85 -5 32 14 c 1
321 362 m 0
 390 362 435 407 452 497 c 0
 455.298637715 514.269338625 456.940650952 529.882052773 456.940650952 543.830836822 c 0
 456.940650952 601.769101104 428.611411628 631 373 631 c 0
 305 631 260 586 243 497 c 0
 239.693991256 479.497600766 238.05201894 463.69705697 238.05201894 449.598368613 c 0
 238.05201894 391.199456204 266.224034977 362 321 362 c 0
EndSplineSet
Validated: 524289
Position2: "sous-table 'cpsp' Chasses pour composition en capitales dans Latin lookup 1" dx=5 dy=0 dh=10 dv=0
EndChar

StartChar: colon
Encoding: 58 58 27
Width: 382
Flags: W
HStem: 0 184<79 212> 363 184<150 282>
VStem: 44 274
LayerCount: 2
Fore
SplineSet
150 547 m 1
 318 547 l 1
 282 363 l 1
 114 363 l 1
 150 547 l 1
79 184 m 1
 247 184 l 1
 212 0 l 1
 44 0 l 1
 79 184 l 1
EndSplineSet
Validated: 1
EndChar

StartChar: semicolon
Encoding: 59 59 28
Width: 379
Flags: W
HStem: 364 183<152 280>
LayerCount: 2
Fore
SplineSet
81 185 m 1
 245 185 l 1
 217 38 l 1
 63 -142 l 1
 -31 -142 l 1
 53 38 l 1
 81 185 l 1
152 547 m 1
 316 547 l 1
 280 364 l 1
 116 364 l 1
 152 547 l 1
EndSplineSet
Validated: 1
EndChar

StartChar: less
Encoding: 60 60 29
Width: 796
Flags: W
LayerCount: 2
Fore
SplineSet
725 481 m 1
 233 313 l 1
 660 147 l 1
 637 30 l 1
 88 259 l 1
 109 369 l 1
 748 597 l 1
 725 481 l 1
EndSplineSet
Validated: 1
EndChar

StartChar: equal
Encoding: 61 61 30
Width: 797
Flags: W
HStem: 144 110<87 660> 372 110<131 705>
LayerCount: 2
Fore
SplineSet
131 482 m 1
 726 482 l 1
 705 372 l 1
 110 372 l 1
 131 482 l 1
87 254 m 1
 682 254 l 1
 660 144 l 1
 65 144 l 1
 87 254 l 1
EndSplineSet
Validated: 1
EndChar

StartChar: greater
Encoding: 62 62 31
Width: 796
Flags: W
LayerCount: 2
Fore
SplineSet
131 481 m 1
 154 597 l 1
 703 369 l 1
 682 259 l 1
 43 30 l 1
 66 147 l 1
 557 313 l 1
 131 481 l 1
EndSplineSet
Validated: 1
EndChar

StartChar: question
Encoding: 63 63 32
Width: 552
Flags: W
HStem: 0 168<135 263> 556 21G<114.784 147> 623 119<200.158 360.375>
VStem: 377.897 160.866<502.159 605.625>
LayerCount: 2
Fore
SplineSet
311 249 m 1
 151 249 l 1
 155 269 l 2
 160 296 170 319 185 339 c 0
 200 359 226 386 265 417 c 2
 301 445 l 1
 346 483 370 513 376 544 c 0
 377.272256244 550.106829973 377.897058108 555.938491834 377.897058108 561.466155107 c 0
 377.897058108 599.38621157 348.493688158 623 297 623 c 0
 246 623 183 600 111 556 c 1
 139 704 l 1
 221 731 282 742 340 742 c 0
 470.98588334 742 538.763427691 693.088785306 538.763427691 600.488304905 c 0
 538.763427691 586.339323577 537.181051655 571.170345911 534 555 c 0
 522 492 492 446 423 390 c 2
 388 361 l 1
 335 319 320 298 314 267 c 2
 311 249 l 1
135 168 m 1
 295 168 l 1
 263 0 l 1
 103 0 l 1
 135 168 l 1
EndSplineSet
Validated: 524289
Position2: "sous-table 'cpsp' Chasses pour composition en capitales dans Latin lookup 1" dx=5 dy=0 dh=10 dv=0
EndChar

StartChar: at
Encoding: 64 64 33
Width: 949
Flags: W
HStem: -174 83<280.323 518.013> -25 20G<602.5 644.568> 46 81<382.191 484.717 631 680.087> 398 82<427.553 544.795> 621 82<421.056 661.553>
VStem: 41.202 74.2772<71.6652 312.196> 264.037 95.07<149.658 316.243> 814.623 74.0903<270.202 479.964>
LayerCount: 2
Fore
SplineSet
364 263 m 0
 360.711121613 246.749071502 359.106507749 231.695842219 359.106507749 217.985131529 c 0
 359.106507749 160.826064037 386.994732939 127 437 127 c 0
 497 127 547 180 564 263 c 0
 566.915267657 278.122950971 568.336608173 292.216752134 568.336608173 305.154376895 c 0
 568.336608173 363.222923964 539.703337829 398 489 398 c 0
 429 398 380 346 364 263 c 0
540 119 m 1
 512 74 460 46 404 46 c 0
 351 46 313 65 289 105 c 0
 272.257569496 132.457586027 264.036531959 164.400115722 264.036531959 202.029010806 c 0
 264.036531959 220.588037592 266.036366642 240.530319311 270 262 c 0
 283 327 309 379 350 420 c 0
 390 460 436 480 489 480 c 0
 545 480 585 452 595 405 c 1
 608 470 l 1
 698 470 l 1
 631 127 l 1
 722 140 788 211 809 319 c 0
 812.728501222 339.506756722 814.622747542 359.337735321 814.622747542 378.432944381 c 0
 814.622747542 420.794737765 805.300163815 459.535421759 786 494 c 0
 739 575 652 621 546 621 c 0
 472 621 398 601 332 560 c 1
 224 495 147 387 123 265 c 0
 117.986111111 238.611111111 115.479166667 212.988233025 115.479166667 188.33350748 c 0
 115.479166667 119.559799383 134.986111111 58.3194444444 174 9 c 0
 226 -57 305 -91 400 -91 c 0
 478 -91 568 -58 637 -5 c 1
 665 -79 l 1
 577 -141 478 -174 385 -174 c 0
 271 -174 174 -129 112 -49 c 1
 64.6726707532 9.97713336906 41.2020099593 84.8587123734 41.2020099593 168.310591492 c 0
 41.2020099593 199.472662263 44.4747061834 231.829756432 51 265 c 0
 74 383 138 495 233 576 c 1
 325 657 443 703 555 703 c 0
 692 703 798 646 855 541 c 1
 877.371536831 497.612777056 888.71308666 449.170143402 888.71308666 397.229913185 c 0
 888.71308666 372.553699474 886.153194264 347.088045961 881 321 c 0
 847 146 723 43 541 43 c 2
 525 43 l 1
 540 119 l 1
EndSplineSet
Validated: 524289
EndChar

StartChar: A
Encoding: 65 65 34
Width: 735
Flags: W
HStem: 0 21G<-58 123.37 493.333 667> 135 130<252 459> 709 20G<331.026 552.237>
LayerCount: 2
Fore
SplineSet
478 135 m 1
 183 135 l 1
 113 0 l 1
 -58 0 l 1
 342 729 l 1
 549 729 l 1
 667 0 l 1
 496 0 l 1
 478 135 l 1
252 265 m 1
 459 265 l 1
 414 565 l 1
 252 265 l 1
EndSplineSet
Validated: 1
Position2: "sous-table 'cpsp' Chasses pour composition en capitales dans Latin lookup 1" dx=5 dy=0 dh=10 dv=0
EndChar

StartChar: B
Encoding: 66 66 35
Width: 723
Flags: W
HStem: 0 121<219 416.434> 323 121<282 449.987> 609 120<314 485.088>
VStem: 472.702 166.212<175.198 300.766> 502.032 172.189<487.949 593.547>
LayerCount: 2
Fore
SplineSet
389 444 m 2xe8
 451 444 489 472 500 527 c 0
 501.356323278 534.324145701 502.031989807 541.169992065 502.031989807 547.532548872 c 0
 502.031989807 588.080318763 474.590795677 609 421 609 c 2
 314 609 l 1
 282 444 l 1
 389 444 l 2xe8
331 121 m 2
 410 121 457 155 470 223 c 0
 471.803193958 232.293384246 472.702122253 240.932618863 472.702122253 248.920372535 c 0xf0
 472.702122253 298.519767084 438.042129023 323 370 323 c 2
 258 323 l 1
 219 121 l 1
 331 121 l 2
547 391 m 1
 606.639942432 372.209333206 638.913806413 324.050191977 638.913806413 256.338147372 c 0xf0
 638.913806413 241.169842759 637.29426077 225.020347312 634 208 c 0
 607 69 505 0 322 0 c 2
 24 0 l 1
 165 729 l 1
 434 729 l 2
 599.576063843 729 674.220755655 686.164560283 674.220755655 588.115803884 c 0xe8
 674.220755655 573.060576304 672.460849948 556.703578581 669 539 c 0
 655 467 612 415 547 391 c 1
EndSplineSet
Validated: 524289
Position2: "sous-table 'cpsp' Chasses pour composition en capitales dans Latin lookup 1" dx=5 dy=0 dh=10 dv=0
EndChar

StartChar: C
Encoding: 67 67 36
Width: 698
Flags: W
HStem: -14 128<302.434 502.488> 614 128<391.207 604.011>
VStem: 45.2411 175.486<193.881 412.243>
LayerCount: 2
Fore
SplineSet
581 39 m 1
 509 3 435 -14 359 -14 c 0
 244 -14 157 20 102 87 c 1
 63.9270909775 134.943663214 45.2411194227 194.817749484 45.2411194227 266.972741768 c 0
 45.2411194227 297.157436243 48.5111851573 329.491302882 55 364 c 1
 78 480 129 573 210 640 c 0
 291 707 391 742 506 742 c 0
 582 742 649 725 707 689 c 1
 679 543 l 1
 624 593 566 614 495 614 c 0
 359 614 259 520 228 364 c 0
 223.119867878 338.623312964 220.727152218 314.887262318 220.727152218 292.929594683 c 0
 220.727152218 179.905255162 284.123265621 114 398 114 c 0
 469 114 535 135 609 185 c 1
 581 39 l 1
EndSplineSet
Validated: 524289
Position2: "sous-table 'cpsp' Chasses pour composition en capitales dans Latin lookup 1" dx=5 dy=0 dh=10 dv=0
EndChar

StartChar: D
Encoding: 68 68 37
Width: 788
Flags: W
HStem: 0 135<221 413.595> 594 135<310 496.581>
VStem: 580.598 175.565<317.895 518.175>
LayerCount: 2
Fore
SplineSet
310 594 m 1
 221 135 l 1
 292 135 l 2
 445 135 544 216 574 366 c 0
 578.408127279 388.64865395 580.598142469 409.679934503 580.598142469 429.062232647 c 0
 580.598142469 537.191372045 512.439319716 594 381 594 c 2
 310 594 l 1
165 729 m 1
 351 729 l 2
 458 729 535 721 585 705 c 0
 633 690 671 663 701 625 c 0
 737.894279591 578.882150511 756.162837636 522.19294555 756.162837636 454.575221614 c 0
 756.162837636 426.890321847 753.100387088 397.373419311 747 366 c 0
 725 257 678 170 600 105 c 1
 556 67 505 41 451 24 c 1
 395 8 315 0 210 0 c 2
 24 0 l 1
 165 729 l 1
EndSplineSet
Validated: 524289
Position2: "sous-table 'cpsp' Chasses pour composition en capitales dans Latin lookup 1" dx=5 dy=0 dh=10 dv=0
EndChar

StartChar: E
Encoding: 69 69 38
Width: 648
Flags: W
HStem: 0 136<221 516> 312 136<282 547> 594 135<310 621>
LayerCount: 2
Fore
SplineSet
165 729 m 1
 647 729 l 1
 621 594 l 1
 310 594 l 1
 282 448 l 1
 574 448 l 1
 547 312 l 1
 255 312 l 1
 221 136 l 1
 542 136 l 1
 516 0 l 1
 24 0 l 1
 165 729 l 1
EndSplineSet
Validated: 1
Position2: "sous-table 'cpsp' Chasses pour composition en capitales dans Latin lookup 1" dx=5 dy=0 dh=10 dv=0
EndChar

StartChar: F
Encoding: 70 70 39
Width: 649
Flags: W
HStem: 0 21G<24 199.846> 312 136<283 548> 594 135<311 621>
LayerCount: 2
Fore
SplineSet
165 729 m 1
 647 729 l 1
 621 594 l 1
 311 594 l 1
 283 448 l 1
 575 448 l 1
 548 312 l 1
 256 312 l 1
 196 0 l 1
 24 0 l 1
 165 729 l 1
EndSplineSet
Validated: 1
Position2: "sous-table 'cpsp' Chasses pour composition en capitales dans Latin lookup 1" dx=5 dy=0 dh=10 dv=0
EndChar

StartChar: G
Encoding: 71 71 40
Width: 779
Flags: W
HStem: -14 128<303.019 508.983> 282 119<452 540> 614 128<396.764 635.739>
VStem: 44.2411 175.178<194.797 412.79>
LayerCount: 2
Fore
SplineSet
656 53 m 1
 559 8 459 -14 357 -14 c 0
 242 -14 156 20 101 87 c 1
 62.9270909775 134.943663214 44.2411194227 194.817749484 44.2411194227 266.972741768 c 0
 44.2411194227 297.157436243 47.5111851573 329.491302882 54 364 c 1
 77 480 129 574 210 641 c 1
 293 707 394 742 514 742 c 0
 606 742 686 725 754 689 c 1
 726 543 l 1
 660 592 588 614 511 614 c 0
 362 614 258 524 227 364 c 0
 221.92111626 337.786406503 219.419054335 313.451745579 219.419054335 291.083970041 c 0
 219.419054335 176.925477768 284.592234147 114 405 114 c 0
 446 114 481 119 511 131 c 1
 540 282 l 1
 429 282 l 1
 452 401 l 1
 723 401 l 1
 656 53 l 1
EndSplineSet
Validated: 524289
Position2: "sous-table 'cpsp' Chasses pour composition en capitales dans Latin lookup 1" dx=5 dy=0 dh=10 dv=0
EndChar

StartChar: H
Encoding: 72 72 41
Width: 794
Flags: W
HStem: 0 21G<24 197.846 474 647.868> 312 136<281 534> 709 20G<161.132 335 611.157 785>
LayerCount: 2
Fore
SplineSet
165 729 m 1
 335 729 l 1
 281 448 l 1
 561 448 l 1
 615 729 l 1
 785 729 l 1
 644 0 l 1
 474 0 l 1
 534 312 l 1
 254 312 l 1
 194 0 l 1
 24 0 l 1
 165 729 l 1
EndSplineSet
Validated: 1
Position2: "sous-table 'cpsp' Chasses pour composition en capitales dans Latin lookup 1" dx=5 dy=0 dh=10 dv=0
EndChar

StartChar: I
Encoding: 73 73 42
Width: 355
Flags: W
HStem: 0 21G<25 207.868> 709 20G<162.132 345>
VStem: 25 320
LayerCount: 2
Fore
SplineSet
166 729 m 1
 345 729 l 1
 204 0 l 1
 25 0 l 1
 166 729 l 1
EndSplineSet
Validated: 1
Position2: "sous-table 'cpsp' Chasses pour composition en capitales dans Latin lookup 1" dx=5 dy=0 dh=10 dv=0
EndChar

StartChar: J
Encoding: 74 74 43
Width: 353
Flags: W
HStem: -200 134<-129 -24.502> 709 20G<168.121 344>
LayerCount: 2
Fore
SplineSet
172 729 m 1
 344 729 l 1
 216 69 l 2
 181 -111 69 -200 -124 -200 c 2
 -155 -200 l 1
 -129 -66 l 1
 -107 -66 l 2
 -24 -66 27 -20 44 69 c 2
 172 729 l 1
EndSplineSet
Validated: 1
Position2: "sous-table 'cpsp' Chasses pour composition en capitales dans Latin lookup 1" dx=5 dy=0 dh=10 dv=0
EndChar

StartChar: K
Encoding: 75 75 44
Width: 736
Flags: W
HStem: 0 21G<24 198.836 467.11 701> 709 20G<161.132 336 582.148 807>
LayerCount: 2
Fore
SplineSet
165 729 m 1
 336 729 l 1
 284 459 l 1
 606 729 l 1
 807 729 l 1
 400 385 l 1
 701 0 l 1
 483 0 l 1
 251 292 l 1
 195 0 l 1
 24 0 l 1
 165 729 l 1
EndSplineSet
Validated: 1
Position2: "sous-table 'cpsp' Chasses pour composition en capitales dans Latin lookup 1" dx=5 dy=0 dh=10 dv=0
EndChar

StartChar: L
Encoding: 76 76 45
Width: 605
Flags: W
HStem: 0 136<221 516> 709 20G<161.132 336>
LayerCount: 2
Fore
SplineSet
165 729 m 1
 336 729 l 1
 221 136 l 1
 542 136 l 1
 516 0 l 1
 24 0 l 1
 165 729 l 1
EndSplineSet
Validated: 1
Position2: "sous-table 'cpsp' Chasses pour composition en capitales dans Latin lookup 1" dx=5 dy=0 dh=10 dv=0
EndChar

StartChar: M
Encoding: 77 77 46
Width: 945
Flags: W
HStem: 0 21G<24 189.852 633 798.868> 709 20G<161.132 390.405 702.747 936>
LayerCount: 2
Fore
SplineSet
165 729 m 1
 386 729 l 1
 473 334 l 1
 715 729 l 1
 936 729 l 1
 795 0 l 1
 633 0 l 1
 737 540 l 1
 490 142 l 1
 383 142 l 1
 290 540 l 1
 186 0 l 1
 24 0 l 1
 165 729 l 1
EndSplineSet
Validated: 1
Position2: "sous-table 'cpsp' Chasses pour composition en capitales dans Latin lookup 1" dx=5 dy=0 dh=10 dv=0
EndChar

StartChar: N
Encoding: 78 78 47
Width: 794
Flags: W
HStem: 0 21G<24 189.866 444.412 647.868> 709 20G<161.132 364.588 619.134 785>
LayerCount: 2
Fore
SplineSet
165 729 m 1
 358 729 l 1
 525 222 l 1
 623 729 l 1
 785 729 l 1
 644 0 l 1
 451 0 l 1
 284 507 l 1
 186 0 l 1
 24 0 l 1
 165 729 l 1
EndSplineSet
Validated: 1
Position2: "sous-table 'cpsp' Chasses pour composition en capitales dans Latin lookup 1" dx=5 dy=0 dh=10 dv=0
EndChar

StartChar: O
Encoding: 79 79 48
Width: 809
Flags: W
HStem: -14 128<283.472 452.643> 614 128<371.64 540.809>
VStem: 44.0435 175.335<180.646 406.711> 604.106 174.85<321.124 548.648>
LayerCount: 2
Fore
SplineSet
461 614 m 0
 344 614 259 522 228 364 c 0
 222.226440098 333.592584519 219.378864109 305.629661926 219.378864109 280.296560039 c 0
 219.378864109 173.99630754 269.516883616 114 364 114 c 0
 480 114 565 206 595 364 c 0
 601.103900987 395.110205029 604.106232171 423.661614971 604.106232171 449.455752588 c 0
 604.106232171 554.662800584 554.159596308 614 461 614 c 0
486 742 m 0
 596 742 677 707 727 641 c 0
 761.850386715 595.216158629 778.956490747 537.291492264 778.956490747 467.864179557 c 0
 778.956490747 435.691674248 775.283158932 401.04911283 768 364 c 0
 745 246 696 153 619 86 c 0
 543 19 449 -14 339 -14 c 0
 228 -14 147 19 96 86 c 0
 61.1496132847 131.783841371 44.0435092529 189.708507736 44.0435092529 259.454909769 c 0
 44.0435092529 291.77528056 47.7168410677 326.634228086 55 364 c 0
 78 481 127 574 204 641 c 0
 281 707 375 742 486 742 c 0
EndSplineSet
Validated: 524289
Position2: "sous-table 'cpsp' Chasses pour composition en capitales dans Latin lookup 1" dx=5 dy=0 dh=10 dv=0
EndChar

StartChar: P
Encoding: 80 80 49
Width: 696
Flags: W
HStem: 0 21G<24 199.828> 256 129<270 455.707> 600 129<312 490.508>
VStem: 518.92 176.204<445.553 571.99>
LayerCount: 2
Fore
SplineSet
165 729 m 1
 463 729 l 2
 614.101430959 729 695.123698191 665.630543438 695.123698191 551.122157758 c 0
 695.123698191 533.011233569 693.09689755 513.621051001 689 493 c 1
 660 341 546 256 371 256 c 2
 245 256 l 1
 196 0 l 1
 24 0 l 1
 165 729 l 1
312 600 m 1
 270 385 l 1
 377 385 l 2
 451 385 503 424 516 493 c 0
 517.959200659 502.656060391 518.91961648 511.705016272 518.91961648 520.127683135 c 0
 518.91961648 571.891468096 482.644225088 600 419 600 c 2
 312 600 l 1
EndSplineSet
Validated: 524289
Position2: "sous-table 'cpsp' Chasses pour composition en capitales dans Latin lookup 1" dx=5 dy=0 dh=10 dv=0
EndChar

StartChar: Q
Encoding: 81 81 50
Width: 809
Flags: W
HStem: -11 126<282.707 361> 614 128<371.64 541.025>
VStem: 44.7199 174.095<180.033 413.512> 604.106 174.882<320.905 548.279>
LayerCount: 2
Fore
SplineSet
361 -11 m 1
 343 -11 l 2
 230 -11 148 22 97 88 c 0
 61.8183035895 134.219091363 44.7198701426 192.335066254 44.7198701426 262.67620118 c 0
 44.7198701426 294.302800821 48.1764180594 328.400787773 55 365 c 1
 78 482 127 574 204 641 c 0
 281 707 375 742 486 742 c 0
 597 742 678 708 728 642 c 0
 762.098020267 596.990613248 778.988450739 539.424336647 778.988450739 469.935488839 c 0
 778.988450739 437.528614748 775.314910677 402.528672171 768 365 c 0
 736 199 642 77 503 16 c 1
 614 -146 l 1
 450 -146 l 1
 361 -11 l 1
461 614 m 0
 344 614 259 522 228 365 c 0
 221.856067111 333.091187253 218.815240357 304.010521871 218.815240357 277.89034754 c 0
 218.815240357 172.217838114 268.584774639 115 364 115 c 0
 480 115 565 207 595 365 c 1
 601.103900987 395.913304997 604.106232171 424.30658453 604.106232171 449.97372762 c 0
 604.106232171 554.662800584 554.159596308 614 461 614 c 0
EndSplineSet
Validated: 524289
Position2: "sous-table 'cpsp' Chasses pour composition en capitales dans Latin lookup 1" dx=5 dy=0 dh=10 dv=0
EndChar

StartChar: R
Encoding: 82 82 51
Width: 731
Flags: W
HStem: 0 21G<24 198.857 460.725 649> 280 122<273 376.894> 601 128<311 472.158>
VStem: 491.519 174.775<477.044 633.337>
LayerCount: 2
Fore
SplineSet
355 402 m 2
 437 402 474 431 488 503 c 0
 490.324358045 514.621790224 491.518571941 525.085871809 491.518571941 534.4563145 c 0
 491.518571941 581.525626419 461.38590288 601 393 601 c 2
 311 601 l 1
 273 402 l 1
 355 402 l 2
249 280 m 1
 195 0 l 1
 24 0 l 1
 165 729 l 1
 437 729 l 2
 593.527631462 729 666.294061067 683.380059703 666.294061067 582.438909474 c 0
 666.294061067 566.657229231 664.515367856 549.523284474 661 531 c 0
 642 434 584 371 488 342 c 1
 537 330 566 290 589 204 c 1
 649 0 l 1
 466 0 l 1
 418 182 l 1
 396 258 368 280 306 280 c 2
 249 280 l 1
EndSplineSet
Validated: 524289
Position2: "sous-table 'cpsp' Chasses pour composition en capitales dans Latin lookup 1" dx=5 dy=0 dh=10 dv=0
EndChar

StartChar: S
Encoding: 83 83 52
Width: 683
Flags: W
HStem: -14 128<156.945 379.016> 558 21G<580.5 618.893> 614 128<304.44 537.684>
VStem: 99.9311 157.474<426.457 571.508> 430.415 169.123<166.209 275.538>
LayerCount: 2
Fore
SplineSet
644 707 m 1
 615 558 l 1
 546 596 476 614 411 614 c 0
 320 614 270 588 259 532 c 0
 257.955349885 526.385005631 257.405192301 521.162194994 257.405192301 516.287036048 c 0
 257.405192301 483.827903824 281.793594829 466.780118505 347 452 c 2
 422 436 l 2
 546.511171658 409.078665587 599.537399076 362.33972287 599.537399076 275.538127592 c 0
 599.537399076 259.163148993 597.650290891 241.362412552 594 222 c 0
 563 63 460 -14 273 -14 c 0
 185 -14 97 2 15 37 c 1
 45 191 l 1
 124 140 203 114 280 114 c 0
 364 114 417 144 428 199 c 0
 429.560412714 206.489981029 430.414707955 213.371240097 430.414707955 219.731164095 c 0
 430.414707955 254.129200729 405.424409386 273.2768667 332 291 c 2
 264 307 l 2
 152.189740324 334.105517497 99.9310954326 384.170693707 99.9310954326 468.742730961 c 0
 99.9310954326 484.014026062 101.635043279 500.410453506 105 518 c 0
 133 662 240 742 407 742 c 0
 483 742 562 731 644 707 c 1
EndSplineSet
Validated: 524289
Position2: "sous-table 'cpsp' Chasses pour composition en capitales dans Latin lookup 1" dx=5 dy=0 dh=10 dv=0
EndChar

StartChar: T
Encoding: 84 84 53
Width: 648
Flags: W
HStem: 0 21G<176 349.872> 594 135<83 291 461 695>
LayerCount: 2
Fore
SplineSet
83 729 m 1
 721 729 l 1
 695 594 l 1
 461 594 l 1
 346 0 l 1
 176 0 l 1
 291 594 l 1
 57 594 l 1
 83 729 l 1
EndSplineSet
Validated: 1
Position2: "sous-table 'cpsp' Chasses pour composition en capitales dans Latin lookup 1" dx=5 dy=0 dh=10 dv=0
EndChar

StartChar: U
Encoding: 85 85 54
Width: 771
Flags: W
HStem: -14 129<271.76 425.344> 709 20G<161.119 334 589.119 762>
VStem: 69.8547 170.968<144.804 345.75>
LayerCount: 2
Fore
SplineSet
165 729 m 1
 334 729 l 1
 249 291 l 2
 243.590500609 262.600128198 240.822771271 238.061304934 240.822771271 217.085808261 c 0
 240.822771271 145.000582717 273.511018524 115 344 115 c 0
 436 115 484 165 508 291 c 2
 593 729 l 1
 762 729 l 1
 677 291 l 2
 637 84 521 -14 319 -14 c 0
 151.946332585 -14 69.8547235107 53.6933472952 69.8547235107 195.395030269 c 0
 69.8547235107 224.189683703 73.2445109283 256.040344054 80 291 c 2
 165 729 l 1
EndSplineSet
Validated: 524289
Position2: "sous-table 'cpsp' Chasses pour composition en capitales dans Latin lookup 1" dx=5 dy=0 dh=10 dv=0
EndChar

StartChar: V
Encoding: 86 86 55
Width: 735
Flags: W
HStem: 0 21G<197.763 418.974> 709 20G<83 257.156 626.101 808>
LayerCount: 2
Fore
SplineSet
83 729 m 1
 254 729 l 1
 340 184 l 1
 637 729 l 1
 808 729 l 1
 408 0 l 1
 201 0 l 1
 83 729 l 1
EndSplineSet
Validated: 1
Position2: "sous-table 'cpsp' Chasses pour composition en capitales dans Latin lookup 1" dx=5 dy=0 dh=10 dv=0
EndChar

StartChar: W
Encoding: 87 87 56
Width: 1046
Flags: W
HStem: 0 21G<129.342 337.556 590.216 798.368> 709 20G<106 268.819 510.471 683.782 925.434 1095>
VStem: 106 162<558.136 729>
LayerCount: 2
Fore
SplineSet
106 729 m 1
 268 729 l 1
 290 192 l 1
 519 729 l 1
 683 729 l 1
 704 192 l 1
 934 729 l 1
 1095 729 l 1
 790 0 l 1
 591 0 l 1
 569 561 l 1
 329 0 l 1
 130 0 l 1
 106 729 l 1
EndSplineSet
Validated: 1
Position2: "sous-table 'cpsp' Chasses pour composition en capitales dans Latin lookup 1" dx=5 dy=0 dh=10 dv=0
EndChar

StartChar: X
Encoding: 88 88 57
Width: 733
Flags: W
HStem: 0 21G<-45 152.154 461.593 651> 709 20G<106 294.456 584.929 782>
LayerCount: 2
Fore
SplineSet
477 372 m 1
 651 0 l 1
 471 0 l 1
 352 253 l 1
 135 0 l 1
 -45 0 l 1
 273 372 l 1
 106 729 l 1
 285 729 l 1
 398 490 l 1
 602 729 l 1
 782 729 l 1
 477 372 l 1
EndSplineSet
Validated: 1
Position2: "sous-table 'cpsp' Chasses pour composition en capitales dans Latin lookup 1" dx=5 dy=0 dh=10 dv=0
EndChar

StartChar: Y
Encoding: 89 89 58
Width: 688
Flags: W
HStem: 0 21G<196 368.844> 709 20G<68 265.528 569.698 775>
LayerCount: 2
Fore
SplineSet
68 729 m 1
 257 729 l 1
 370 464 l 1
 586 729 l 1
 775 729 l 1
 424 307 l 1
 365 0 l 1
 196 0 l 1
 255 307 l 1
 68 729 l 1
EndSplineSet
Validated: 1
Position2: "sous-table 'cpsp' Chasses pour composition en capitales dans Latin lookup 1" dx=5 dy=0 dh=10 dv=0
EndChar

StartChar: Z
Encoding: 90 90 59
Width: 690
Flags: W
HStem: 0 137<219 584> 593 136<131 475>
LayerCount: 2
Fore
SplineSet
131 729 m 1
 713 729 l 1
 692 620 l 1
 219 137 l 1
 610 137 l 1
 584 0 l 1
 -20 0 l 1
 1 109 l 1
 475 593 l 1
 105 593 l 1
 131 729 l 1
EndSplineSet
Validated: 1
Position2: "sous-table 'cpsp' Chasses pour composition en capitales dans Latin lookup 1" dx=5 dy=0 dh=10 dv=0
EndChar

StartChar: bracketleft
Encoding: 91 91 60
Width: 435
Flags: W
HStem: -132 103<165 281> 657 103<298 434>
LayerCount: 2
Fore
SplineSet
166 760 m 1
 454 760 l 1
 434 657 l 1
 298 657 l 1
 165 -29 l 1
 301 -29 l 1
 281 -132 l 1
 -7 -132 l 1
 166 760 l 1
EndSplineSet
Validated: 1
EndChar

StartChar: backslash
Encoding: 92 92 61
Width: 347
Flags: W
HStem: 709 20G<78 175.238>
VStem: 78 187
LayerCount: 2
Fore
SplineSet
169 -93 m 1
 78 729 l 1
 173 729 l 1
 265 -93 l 1
 169 -93 l 1
EndSplineSet
Validated: 1
EndChar

StartChar: bracketright
Encoding: 93 93 62
Width: 435
Flags: W
HStem: -132 103<-4 132> 657 103<149 265>
LayerCount: 2
Fore
SplineSet
264 -132 m 1
 -24 -132 l 1
 -4 -29 l 1
 132 -29 l 1
 265 657 l 1
 129 657 l 1
 149 760 l 1
 437 760 l 1
 264 -132 l 1
EndSplineSet
Validated: 1
EndChar

StartChar: asciicircum
Encoding: 94 94 63
Width: 796
Flags: W
HStem: 457 272
LayerCount: 2
Fore
SplineSet
531 729 m 1
 725 457 l 1
 619 457 l 1
 453 610 l 1
 227 457 l 1
 121 457 l 1
 421 729 l 1
 531 729 l 1
EndSplineSet
Validated: 1
EndChar

StartChar: underscore
Encoding: 95 95 64
Width: 475
Flags: W
HStem: -236 93<-91 366>
LayerCount: 2
Fore
SplineSet
384 -143 m 1
 366 -236 l 1
 -109 -236 l 1
 -91 -143 l 1
 384 -143 l 1
EndSplineSet
Validated: 1
EndChar

StartChar: grave
Encoding: 96 96 65
Width: 475
Flags: W
HStem: 616 184
VStem: 136 226
LayerCount: 2
Fore
SplineSet
263 800 m 1
 362 616 l 1
 276 616 l 1
 136 800 l 1
 263 800 l 1
EndSplineSet
Validated: 1
EndChar

StartChar: a
Encoding: 97 97 66
Width: 641
Flags: W
HStem: -14 108<126.5 261.472> 0 21G<344 506.834> 249 97<206.523 392> 452 108<159.542 393.38>
VStem: 4.83333 160.218<108.507 211.797> 416.111 155.609<346.297 429.333>
LayerCount: 2
Fore
SplineSet
297 249 m 2xbc
 221 249 177 223 167 171 c 0
 165.69161212 164.719738178 165.05085699 158.764733336 165.05085699 153.157383489 c 0
 165.05085699 115.907795163 193.326972126 94 242 94 c 0
 310 94 373 150 387 225 c 1
 392 249 l 1
 297 249 l 2xbc
563 313 m 2
 503 0 l 1
 344 0 l 1x7c
 360 83 l 1
 298 14 238 -14 153 -14 c 0
 100 -14 60 2 33 35 c 0
 14.2222222222 58.1111111111 4.83333333333 86.9598765432 4.83333333333 120.792866941 c 0
 4.83333333333 133.805555556 6.22222222222 147.555555556 9 162 c 0
 34 289 126 346 305 346 c 2
 411 346 l 1
 414 365 l 1
 415.405310789 371.909444715 416.11117839 378.393737688 416.11117839 384.457697228 c 0
 416.11117839 430.174108992 375.991732149 452 293 452 c 0
 222 452 158 436 100 405 c 1
 125 533 l 1
 200 552 273 560 346 560 c 0
 501.248864068 560 571.720588249 509.685112099 571.720588249 393.033270707 c 0
 571.720588249 369.175907918 568.772933806 342.543837712 563 313 c 2
EndSplineSet
Validated: 524289
Substitution2: "sous-table Substitution simple lookups10" ordfeminine
Substitution2: "sous-table 'aalt' Activer toutes les variantes dans Latin lookup 0" ordfeminine
EndChar

StartChar: b
Encoding: 98 98 67
Width: 680
Flags: W
HStem: -14 118<259.844 385.658> -1 21G<16 178.951> 438 119<363.737 496.5> 740 20G<160.11 323>
VStem: 472.512 162.52<220.449 407.198>
LayerCount: 2
Fore
SplineSet
314 104 m 0xb8
 392 104 445 163 466 271 c 0
 470.350031901 293.371592635 472.511715379 313.640654433 472.511715379 331.718302241 c 0
 472.511715379 400.911417634 440.842738652 438 379 438 c 0
 303 438 249 379 228 271 c 0
 223.700362557 248.887578866 221.580584233 228.829255747 221.580584233 210.91086035 c 0
 221.580584233 141.313434157 253.56059265 104 314 104 c 0xb8
265 462 m 1
 326 527 389 557 465 557 c 0
 528 557 576 530 605 477 c 1
 625.020833333 442.770833333 635.03125 401.868055556 635.03125 354.561044198 c 0
 635.03125 328.618489583 632.020833333 300.75 626 271 c 1
 610 186 576 117 525 65 c 1
 475 12 417 -14 354 -14 c 0xb8
 278 -14 226 15 191 80 c 1
 175 -1 l 1
 16 -1 l 1x78
 164 760 l 1
 323 760 l 1
 265 462 l 1
EndSplineSet
Validated: 524289
EndChar

StartChar: c
Encoding: 99 99 68
Width: 564
Flags: W
HStem: -14 117<237.287 418.498> 443 117<293.984 474.469>
VStem: 23.6287 164.516<151.479 323.101>
LayerCount: 2
Fore
SplineSet
540 531 m 1
 513 393 l 1
 475 428 434 443 386 443 c 0
 286 443 214 381 193 273 c 0
 189.74208482 256.245007644 188.144865288 240.597145721 188.144865288 226.116156459 c 0
 188.144865288 147.255005833 235.513881811 103 320 103 c 0
 372 103 422 119 466 153 c 1
 439 14 l 1
 384 -5 328 -14 275 -14 c 0
 113.542350444 -14 23.6287123814 64.9196827809 23.6287123814 201.222244778 c 0
 23.6287123814 223.629299364 26.0586049705 247.587111277 31 273 c 0
 66 453 198 560 386 560 c 0
 440 560 491 551 540 531 c 1
EndSplineSet
Validated: 524289
EndChar

StartChar: d
Encoding: 100 100 69
Width: 680
Flags: W
HStem: -14 118<162 294.776> -1 21G<376 539.89> 438 119<273.026 398.307> 740 20G<520.107 684>
VStem: 23.4119 162.186<134.515 321.308>
LayerCount: 2
Fore
SplineSet
466 462 m 1xb8
 524 760 l 1
 684 760 l 1
 536 -1 l 1
 376 -1 l 1x78
 392 80 l 1
 331 15 270 -14 194 -14 c 0
 130 -14 83 12 53 65 c 1
 33.0062936232 98.5378300514 23.4118665045 139.147169998 23.4118665045 186.559735794 c 0
 23.4118665045 212.659780015 26.3193323235 240.821452969 32 271 c 1
 49 355 82 424 133 477 c 0
 184 530 241 557 305 557 c 0
 381 557 431 527 466 462 c 1xb8
280 104 m 0xb8
 356 104 408 163 429 271 c 0
 433.438138678 293.824713204 435.643048907 314.460862526 435.643048907 332.814053896 c 0
 435.643048907 401.302903003 404.938164783 438 345 438 c 0
 267 438 213 379 192 271 c 0
 187.717631222 248.97638914 185.597646757 228.990409653 185.597646757 211.126861237 c 0
 185.597646757 141.390640422 217.905941176 104 280 104 c 0xb8
EndSplineSet
Validated: 524289
EndChar

StartChar: e
Encoding: 101 101 70
Width: 644
Flags: W
HStem: -14 108<221.859 434.176> 227 103<204 439.814> 452 108<275.35 413.32>
VStem: 23.199 157.631<134.054 226.679> 440.114 155.385<330.608 424.643>
LayerCount: 2
Fore
SplineSet
588 275 m 2
 579 227 l 1
 182 227 l 1
 181.219853357 219.458582454 180.830431366 212.225236268 180.830431366 205.303218092 c 0
 180.830431366 132.37080869 224.061515308 94 309 94 c 0
 378 94 456 116 542 162 c 1
 517 32 l 1
 432 1 351 -14 272 -14 c 0
 112.168528549 -14 23.1990099373 63.4367732049 23.1990099373 198.953956201 c 0
 23.1990099373 221.989484948 25.7696950386 246.703188944 31 273 c 0
 48 361 86 432 147 482 c 0
 208 533 284 560 373 560 c 0
 454 560 515 533 553 481 c 1
 581.216007553 445.729990559 595.499511167 400.508192591 595.499511167 346.738604796 c 0
 595.499511167 324.282542744 593.00819679 300.335583762 588 275 c 2
437 330 m 1
 439.093860122 340.917984919 440.114026314 351.299122875 440.114026314 361.059776778 c 0
 440.114026314 416.560958299 407.128945141 452 351 452 c 0
 282 452 230 409 204 330 c 1
 437 330 l 1
EndSplineSet
Validated: 524289
EndChar

StartChar: f
Encoding: 102 102 71
Width: 413
Flags: W
HStem: 0 21G<40 202.879> 428 119<61 123 305 429> 653 107<334.291 485>
LayerCount: 2
Fore
SplineSet
506 760 m 1
 485 653 l 1
 396 653 l 2
 343 653 322 636 313 588 c 2
 305 547 l 1
 452 547 l 1
 429 428 l 1
 282 428 l 1
 199 0 l 1
 40 0 l 1
 123 428 l 1
 38 428 l 1
 61 547 l 1
 146 547 l 1
 154 588 l 2
 177 705 249 760 381 760 c 2
 506 760 l 1
EndSplineSet
Validated: 1
EndChar

StartChar: g
Encoding: 103 103 72
Width: 680
Flags: W
HStem: -216 108<86.7223 293.6> 3 119<165.5 299.74> 442 117<274.201 399.862> 528 20G<479.145 643>
VStem: 26.3687 162.615<150.656 335.445>
LayerCount: 2
Fore
SplineSet
395 97 m 1xd8
 336 32 273 3 197 3 c 0
 134 3 87 28 56 81 c 0
 36.1492371107 116.069681105 26.3687121187 157.269072233 26.3687121187 204.598173387 c 0
 26.3687121187 228.79645093 28.9253814447 254.597059801 34 282 c 0
 50 363 83 430 134 481 c 1
 185 534 242 559 305 559 c 0xe8
 381 559 433 530 467 465 c 1
 483 548 l 1
 643 548 l 1
 547 54 l 2
 513 -122 386 -216 185 -216 c 0
 121 -216 62 -206 6 -185 c 1
 31 -55 l 1
 82 -91 134 -108 190 -108 c 0
 305 -108 365 -58 387 54 c 1
 395 97 l 1xd8
345 442 m 0
 270 442 215 383 195 282 c 0
 190.983870705 260.915321204 188.983903225 241.846804221 188.983903225 224.834934885 c 0
 188.983903225 157.129066875 220.662904249 122 283 122 c 0
 358 122 411 180 431 282 c 0
 434.975808516 302.077833008 436.93621773 320.495925413 436.93621773 337.120729854 c 0
 436.93621773 404.125729876 405.090718063 442 345 442 c 0
EndSplineSet
Validated: 524289
EndChar

StartChar: h
Encoding: 104 104 73
Width: 676
Flags: W
HStem: 0 21G<17 178.881 381 542.844> 434 123<365.511 514.09> 740 20G<160.132 322>
VStem: 448.243 163.085<264.684 418.382>
LayerCount: 2
Fore
SplineSet
603 333 m 2
 539 0 l 1
 381 0 l 1
 390 51 l 1
 430 253 l 2
 439 301 445 336 447 353 c 0
 447.878679656 358.272077939 448.242640687 363.201010127 448.242640687 367.761670299 c 0
 448.242640687 378.772077939 446.121320344 387.636038969 444 394 c 0
 435 419 410 434 379 434 c 0
 304 434 247 372 227 268 c 2
 175 0 l 1
 17 0 l 1
 164 760 l 1
 322 760 l 1
 264 463 l 1
 330 528 394 557 466 557 c 0
 562.180901983 557 611.327332865 506.045989642 611.327332865 409.417868382 c 0
 611.327332865 386.492666759 608.56095666 360.996540425 603 333 c 2
EndSplineSet
Validated: 524289
EndChar

StartChar: i
Encoding: 105 105 74
Width: 326
Flags: W
HStem: 0 21G<17 186.853> 624 136<164 304>
VStem: 17 313
LayerCount: 2
Fore
SplineSet
122 545 m 1
 288 545 l 1
 183 0 l 1
 17 0 l 1
 122 545 l 1
164 760 m 1
 330 760 l 1
 304 624 l 1
 138 624 l 1
 164 760 l 1
EndSplineSet
Validated: 1
EndChar

StartChar: j
Encoding: 106 106 75
Width: 327
Flags: W
HStem: -216 107<-116 -15.9106> 624 136<169 305>
LayerCount: 2
Fore
SplineSet
127 545 m 1
 289 545 l 1
 185 7 l 2
 157 -138 71 -216 -56 -216 c 2
 -136 -216 l 1
 -116 -109 l 1
 -92 -109 l 2
 -20 -109 5 -85 23 7 c 2
 127 545 l 1
169 760 m 1
 331 760 l 1
 305 624 l 1
 143 624 l 1
 169 760 l 1
EndSplineSet
Validated: 1
EndChar

StartChar: k
Encoding: 107 107 76
Width: 632
Flags: W
HStem: 0 21G<17 180.879 376.431 587> 740 20G<160.132 324>
LayerCount: 2
Fore
SplineSet
164 760 m 1
 324 760 l 1
 243 341 l 1
 485 545 l 1
 672 545 l 1
 364 296 l 1
 587 0 l 1
 391 0 l 1
 222 232 l 1
 177 0 l 1
 17 0 l 1
 164 760 l 1
EndSplineSet
Validated: 1
EndChar

StartChar: l
Encoding: 108 108 77
Width: 326
Flags: W
HStem: 0 21G<17 186.868> 740 20G<160.132 330>
VStem: 17 313
LayerCount: 2
Fore
SplineSet
164 760 m 1
 330 760 l 1
 183 0 l 1
 17 0 l 1
 164 760 l 1
EndSplineSet
Validated: 1
EndChar

StartChar: m
Encoding: 109 109 78
Width: 990
Flags: W
HStem: 0 21G<16 177.866 356 515.866 696 855.832> 436 124<356.356 484 689.296 827.073> 528 20G<118.131 280>
VStem: 765.335 158.823<264.906 424.587>
LayerCount: 2
Fore
SplineSet
587 454 m 1xd0
 642 523 710 560 780 560 c 0
 874.145569322 560 924.158631886 508.621857803 924.158631886 410.142341269 c 0
 924.158631886 387.281852105 921.463607669 361.88323914 916 334 c 2
 852 0 l 1
 696 0 l 1
 751 286 l 1
 755 295 756 302 760 319 c 0
 763.522308335 338.255285567 765.335255176 354.918958545 765.335255176 369.146396954 c 0
 765.335255176 415.50751463 746.084869437 436 704 436 c 0
 636 436 586 377 564 269 c 1
 512 0 l 1
 356 0 l 1
 411 286 l 2
 419.426664401 327.485117053 423.231462517 358.88616221 423.231462517 380.747847585 c 0
 423.231462517 392.612663745 422.110770276 401.667689171 420 408 c 1
 412 426 394 436 365 436 c 0xd0
 296 436 247 377 226 269 c 2
 174 0 l 1
 16 0 l 1
 122 548 l 1
 280 548 l 1xb0
 264 466 l 1
 319 528 381 560 448 560 c 0
 520 560 570 520 587 454 c 1xd0
EndSplineSet
Validated: 524289
EndChar

StartChar: n
Encoding: 110 110 79
Width: 676
Flags: W
HStem: 0 21G<17 178.866 381 542.832> 436 124<365.75 514.09> 528 20G<119.131 281>
VStem: 448.785 162.543<264.996 420.62>
LayerCount: 2
Fore
SplineSet
603 334 m 2xd0
 539 0 l 1
 381 0 l 1
 390 51 l 1
 430 255 l 2
 439 303 445 337 448 355 c 0
 448.535898385 359.823085464 448.784609691 364.358983849 448.784609691 368.588457268 c 0
 448.784609691 380.143593539 446.92820323 389.411542732 444 396 c 1
 436 422 410 436 379 436 c 0xd0
 304 436 247 374 227 269 c 2
 175 0 l 1
 17 0 l 1
 123 548 l 1
 281 548 l 1xb0
 265 466 l 1
 331 531 394 560 466 560 c 0
 562.180901983 560 611.327332865 509.045989642 611.327332865 411.361888491 c 0
 611.327332865 388.186153673 608.56095666 362.380054677 603 334 c 2xd0
EndSplineSet
Validated: 524289
EndChar

StartChar: o
Encoding: 111 111 80
Width: 653
Flags: W
HStem: -14 117<218.829 356.082> 443 117<276.758 414.189>
VStem: 23.3201 163.014<137.033 323.455> 446.288 163.337<222.545 411.407>
LayerCount: 2
Fore
SplineSet
350 443 m 0
 270 443 214 383 193 273 c 0
 188.534067596 250.67033798 186.334561582 230.401063587 186.334561582 212.275827294 c 0
 186.334561582 141.112833858 220.239754197 103 284 103 c 0
 363 103 418 163 440 273 c 0
 444.208108289 295.042471992 446.288023166 315.07721435 446.288023166 333.023762848 c 0
 446.288023166 404.637057521 413.169497387 443 350 443 c 0
372 560 m 0
 523.984122243 560 609.62482886 481.991808001 609.62482886 347.140194771 c 0
 609.62482886 324.056973751 607.115481582 299.308190991 602 273 c 0
 567 93 439 -14 261 -14 c 0
 108.336777405 -14 23.3201181689 63.8299169825 23.3201181689 198.397491668 c 0
 23.3201181689 221.612488706 25.8503507867 246.51608976 31 273 c 0
 66 453 193 560 372 560 c 0
EndSplineSet
Validated: 524289
Substitution2: "sous-table Substitution simple lookups10" ordmasculine
Substitution2: "sous-table 'aalt' Activer toutes les variantes dans Latin lookup 0" ordmasculine
EndChar

StartChar: p
Encoding: 112 112 81
Width: 680
Flags: W
HStem: -208 21G<-24 137.918> -11 118<259.69 385.798> 441 119<363.642 496.5> 527 20G<119.106 281>
VStem: 473.402 162.186<223.449 410.282>
LayerCount: 2
Fore
SplineSet
191 83 m 1xe8
 134 -208 l 1
 -24 -208 l 1
 123 547 l 1
 281 547 l 1xd8
 265 465 l 1
 327 530 388 560 465 560 c 0
 528 560 576 533 606 480 c 0
 625.993706377 445.817211678 635.588133495 404.978884632 635.588133495 357.753302906 c 0
 635.588133495 331.756191155 632.680667676 303.823505302 627 274 c 0
 610 189 577 120 526 68 c 0
 475 15 417 -11 354 -11 c 0
 277 -11 227 18 191 83 c 1xe8
379 441 m 0xe8
 302 441 249 383 228 274 c 0
 223.640987887 251.582223418 221.479368782 231.27566757 221.479368782 213.169767214 c 0
 221.479368782 144.048585472 252.983044415 107 314 107 c 0
 392 107 446 166 467 274 c 0
 471.282368778 296.227533183 473.402353243 316.334266365 473.402353243 334.260839759 c 0
 473.402353243 404.243099246 441.094058824 441 379 441 c 0xe8
EndSplineSet
Validated: 524289
EndChar

StartChar: q
Encoding: 113 113 82
Width: 680
Flags: W
HStem: -208 21G<335 499.894> -11 118<162 294.776> 441 118<273.165 398.125> 527 20G<478.145 643>
VStem: 23.9688 162.52<137.444 324.485>
LayerCount: 2
Fore
SplineSet
345 441 m 0xe8
 267 441 214 383 193 274 c 0
 188.649968099 251.628407365 186.488284621 231.359345567 186.488284621 213.281697759 c 0
 186.488284621 144.088582366 218.157261348 107 280 107 c 0
 356 107 408 166 429 274 c 0
 433.438138678 297.036053141 435.643048907 317.794213262 435.643048907 336.208404514 c 0
 435.643048907 404.924887698 404.938164783 441 345 441 c 0xe8
392 83 m 1
 331 18 270 -11 194 -11 c 0
 130 -11 83 15 54 68 c 1
 33.9791666667 101.583333333 23.96875 142.257378472 23.96875 189.752757885 c 0
 23.96875 215.798611111 26.9791666667 243.895833333 33 274 c 0
 49 358 83 427 134 480 c 0
 184 532 241 559 305 559 c 0xe8
 381 559 430 529 466 464 c 1
 482 547 l 1
 643 547 l 1xd8
 496 -208 l 1
 335 -208 l 1
 392 83 l 1
EndSplineSet
Validated: 524289
EndChar

StartChar: r
Encoding: 114 114 83
Width: 469
Flags: W
HStem: 0 21G<17 179.81> 427 133<364.258 484.633> 528 20G<119.131 282>
LayerCount: 2
Fore
SplineSet
481 405 m 1xc0
 455 421 430 427 402 427 c 0xc0
 311 427 246 365 224 252 c 2
 176 0 l 1
 17 0 l 1
 123 548 l 1
 282 548 l 1xa0
 264 455 l 1
 322 529 386 560 468 560 c 0
 478 560 487 560 511 558 c 1
 481 405 l 1xc0
EndSplineSet
Validated: 1
EndChar

StartChar: s
Encoding: 115 115 84
Width: 565
Flags: W
HStem: -14 108<86.1924 312.664> 452 108<219.395 436.762>
VStem: 56.9809 139.009<307.94 427.802> 341.492 150.608<123.313 206.182>
LayerCount: 2
Fore
SplineSet
527 531 m 1
 502 403 l 1
 436 436 372 452 312 452 c 0
 242 452 205 434 197 395 c 0
 196.335958412 391.458444865 195.990381602 388.137365345 195.990381602 385.019138619 c 0
 195.990381602 359.962382483 218.304457466 348.003937618 277 340 c 2
 306 336 l 2
 390 325 443 306 468 280 c 0
 483.848692765 262.773160038 492.100226744 237.949161289 492.100226744 206.182378947 c 0
 492.100226744 191.848450986 490.420190417 176.100952083 487 159 c 0
 465 44 373 -14 210 -14 c 0
 141 -14 67 -4 -6 18 c 1
 19 147 l 1
 78 110 146 94 219 94 c 0
 291 94 332 115 340 156 c 0
 340.964171097 160.820855486 341.491987178 165.262271828 341.491987178 169.360833451 c 0
 341.491987178 195.018330102 320.807334114 207.239648554 257 215 c 2
 227 219 l 1
 106.468076858 234.171850465 56.980921168 270.657131167 56.980921168 345.222873475 c 0
 56.980921168 359.122500938 58.7004922097 374.34534163 62 391 c 0
 84 506 168 560 324 560 c 0
 385 560 451 551 527 531 c 1
EndSplineSet
Validated: 524289
EndChar

StartChar: t
Encoding: 116 116 85
Width: 453
Flags: W
HStem: 0 117<228.049 354> 429 118<55 117 298 451>
VStem: 62.0186 162.372<75.2339 259.547>
LayerCount: 2
Fore
SplineSet
328 702 m 1
 298 547 l 1
 474 547 l 1
 451 429 l 1
 275 429 l 1
 228 188 l 2
 225.686809348 176.434046738 224.390722603 166.592747928 224.390722603 158.26221673 c 0
 224.390722603 126.978268647 242.668853856 117 294 117 c 2
 376 117 l 1
 354 0 l 1
 213 0 l 2
 108.345840015 0 62.0185669054 33.0519025628 62.0185669054 117.415989506 c 0
 62.0185669054 137.84784478 64.7358639969 161.289383984 70 188 c 2
 117 429 l 1
 32 429 l 1
 55 547 l 1
 140 547 l 1
 170 702 l 1
 328 702 l 1
EndSplineSet
Validated: 524289
EndChar

StartChar: u
Encoding: 117 117 86
Width: 676
Flags: W
HStem: -14 124<141.788 289.174> -1 21G<373 535.905> 527 20G<113.131 274 476.074 639>
VStem: 43.7679 161.76<125.63 279.753>
LayerCount: 2
Fore
SplineSet
52 211 m 2xb0
 117 547 l 1
 274 547 l 1
 264 495 l 2
 258 466 251 427 240 381 c 1
 222 291 l 2
 210.496575182 232.204717596 205.527905057 197.506343125 205.527905057 175.420256412 c 0
 205.527905057 162.947108192 207.112633253 154.496575182 210 148 c 0
 222 124 243 110 276 110 c 0xb0
 350 110 407 172 427 277 c 2
 480 547 l 1
 639 547 l 1
 532 -1 l 1
 373 -1 l 1x70
 389 80 l 1
 324 15 261 -14 190 -14 c 0
 93.5759600476 -14 43.7679273781 37.2119516629 43.7679273781 134.847816909 c 0
 43.7679273781 157.70750412 46.4982954506 183.112049353 52 211 c 2xb0
EndSplineSet
Validated: 524289
EndChar

StartChar: v
Encoding: 118 118 87
Width: 619
Flags: W
HStem: 0 21G<154.307 346.444> 527 20G<57 219.221 478.987 648>
LayerCount: 2
Fore
SplineSet
57 547 m 1
 216 547 l 1
 278 162 l 1
 490 547 l 1
 648 547 l 1
 335 0 l 1
 158 0 l 1
 57 547 l 1
EndSplineSet
Validated: 1
EndChar

StartChar: w
Encoding: 119 119 88
Width: 877
Flags: W
HStem: 0 21G<105.867 290.721 467.956 651.921> 527 20G<76 229.938 407.198 548.003 725.135 887>
VStem: 76 153<423.484 547>
LayerCount: 2
Fore
SplineSet
76 547 m 1
 229 547 l 1
 247 163 l 1
 416 547 l 1
 547 547 l 1
 566 168 l 1
 734 547 l 1
 887 547 l 1
 643 0 l 1
 469 0 l 1
 449 383 l 1
 282 0 l 1
 107 0 l 1
 76 547 l 1
EndSplineSet
Validated: 1
EndChar

StartChar: x
Encoding: 120 120 89
Width: 613
Flags: W
HStem: 0 21G<-49 138.627 355.944 536> 527 20G<67 245.759 445.41 632>
LayerCount: 2
Fore
SplineSet
208 280 m 1
 67 547 l 1
 236 547 l 1
 317 381 l 1
 463 547 l 1
 632 547 l 1
 387 281 l 1
 536 0 l 1
 366 0 l 1
 277 177 l 1
 121 0 l 1
 -49 0 l 1
 208 280 l 1
EndSplineSet
Validated: 1
EndChar

StartChar: y
Encoding: 121 121 90
Width: 619
Flags: W
HStem: -216 108<12 139.245> 527 20G<54 217.936 476.415 645>
LayerCount: 2
Fore
SplineSet
54 547 m 1
 214 547 l 1
 288 171 l 1
 487 547 l 1
 645 547 l 1
 305 -53 l 2
 272 -113 237 -155 204 -179 c 0
 170 -203 131 -216 83 -216 c 2
 -9 -216 l 1
 12 -108 l 1
 60 -108 l 2
 122 -108 148 -92 174 -40 c 1
 182 -23 l 1
 54 547 l 1
EndSplineSet
Validated: 1
EndChar

StartChar: z
Encoding: 122 122 91
Width: 553
Flags: W
HStem: 0 120<186 444> 427 120<97 345>
LayerCount: 2
Fore
SplineSet
97 547 m 1
 550 547 l 1
 527 429 l 1
 186 120 l 1
 467 120 l 1
 444 0 l 1
 -20 0 l 1
 2 118 l 1
 345 427 l 1
 74 427 l 1
 97 547 l 1
EndSplineSet
Validated: 1
EndChar

StartChar: braceleft
Encoding: 123 123 92
Width: 677
Flags: W
HStem: -163 102<367.09 463> 245 101<123 210.799> 658 102<502.925 622>
VStem: 202.126 154.388<-48.3438 40.7346> 233.014 153.283<64.5781 223.11>
LayerCount: 2
Fore
SplineSet
483 -61 m 1xf0
 463 -163 l 1
 365 -163 l 2
 254.459673319 -163 202.125877704 -125.130690632 202.125877704 -40.5829687218 c 0xf0
 202.125877704 -24.1693525641 204.098241215 -5.99651377484 208 14 c 2
 227 109 l 1
 230.924348354 129.86100967 233.014286929 147.906413633 233.014286929 163.409363362 c 0
 233.014286929 222.965001275 202.171713581 245 126 245 c 2
 103 245 l 1
 123 346 l 1
 146 346 l 2
 242 346 279 380 299 482 c 2
 319 583 l 2
 343 707 412 760 544 760 c 2
 642 760 l 1
 622 658 l 1
 594 658 l 2
 547 658 514 651 497 635 c 1
 480 621 466 589 457 541 c 2
 441 459 l 2
 421 355 388 315 315 299 c 1
 364.342418995 286.290589047 386.297546598 260.166994555 386.297546598 205.168442666 c 0xe8
 386.297546598 186.6013993 383.795364229 164.74353428 379 139 c 2
 363 57 l 2
 358.59026084 34.9513042005 356.514017615 16.5973102981 356.514017615 1.76651648607 c 0
 356.514017615 -17.0345968834 359.850713076 -30.1736348239 366 -38 c 1
 377 -54 408 -61 455 -61 c 2
 483 -61 l 1xf0
EndSplineSet
Validated: 524289
EndChar

StartChar: bar
Encoding: 124 124 93
Width: 345
Flags: W
HStem: 744 20G<201.12 310>
VStem: 11 299
LayerCount: 2
Fore
SplineSet
310 764 m 1
 116 -236 l 1
 11 -236 l 1
 205 764 l 1
 310 764 l 1
EndSplineSet
Validated: 1
EndChar

StartChar: braceright
Encoding: 125 125 94
Width: 677
Flags: W
HStem: -163 102<44 162.075> 245 101<453.476 542> 658 102<203 297.913>
VStem: 279.295 151.402<367.857 531.477> 308.668 154.206<502.539 643.607>
LayerCount: 2
Fore
SplineSet
44 -61 m 1xf0
 71 -61 l 2
 119 -61 151 -54 168 -38 c 1
 185 -24 199 7 209 57 c 2
 225 139 l 2
 244 241 278 282 352 299 c 1
 302.006769026 310.938682024 279.295078265 336.239751091 279.295078265 391.520841574 c 0xf0
 279.295078265 410.326442234 281.92335253 432.601433154 287 459 c 2
 303 541 l 2
 306.829987957 561.426602438 308.667915602 578.955662604 308.667915602 593.433047831 c 0
 308.667915602 612.975734861 305.318903608 626.957759044 299 635 c 1
 288 651 258 658 210 658 c 2
 183 658 l 1
 203 760 l 1
 300 760 l 2
 410.540326681 760 462.874122296 722.831974139 462.874122296 637.924998607 c 0xe8
 462.874122296 621.441638985 460.901758785 603.159087058 457 583 c 2
 437 482 l 2
 432.865817251 460.915667978 430.697153207 442.736885347 430.697153207 427.163350303 c 0
 430.697153207 367.396553348 462.63736806 346 538 346 c 2
 562 346 l 1
 542 245 l 1
 518 245 l 2
 423 245 384 210 365 109 c 1
 346 14 l 2
 322 -109 253 -163 121 -163 c 2
 24 -163 l 1
 44 -61 l 1xf0
EndSplineSet
Validated: 524289
EndChar

StartChar: asciitilde
Encoding: 126 126 95
Width: 797
Flags: W
HStem: 224 109<443.138 601.135> 294 110<191.54 352.024>
LayerCount: 2
Fore
SplineSet
713 415 m 1x80
 690 297 l 1
 615 245 560 224 501 224 c 0x80
 468 224 433 233 392 253 c 0
 387 255 385 257 383 259 c 0
 381 260 377 261 373 263 c 0
 328 284 290 294 259 294 c 0
 206 294 150 268 79 212 c 1
 102 330 l 1
 177 383 232 404 291 404 c 0x40
 324 404 360 393 401 373 c 1
 406 372 407 370 409 369 c 0
 411 368 415 367 419 365 c 0
 464 344 502 333 533 333 c 0
 585 333 639 357 713 415 c 1x80
EndSplineSet
Validated: 1
EndChar

StartChar: Euro
Encoding: 8364 8364 96
Width: 662
Flags: W
HStem: -14 119<304.766 472.482> 234 89<20 66.7397 241 385> 404 90<54 85 292 491> 622 120<394.353 575.74>
LayerCount: 2
Fore
SplineSet
542 38 m 1
 478 3 410 -14 342 -14 c 0
 179 -14 81 73 65 234 c 1
 -36 234 l 1
 20 323 l 1
 69 323 l 1
 72 333 74 343 78 364 c 0
 82 385 84 394 85 404 c 1
 -3 404 l 1
 54 494 l 1
 116 494 l 1
 196 655 326 742 489 742 c 0
 557 742 618 725 669 690 c 1
 640 544 l 1
 601 596 549 622 488 622 c 0
 405 622 337 578 292 494 c 1
 547 494 l 1
 491 404 l 1
 256 404 l 1
 250 392 248 383 243 358 c 0
 241.367006838 350.651530772 239.734013676 340.636394877 239.734013676 330.131916531 c 0
 239.734013676 327.771088896 239.816496581 325.385544448 240 323 c 1
 441 323 l 1
 385 234 l 1
 241 234 l 1
 256 148 307 105 388 105 c 0
 449 105 509 131 570 183 c 1
 542 38 l 1
EndSplineSet
Validated: 524289
EndChar

StartChar: quotesinglbase
Encoding: 8218 8218 97
Width: 360
Flags: W
HStem: -122 311
VStem: -19 264
LayerCount: 2
Fore
SplineSet
91 189 m 1
 245 189 l 1
 218 50 l 1
 75 -122 l 1
 -19 -122 l 1
 64 50 l 1
 91 189 l 1
EndSplineSet
Validated: 1
EndChar

StartChar: florin
Encoding: 402 402 98
Width: 661
Flags: W
HStem: -208 107<-64.882 62.0248> 324 111<149 241 441 553> 653 107<540.337 666.317>
LayerCount: 2
Fore
SplineSet
700 742 m 1
 677 623 l 1
 653 644 630 653 606 653 c 0
 545 653 507 618 471 522 c 1
 441 435 l 1
 575 435 l 1
 553 324 l 1
 397 324 l 1
 268 -10 l 2
 217 -141 135 -208 19 -208 c 0
 -20 -208 -60 -202 -97 -190 c 1
 -74 -72 l 1
 -52 -92 -28 -101 -4 -101 c 0
 55 -101 93 -67 131 29 c 1
 241 324 l 1
 127 324 l 1
 149 435 l 1
 284 435 l 1
 336 562 l 1
 387 695 467 760 583 760 c 0
 622 760 662 754 700 742 c 1
EndSplineSet
Validated: 1
EndChar

StartChar: quotedblbase
Encoding: 8222 8222 99
Width: 624
Flags: W
HStem: -122 311
LayerCount: 2
Fore
SplineSet
90 189 m 1
 239 189 l 1
 212 50 l 1
 72 -122 l 1
 -19 -122 l 1
 63 50 l 1
 90 189 l 1
332 189 m 1
 480 189 l 1
 453 49 l 1
 315 -122 l 1
 223 -122 l 1
 305 49 l 1
 332 189 l 1
EndSplineSet
Validated: 1
EndChar

StartChar: ellipsis
Encoding: 8230 8230 100
Width: 950
Flags: W
HStem: 0 189<48 170 369 491 690 812>
LayerCount: 2
Fore
SplineSet
690 189 m 1
 848 189 l 1
 812 0 l 1
 654 0 l 1
 690 189 l 1
48 189 m 1
 206 189 l 1
 170 0 l 1
 12 0 l 1
 48 189 l 1
369 189 m 1
 527 189 l 1
 491 0 l 1
 333 0 l 1
 369 189 l 1
EndSplineSet
Validated: 1
EndChar

StartChar: dagger
Encoding: 8224 8224 101
Width: 476
Flags: W
HStem: 432 109<67 183 350 467> 709 20G<237.17 386>
LayerCount: 2
Fore
SplineSet
241 729 m 1
 386 729 l 1
 350 541 l 1
 489 541 l 1
 467 432 l 1
 328 432 l 1
 226 -96 l 1
 81 -96 l 1
 183 432 l 1
 45 432 l 1
 67 541 l 1
 205 541 l 1
 241 729 l 1
EndSplineSet
Validated: 1
EndChar

StartChar: daggerdbl
Encoding: 8225 8225 102
Width: 476
Flags: W
HStem: 92 109<0 117 284 401> 432 109<67 183 350 467> 709 20G<237.17 386>
LayerCount: 2
Fore
SplineSet
241 729 m 1
 386 729 l 1
 350 541 l 1
 489 541 l 1
 467 432 l 1
 328 432 l 1
 284 201 l 1
 423 201 l 1
 401 92 l 1
 262 92 l 1
 226 -96 l 1
 81 -96 l 1
 117 92 l 1
 -22 92 l 1
 0 201 l 1
 139 201 l 1
 183 432 l 1
 45 432 l 1
 67 541 l 1
 205 541 l 1
 241 729 l 1
EndSplineSet
Validated: 1
EndChar

StartChar: circumflex
Encoding: 710 710 103
Width: 476
Flags: W
HStem: 616 184
LayerCount: 2
Fore
SplineSet
276 800 m 1
 384 800 l 1
 469 616 l 1
 393 616 l 1
 317 733 l 1
 195 616 l 1
 119 616 l 1
 276 800 l 1
EndSplineSet
Validated: 1
EndChar

StartChar: perthousand
Encoding: 8240 8240 104
Width: 1368
Flags: W
HStem: -14 75<640.282 739.018 1069.7 1165.92> 305 73<678.54 777.305 1107.98 1206.39> 350 73<184.333 280.953> 668 74<222.426 321.5>
VStem: 67.4482 102.151<435.997 600.387> 335.872 102.409<491.693 653.858> 522.452 103.552<75.9489 236.173> 791.125 103.426<129.362 292.474> 952.448 103.426<72.5239 237.188> 1220.13 103.488<128.58 293.122>
LayerCount: 2
Fore
SplineSet
1162 305 m 0xdfc0
 1112 305 1076 262 1061 183 c 0
 1057.57908825 164.983198091 1055.87456328 148.83881814 1055.87456328 134.649892984 c 0
 1055.87456328 86.6232766106 1075.40303918 61 1114 61 c 0
 1164 61 1200 104 1215 183 c 0
 1218.42091175 201.016801909 1220.12543672 217.16118186 1220.12543672 231.350107016 c 0
 1220.12543672 279.376723389 1200.59696082 305 1162 305 c 0xdfc0
1176 378 m 0
 1270.4152669 378 1323.61353187 325.412790647 1323.61353187 236.413077053 c 0
 1323.61353187 219.836984424 1321.76815709 201.997792012 1318 183 c 0
 1294 61 1212 -14 1100 -14 c 0
 1006.25104139 -14 952.448236943 39.4993136157 952.448236943 129.62897529 c 0
 952.448236943 146.21401844 954.270045105 164.039395952 958 183 c 0
 982 304 1065 378 1176 378 c 0
276 668 m 0
 226 668 190 625 175 546 c 0
 171.37604307 528.10671266 169.598923241 512.00896139 169.598923241 497.811322098 c 0
 169.598923241 449.325482232 190.324865405 423 229 423 c 0xbfc0
 279 423 315 467 331 546 c 0
 334.265050253 563.195931333 335.871792238 578.686174161 335.871792238 592.398535687 c 0
 335.871792238 641.682271293 315.116499156 668 276 668 c 0
291 742 m 0
 385.755684377 742 438.280840726 689.032897049 438.280840726 598.843416815 c 0
 438.280840726 582.430091607 436.541243387 564.783986661 433 546 c 1
 409 425 327 350 215 350 c 0
 121.251041388 350 67.4482369428 403.499313616 67.4482369428 493.026512235 c 0
 67.4482369428 509.500694259 69.2700451053 527.194810739 73 546 c 1
 96 668 180 742 291 742 c 0
236 -14 m 1
 143 -14 l 1
 726 742 l 1
 819 742 l 1
 236 -14 l 1
747 378 m 0xdfc0
 840.748958612 378 894.551763057 325.214010566 894.551763057 235.908534199 c 0
 894.551763057 219.475151985 892.729954895 201.805189261 889 183 c 0
 865 61 782 -14 671 -14 c 0
 576.388560393 -14 522.451985005 39.5195581822 522.451985005 129.680133057 c 0
 522.451985005 146.250672601 524.273879916 164.058889572 528 183 c 0
 552 304 635 378 747 378 c 0xdfc0
733 305 m 0
 683 305 646 262 631 183 c 0
 627.658333125 165.400554458 626.004084362 149.587786917 626.004084362 135.639092523 c 0
 626.004084362 86.9751975284 646.138889583 61 685 61 c 0
 735 61 771 104 786 183 c 0
 789.420911755 201.016801909 791.125436715 217.16118186 791.125436715 231.350107016 c 0
 791.125436715 279.376723389 771.596960817 305 733 305 c 0
EndSplineSet
Validated: 524289
Ligature2: "sous-table Remplacement de ligature lookups11" zero fraction zero zero
Ligature2: "sous-table Remplacement de ligature lookups11" zero slash zero zero
EndChar

StartChar: Scaron
Encoding: 352 352 105
Width: 683
Flags: W
HStem: -14 127<156.602 378.761> 556 21G<580.5 618.893> 612 127<303.57 537.114>
VStem: 99.9311 157.121<424.994 572.295> 430.086 168.79<165.539 275.084>
LayerCount: 2
Fore
SplineSet
644 705 m 1
 615 556 l 1
 546 594 475 612 410 612 c 0
 319 612 269 586 259 530 c 1
 257.725232922 523.909446181 257.052329215 518.300383059 257.052329215 513.107453527 c 0
 257.052329215 481.637712225 281.764699774 465.450465843 347 450 c 1
 421 434 l 2
 545.08475464 408.009274366 598.876291904 360.930583519 598.876291904 275.083555909 c 0
 598.876291904 258.537988046 596.878147896 240.552328976 593 221 c 1
 563 63 460 -14 273 -14 c 0
 185 -14 97 2 14 36 c 1
 44 190 l 1
 124 139 202 113 279 113 c 0
 363 113 417 143 428 198 c 0
 429.343916326 205.167553736 430.085795621 211.777665778 430.085795621 217.906916414 c 0
 430.085795621 252.824310328 406.008808853 272.13580476 332 290 c 2
 264 306 l 2
 152.189740324 332.258470075 99.9310954326 382.911577533 99.9310954326 467.07553474 c 0
 99.9310954326 482.273142236 101.635043279 498.563406084 105 516 c 0
 133 659 239 739 406 739 c 0
 482 739 561 728 644 705 c 1
353 806 m 1
 274 927 l 1
 349 927 l 1
 431 846 l 1
 545 927 l 1
 620 927 l 1
 493 806 l 1
 353 806 l 1
EndSplineSet
Validated: 524289
Position2: "sous-table 'cpsp' Chasses pour composition en capitales dans Latin lookup 1" dx=5 dy=0 dh=10 dv=0
EndChar

StartChar: guilsinglleft
Encoding: 8249 8249 106
Width: 391
Flags: W
VStem: 58 281
LayerCount: 2
Fore
SplineSet
339 519 m 1
 317 405 l 1
 150 293 l 1
 274 181 l 1
 252 67 l 1
 58 248 l 1
 75 337 l 1
 339 519 l 1
EndSplineSet
Validated: 1
EndChar

StartChar: OE
Encoding: 338 338 107
Width: 1109
Flags: W
HStem: -1 135<323.756 515 685 976> 312 136<746 1008> 594 135<405.978 604 774 1081>
VStem: 45.9655 174.142<219.831 410.264>
LayerCount: 2
Fore
SplineSet
604 594 m 1
 550 594 l 2
 364 594 256 519 226 365 c 0
 222.072578897 344.144039661 220.107626412 324.700323094 220.107626412 306.668850299 c 0
 220.107626412 191.556283433 300.189666383 134 461 134 c 2
 515 134 l 1
 604 594 l 1
582 729 m 2
 1107 729 l 1
 1081 594 l 1
 774 594 l 1
 746 448 l 1
 1035 448 l 1
 1008 312 l 1
 719 312 l 1
 685 134 l 1
 1003 134 l 1
 976 -1 l 1
 440 -1 l 2
 433 -1 414 -1 407 -1 c 0
 170.637086527 -1 45.9655496047 97.1984585783 45.9655496047 276.072159233 c 0
 45.9655496047 303.798214696 48.9609198033 333.462581195 55 365 c 0
 101 600 276 730 549 730 c 0
 555 730 575 729 582 729 c 2
EndSplineSet
Validated: 524289
Ligature2: "sous-table 'dpng' Dipthongs (Obsolete) dans Latin lookup 9" O e
Ligature2: "sous-table 'dpng' Dipthongs (Obsolete) dans Latin lookup 9" O E
Position2: "sous-table 'cpsp' Chasses pour composition en capitales dans Latin lookup 1" dx=5 dy=0 dh=10 dv=0
EndChar

StartChar: quoteleft
Encoding: 8216 8216 108
Width: 361
Flags: W
HStem: 418 311
VStem: 116 264
LayerCount: 2
Fore
SplineSet
270 418 m 1
 116 418 l 1
 143 557 l 1
 285 729 l 1
 380 729 l 1
 297 557 l 1
 270 418 l 1
EndSplineSet
Validated: 1
EndChar

StartChar: quoteright
Encoding: 8217 8217 109
Width: 361
Flags: W
HStem: 418 311
VStem: 78 264
LayerCount: 2
Fore
SplineSet
188 729 m 1
 342 729 l 1
 315 591 l 1
 173 418 l 1
 78 418 l 1
 161 591 l 1
 188 729 l 1
EndSplineSet
Validated: 1
EndChar

StartChar: quotedblleft
Encoding: 8220 8220 110
Width: 623
Flags: W
HStem: 418 311
LayerCount: 2
Fore
SplineSet
506 418 m 1
 357 418 l 1
 384 556 l 1
 523 729 l 1
 614 729 l 1
 533 556 l 1
 506 418 l 1
264 418 m 1
 116 418 l 1
 143 557 l 1
 281 729 l 1
 373 729 l 1
 291 557 l 1
 264 418 l 1
EndSplineSet
Validated: 1
EndChar

StartChar: quotedblright
Encoding: 8221 8221 111
Width: 624
Flags: W
HStem: 418 311
LayerCount: 2
Fore
SplineSet
214 729 m 1
 362 729 l 1
 335 591 l 1
 197 418 l 1
 105 418 l 1
 187 591 l 1
 214 729 l 1
455 729 m 1
 604 729 l 1
 577 590 l 1
 438 418 l 1
 346 418 l 1
 428 590 l 1
 455 729 l 1
EndSplineSet
Validated: 1
EndChar

StartChar: bullet
Encoding: 8226 8226 112
Width: 608
Flags: W
HStem: 196 351<264.826 363.644>
LayerCount: 2
Fore
SplineSet
146 372 m 0
 155 419 181 464 219 495 c 0
 258 528 302 547 348 547 c 0
 392 547 430 528 455 495 c 0
 473.660696057 470.367881205 483.406919734 440.164217173 483.406919734 406.884261798 c 0
 483.406919734 395.57858747 482.28214942 383.917891413 480 372 c 0
 471 325 445 280 407 247 c 0
 369 214 324 196 279 196 c 0
 233 196 195 214 171 247 c 1
 151.829589042 271.331675446 142.444805027 302.187102187 142.444805027 335.557850951 c 0
 142.444805027 347.446406736 143.635911485 359.654204423 146 372 c 0
EndSplineSet
Validated: 524289
EndChar

StartChar: endash
Encoding: 8211 8211 113
Width: 475
Flags: W
HStem: 211 126<2 453>
LayerCount: 2
Fore
SplineSet
2 337 m 1
 477 337 l 1
 453 211 l 1
 -22 211 l 1
 2 337 l 1
EndSplineSet
Validated: 1
EndChar

StartChar: emdash
Encoding: 8212 8212 114
Width: 950
Flags: W
HStem: 211 126<2 928>
LayerCount: 2
Fore
SplineSet
2 337 m 1
 952 337 l 1
 928 211 l 1
 -22 211 l 1
 2 337 l 1
EndSplineSet
Validated: 1
EndChar

StartChar: tilde
Encoding: 732 732 115
Width: 475
Flags: W
HStem: 638 72<334.082 414.656> 707 71<208.306 288.763>
VStem: 137 54<638 687.809> 433 54<728.578 778>
LayerCount: 2
Fore
SplineSet
308 668 m 2xb0
 287 687 l 2
 286 688 283 689 282 690 c 0
 267 702 255 707 246 707 c 0x70
 220 707 199 684 191 638 c 1
 137 638 l 1xb0
 154 728 196 778 252 778 c 0x70
 273 778 293 770 313 749 c 1
 340 727 l 2
 355 716 366 710 376 710 c 0xb0
 405 710 424 735 433 778 c 1
 487 778 l 1x70
 469 689 427 638 371 638 c 0
 349 638 333 646 308 668 c 2xb0
EndSplineSet
Validated: 1
EndChar

StartChar: trademark
Encoding: 8482 8482 116
Width: 951
Flags: W
HStem: 665 64<215 285 354 436>
LayerCount: 2
Fore
SplineSet
611 729 m 1
 649 614 l 1
 731 729 l 1
 829 729 l 1
 774 447 l 1
 703 447 l 1
 746 667 l 1
 649 538 l 1
 621 538 l 1
 573 667 l 1
 530 447 l 1
 458 447 l 1
 513 729 l 1
 611 729 l 1
448 729 m 1
 436 665 l 1
 354 665 l 1
 311 447 l 1
 242 447 l 1
 285 665 l 1
 203 665 l 1
 215 729 l 1
 448 729 l 1
EndSplineSet
Validated: 1
EndChar

StartChar: scaron
Encoding: 353 353 117
Width: 565
Flags: W
HStem: -14 107<86.1924 312.664> 449 107<219.097 436.302>
VStem: 56.3172 139.672<306.405 424.785> 341.15 150.95<122.606 204.51>
LayerCount: 2
Fore
SplineSet
526 528 m 1
 501 400 l 1
 436 433 372 449 312 449 c 0
 242 449 204 431 197 392 c 0
 196.334650954 388.562363263 195.989021996 385.333774276 195.989021996 382.297869543 c 0
 195.989021996 357.956522418 218.207947996 346.001976431 276 338 c 2
 305 334 l 2
 389 323 443 304 468 278 c 0
 483.848692765 260.773160038 492.100226744 235.949161289 492.100226744 204.509566544 c 0
 492.100226744 190.32327341 490.420190417 174.790025681 487 158 c 0
 465 44 373 -14 210 -14 c 0
 141 -14 67 -4 -6 18 c 1
 19 146 l 1
 78 109 146 93 219 93 c 0
 291 93 332 114 340 155 c 0
 340.744665099 159.343879745 341.150453131 163.364285925 341.150453131 167.091806411 c 0
 341.150453131 193.39808628 320.939907961 205.116997649 257 213 c 2
 227 217 l 2
 105.128840539 233.080222429 56.3172446316 269.216011324 56.3172446316 343.59334242 c 0
 56.3172446316 357.098458042 57.9265499252 371.864387107 61 388 c 0
 83 503 168 556 324 556 c 0
 385 556 450 547 526 528 c 1
286 622 m 1
 201 800 l 1
 276 800 l 1
 353 687 l 1
 473 800 l 1
 548 800 l 1
 394 622 l 1
 286 622 l 1
EndSplineSet
Validated: 524289
EndChar

StartChar: guilsinglright
Encoding: 8250 8250 118
Width: 391
Flags: W
VStem: 39 281
LayerCount: 2
Fore
SplineSet
126 519 m 1
 320 337 l 1
 303 248 l 1
 39 67 l 1
 61 181 l 1
 228 293 l 1
 104 405 l 1
 126 519 l 1
EndSplineSet
Validated: 1
EndChar

StartChar: oe
Encoding: 339 339 119
Width: 1040
Flags: W
HStem: -14 117<216.462 352.796> -14 108<620.911 830.904> 227 103<603 836.841> 443 117<274.626 410.793> 452 108<675.2 809.877>
VStem: 23.2546 161.072<136.798 323.455> 837.179 154.32<330.334 425.987>
LayerCount: 2
Fore
SplineSet
834 330 m 1x2e
 836.137167375 341.143801314 837.179070637 351.728318825 837.179070637 361.664617779 c 0
 837.179070637 416.818300529 805.077437186 452 750 452 c 0
 681 452 630 409 603 330 c 1
 834 330 l 1x2e
984 275 m 2
 975 227 l 1
 582 227 l 1
 581.205194209 219.316877353 580.808135684 211.953512311 580.808135684 204.913348577 c 0
 580.808135684 132.234071015 623.12468142 94 707 94 c 0
 775 94 853 116 938 162 c 1
 913 32 l 1
 829 1 747 -14 671 -14 c 0x6e
 566 -14 509 11 474 69 c 1
 412 13 340 -14 258 -14 c 0
 107.267282574 -14 23.2546134561 63.5983170538 23.2546134561 197.796768749 c 0
 23.2546134561 221.182724445 25.8059045757 246.287509247 31 273 c 0
 66 453 192 560 369 560 c 0xb6
 454 560 511 533 551 476 c 1
 614 534 678 560 763 560 c 0
 848 560 910 533 949 482 c 1
 977.216007553 446.729990559 991.499511167 401.508192591 991.499511167 347.387605121 c 0
 991.499511167 324.784953317 989.00819679 300.630183573 984 275 c 2
347 443 m 0xb6
 268 443 212 383 191 273 c 0
 186.525542594 250.627712972 184.326172584 230.323687212 184.326172584 212.172053146 c 0
 184.326172584 141.075782218 218.067369775 103 281 103 c 0
 359 103 413 163 435 273 c 0
 439.282368778 295.431455505 441.402353243 315.783695324 441.402353243 333.971919758 c 0
 441.402353243 404.975619909 409.094058824 443 347 443 c 0xb6
EndSplineSet
Validated: 524289
Ligature2: "sous-table 'dpng' Dipthongs (Obsolete) dans Latin lookup 9" o e
EndChar

StartChar: Ydieresis
Encoding: 376 376 120
Width: 688
Flags: W
HStem: 0 21G<196 368.844> 708 20G<68 271.106 569.636 775> 814 113<302 383 492 570>
LayerCount: 2
Fore
SplineSet
68 728 m 1
 263 728 l 1
 370 464 l 1
 586 728 l 1
 775 728 l 1
 424 307 l 1
 365 0 l 1
 196 0 l 1
 255 307 l 1
 68 728 l 1
302 927 m 1
 405 927 l 1
 383 814 l 1
 280 814 l 1
 302 927 l 1
492 927 m 1
 592 927 l 1
 570 814 l 1
 470 814 l 1
 492 927 l 1
EndSplineSet
Validated: 1
Position2: "sous-table 'cpsp' Chasses pour composition en capitales dans Latin lookup 1" dx=5 dy=0 dh=10 dv=0
EndChar

StartChar: exclamdown
Encoding: 161 161 121
Width: 433
Flags: W
HStem: 0 21G<70 240.871> 561 168<211 346>
VStem: 70 308
LayerCount: 2
Fore
SplineSet
70 0 m 1
 124 279 l 1
 187 481 l 1
 306 481 l 1
 291 279 l 1
 237 0 l 1
 70 0 l 1
179 561 m 1
 211 729 l 1
 378 729 l 1
 346 561 l 1
 179 561 l 1
EndSplineSet
Validated: 1
Position2: "sous-table 'cpsp' Chasses pour composition en capitales dans Latin lookup 1" dx=5 dy=0 dh=10 dv=0
EndChar

StartChar: cent
Encoding: 162 162 122
Width: 662
Flags: W
HStem: -12 117<353 457.84> 440 118<441 511.633>
VStem: 63.6514 164.27<153.939 324.902>
LayerCount: 2
Fore
SplineSet
349 424 m 1
 284 394 247 346 233 273 c 0
 229.625417595 256.352060136 227.921046797 240.918819622 227.921046797 226.677505664 c 0
 227.921046797 177.616258372 248.148496657 142.700779511 290 121 c 1
 349 424 l 1
578 529 m 1
 552 392 l 1
 513 424 471 440 431 440 c 2
 418 440 l 1
 353 105 l 1
 409 106 463 122 505 152 c 1
 479 16 l 1
 423 -3 376 -12 341 -12 c 2
 330 -12 l 1
 303 -153 l 1
 237 -153 l 1
 264 -12 l 1
 131.008558248 8.77991277376 63.6514422784 81.3763985337 63.6514422784 201.76961351 c 0
 63.6514422784 226.219661698 66.4294848614 252.64101384 72 281 c 0
 103 439 208 535 375 558 c 1
 402 699 l 1
 468 699 l 1
 441 558 l 1
 487 557 532 546 578 529 c 1
EndSplineSet
Validated: 524289
EndChar

StartChar: sterling
Encoding: 163 163 123
Width: 661
Flags: W
HStem: 0 124<19 127 287 519> 293 110<89 159 341 497> 623 119<422.48 596.846>
LayerCount: 2
Fore
SplineSet
654 718 m 1
 628 583 l 1
 591 609 546 623 501 623 c 0
 421 623 375 580 358 491 c 2
 341 403 l 1
 519 403 l 1
 497 293 l 1
 319 293 l 1
 287 124 l 1
 543 124 l 1
 519 0 l 1
 -5 0 l 1
 19 124 l 1
 127 124 l 1
 159 293 l 1
 67 293 l 1
 89 403 l 1
 181 403 l 1
 198 491 l 2
 232 666 322 742 492 742 c 0
 548 742 601 734 654 718 c 1
EndSplineSet
Validated: 1
EndChar

StartChar: currency
Encoding: 164 164 124
Width: 604
Flags: W
HStem: 105 95<216.972 345.05> 425 95<251.552 381.413>
VStem: 98.422 89.3298<229.086 359.584> 410.502 90.2481<266.242 396.753>
LayerCount: 2
Fore
SplineSet
155 132 m 1
 42 30 l 1
 -10 101 l 1
 108 200 l 1
 101.91504717 220.080344339 98.4219599059 241.271488207 98.4219599059 264.699958726 c 0
 98.4219599059 279.773792453 99.8679622641 295.773792453 103 313 c 0
 111 354 128 390 154 422 c 1
 73 522 l 1
 153 594 l 1
 230 491 l 1
 265 511 302 520 341 520 c 0
 376 520 410 512 443 493 c 1
 558 596 l 1
 609 524 l 1
 491 425 l 1
 497.803636664 403.455150563 500.74981734 381.910301127 500.74981734 360.729961815 c 0
 500.74981734 344.553210458 499.031211946 328.589090007 496 313 c 0
 488 271 473 236 447 205 c 1
 527 103 l 1
 447 32 l 1
 370 134 l 1
 335 114 300 105 260 105 c 0
 222 105 188 113 155 132 c 1
278 200 m 0
 338 200 396 250 408 313 c 0
 409.690528462 321.192561009 410.501707238 329.148374026 410.501707238 336.790471892 c 0
 410.501707238 387.915365818 374.197560944 425 322 425 c 0
 260 425 203 376 190 313 c 0
 188.485768149 305.050282785 187.751758568 297.307563314 187.751758568 289.846183739 c 0
 187.751758568 238.177546418 222.949717215 200 278 200 c 0
EndSplineSet
Validated: 524289
EndChar

StartChar: yen
Encoding: 165 165 125
Width: 661
Flags: W
HStem: 0 21G<183 354.805> 205 88<24 222 407 606> 376 87<57 197 517 640> 709 20G<89 276.472 532.93 728>
LayerCount: 2
Fore
SplineSet
606 205 m 1
 390 205 l 1
 351 0 l 1
 183 0 l 1
 222 205 l 1
 7 205 l 1
 24 293 l 1
 239 293 l 1
 247 330 l 1
 231 376 l 1
 41 376 l 1
 57 463 l 1
 197 463 l 1
 89 729 l 1
 268 729 l 1
 365 500 l 1
 549 729 l 1
 728 729 l 1
 517 463 l 1
 656 463 l 1
 640 376 l 1
 450 376 l 1
 415 330 l 1
 407 293 l 1
 623 293 l 1
 606 205 l 1
EndSplineSet
Validated: 1
EndChar

StartChar: brokenbar
Encoding: 166 166 126
Width: 345
Flags: W
VStem: 23 274
LayerCount: 2
Fore
SplineSet
297 699 m 1
 226 334 l 1
 121 334 l 1
 192 699 l 1
 297 699 l 1
199 195 m 1
 128 -171 l 1
 23 -171 l 1
 94 195 l 1
 199 195 l 1
EndSplineSet
Validated: 1
EndChar

StartChar: section
Encoding: 167 167 127
Width: 475
Flags: W
HStem: -95 94<51.888 222.569> 650 92<255.098 422.976>
VStem: 3.21456 126.601<281.679 377.019> 96.2879 141.143<557.823 632.173> 240.605 142.731<17.6295 90.365> 351.328 123.149<270.6 364.256>
LayerCount: 2
Fore
SplineSet
486 716 m 1xd0
 465 610 l 1
 410 637 364 650 329 650 c 0
 276 650 244 632 238 597 c 1
 237.619898694 595.327554253 237.430507032 593.631992186 237.430507032 591.913753125 c 0
 237.430507032 571.029609176 265.409175151 546.795412425 319 520 c 0
 327 517 331 514 335 512 c 0
 396 484 435 455 455 427 c 1
 467.747670785 407.878493823 474.47670785 385.246117975 474.47670785 359.45807413 c 0xd4
 474.47670785 348.83281573 473.33436854 337.6718427 471 326 c 0
 456 249 411 197 330 166 c 1
 365.557692308 143.673076923 383.336538462 114.508136095 383.336538462 77.9397260469 c 0
 383.336538462 70.2858727811 382.557692308 62.3076923077 381 54 c 0
 363 -39 273 -95 142 -95 c 0
 89 -95 36 -87 -25 -69 c 1
 -3 42 l 1
 63 13 118 -1 153 -1 c 0
 200 -1 234 18 240 49 c 0
 240.403751663 51.018758313 240.605364223 53.0309960098 240.605364223 55.0388192581 c 0
 240.605364223 77.8955778095 214.477981379 100.180258978 163 125 c 0
 152 130 144 133 139 136 c 0
 41.8432484472 182.466272482 3.21455878689 226.791274406 3.21455878689 289.477389286 c 0xe8
 3.21455878689 300.989959479 4.51746108561 313.121829382 7 326 c 0
 20 395 65 445 144 479 c 1
 111.164651231 505.428451448 96.287948272 533.139663311 96.287948272 568.297521287 c 0
 96.287948272 577.039674461 97.2077594858 586.242246089 99 596 c 0
 117 687 203 742 326 742 c 0
 378 742 432 734 486 716 c 1xd0
219 424 m 1
 167 404 138 378 131 343 c 0
 130.215390309 338.292341855 129.815538348 333.738586802 129.815538348 329.323640608 c 0
 129.815538348 311.230854638 136.530743609 295.469256391 151 281 c 1
 169 265 206 245 262 224 c 1
 312 240 343 269 350 305 c 0
 350.878105443 309.488094488 351.327839126 313.861956507 351.327839126 318.137375302 c 0
 351.327839126 357.682171323 312.853003766 388.805123588 219 424 c 1
EndSplineSet
Validated: 524289
EndChar

StartChar: dieresis
Encoding: 168 168 128
Width: 474
Flags: W
HStem: 654 120<178 257 369 447>
VStem: 155 315
LayerCount: 2
Fore
SplineSet
178 774 m 1
 280 774 l 1
 257 654 l 1
 155 654 l 1
 178 774 l 1
369 774 m 1
 470 774 l 1
 447 654 l 1
 346 654 l 1
 369 774 l 1
EndSplineSet
Validated: 1
EndChar

StartChar: copyright
Encoding: 169 169 129
Width: 950
Flags: W
HStem: 0 66<318.18 533.428> 155 82<420.784 577.988> 487 82<462.014 614.323> 659 66<430.39 645.257>
VStem: 130.323 57.4659<199.479 415.14> 283.07 108.531<265.781 414.124> 775.228 58.4484<309.137 525.349>
LayerCount: 2
Fore
SplineSet
654 550 m 1
 635 450 l 1
 606 476 575 487 541 487 c 0
 465 487 410 439 395 362 c 0
 392.725865456 350.022891404 391.600994896 338.804297036 391.600994896 328.389518966 c 0
 391.600994896 270.109297663 426.825499627 237 493 237 c 0
 531 237 570 250 601 273 c 1
 582 175 l 1
 539 161 498 155 461 155 c 0
 396 155 348 174 317 212 c 0
 294.507609546 239.571317331 283.070432614 273.459899533 283.070432614 313.665746604 c 0
 283.070432614 328.87336311 284.706731789 344.984780909 288 362 c 0
 300 424 330 475 375 512 c 0
 421 550 476 569 541 569 c 0
 583 569 620 564 654 550 c 1
540 659 m 0
 461 659 387 630 320 572 c 0
 251 513 210 444 194 362 c 0
 189.853636766 340.749888426 187.789157009 320.372824762 187.789157009 300.816597847 c 0
 187.789157009 244.909192422 204.661646595 195.710285575 238 152 c 0
 283 94 345 66 424 66 c 0
 503 66 576 94 644 152 c 0
 712 211 753 280 769 362 c 0
 773.163989534 383.340446361 775.228357685 403.800406337 775.228357685 423.432759773 c 0
 775.228357685 479.23711251 758.549028782 528.354711406 726 572 c 1
 679 631 618 659 540 659 c 0
552 725 m 0
 646 725 721 689 775 618 c 0
 814.509503561 566.052319392 833.676746106 506.074798909 833.676746106 438.850784199 c 0
 833.676746106 414.195720025 831.098508006 388.565910138 826 362 c 0
 807 264 757 179 675 108 c 1
 595 37 506 0 412 0 c 0
 318 0 243 37 189 108 c 0
 149.490496439 159.947680608 130.323253894 219.389878433 130.323253894 285.93492065 c 0
 130.323253894 310.340965028 132.901491994 335.702432389 138 362 c 0
 157 461 207 547 289 618 c 1
 369 689 458 725 552 725 c 0
EndSplineSet
Validated: 524289
EndChar

StartChar: ordfeminine
Encoding: 170 170 130
Width: 535
Flags: W
HStem: 182 92<70 431> 344 70<209.521 309.116> 534 59<230.347 389> 670 72<197.601 392.268>
VStem: 96.4003 106.275<422.59 508.592> 404.083 111.93<593.168 657.53>
LayerCount: 2
Fore
SplineSet
70 274 m 1
 449 274 l 1
 431 182 l 1
 52 182 l 1
 70 274 l 1
339 534 m 2
 247 534 213 516 204 473 c 0
 203.112956434 468.311341153 202.675539319 463.863553619 202.675539319 459.67088162 c 0
 202.675539319 430.777575512 223.448981903 414 261 414 c 0
 321 414 375 458 386 518 c 2
 389 534 l 1
 339 534 l 2
511 571 m 2
 469 353 l 1
 362 353 l 1
 375 417 l 1
 328 367 279 344 217 344 c 0
 139.062504339 344 96.4003083342 377.741590975 96.4003083342 436.494804513 c 0
 96.4003083342 444.834278013 97.2598307781 453.677664883 99 463 c 0
 117 553 188 593 327 593 c 2
 400 593 l 1
 403 608 l 2
 403.722783259 612.130190051 404.083074033 616.068472317 404.083074033 619.810443376 c 0
 404.083074033 652.308655096 376.907969674 670 324 670 c 0
 270 670 216 659 162 634 c 1
 178 717 l 1
 239 735 293 742 340 742 c 0
 457.966612085 742 516.01293597 701.809562793 516.01293597 617.68075975 c 0
 516.01293597 603.393794003 514.338897986 587.839659407 511 571 c 2
EndSplineSet
Validated: 524289
EndChar

StartChar: guillemotleft
Encoding: 171 171 131
Width: 613
Flags: W
LayerCount: 2
Fore
SplineSet
333 519 m 1
 311 405 l 1
 147 293 l 1
 268 181 l 1
 246 67 l 1
 58 248 l 1
 75 337 l 1
 333 519 l 1
561 519 m 1
 539 405 l 1
 376 293 l 1
 496 181 l 1
 474 67 l 1
 287 248 l 1
 304 337 l 1
 561 519 l 1
EndSplineSet
Validated: 1
EndChar

StartChar: logicalnot
Encoding: 172 172 132
Width: 797
Flags: W
HStem: 333 111<124 597>
LayerCount: 2
Fore
SplineSet
124 444 m 1
 719 444 l 1
 660 140 l 1
 560 140 l 1
 597 333 l 1
 102 333 l 1
 124 444 l 1
EndSplineSet
Validated: 1
EndChar

StartChar: minus
Encoding: 8722 8722 133
Width: 797
Flags: W
HStem: 256 115<110 682>
LayerCount: 2
Fore
SplineSet
110 371 m 1
 705 371 l 1
 682 256 l 1
 87 256 l 1
 110 371 l 1
EndSplineSet
Validated: 1
EndChar

StartChar: registered
Encoding: 174 174 134
Width: 950
Flags: W
HStem: 0 66<318.18 533.428> 343 58<439 469.448> 512 59<461 548.583> 659 66<430.39 645.257>
VStem: 130.323 57.4659<199.479 415.14> 556.502 94.35<422.852 502.937> 775.228 58.4484<309.137 525.349>
LayerCount: 2
Fore
SplineSet
540 659 m 0
 461 659 387 630 320 572 c 0
 251 513 210 444 194 362 c 0
 189.853636766 340.749888426 187.789157009 320.372824762 187.789157009 300.816597847 c 0
 187.789157009 244.909192422 204.661646595 195.710285575 238 152 c 0
 283 94 345 66 424 66 c 0
 503 66 576 94 644 152 c 0
 712 211 753 280 769 362 c 0
 773.163989534 383.340446361 775.228357685 403.800406337 775.228357685 423.432759773 c 0
 775.228357685 479.23711251 758.549028782 528.354711406 726 572 c 1
 679 631 618 659 540 659 c 0
484 512 m 2
 461 512 l 1
 439 401 l 1
 462 401 l 2
 516 401 548 421 555 457 c 0
 556.001960792 461.634068662 556.50195887 465.970096963 556.50195887 470.010049539 c 0
 556.50195887 498.226469537 532.111519556 512 484 512 c 2
512 571 m 2
 605.456416491 571 650.85200563 542.773799809 650.85200563 484.322470768 c 0
 650.85200563 475.851779447 649.898633202 466.746317105 648 457 c 0
 638 402 596 363 533 352 c 1
 556 336 574 308 585 270 c 2
 618 165 l 1
 520 165 l 1
 492 270 l 1
 475 323 460 343 440 343 c 2
 428 343 l 1
 394 165 l 1
 305 165 l 1
 383 571 l 1
 512 571 l 2
552 725 m 0
 646 725 721 689 775 618 c 0
 814.509503561 566.052319392 833.676746106 506.074798909 833.676746106 438.850784199 c 0
 833.676746106 414.195720025 831.098508006 388.565910138 826 362 c 0
 807 264 757 179 675 108 c 1
 595 37 506 0 412 0 c 0
 318 0 243 37 189 108 c 0
 149.490496439 159.947680608 130.323253894 219.389878433 130.323253894 285.93492065 c 0
 130.323253894 310.340965028 132.901491994 335.702432389 138 362 c 0
 157 461 207 547 289 618 c 1
 369 689 458 725 552 725 c 0
EndSplineSet
Validated: 524289
EndChar

StartChar: macron
Encoding: 175 175 135
Width: 474
Flags: W
HStem: 668 92<175 449>
VStem: 157 310
LayerCount: 2
Fore
SplineSet
175 760 m 1
 467 760 l 1
 449 668 l 1
 157 668 l 1
 175 760 l 1
EndSplineSet
Validated: 1
EndChar

StartChar: degree
Encoding: 176 176 136
Width: 476
Flags: W
HStem: 424 71<214.063 335.404> 677 72<241.889 361.921>
VStem: 129.225 64.9521<515.367 629.951> 381.786 63.9893<541.953 656.614>
LayerCount: 2
Fore
SplineSet
306 677 m 0
 255 677 206 637 196 586 c 0
 194.771812709 579.613426087 194.177171907 573.422949896 194.177171907 567.476740375 c 0
 194.177171907 525.008432299 224.509392642 495 271 495 c 0
 322 495 370 534 380 586 c 0
 381.205000781 592.145503986 381.785630003 598.131285014 381.785630003 603.906601973 c 0
 381.785630003 646.059195499 350.854496014 677 306 677 c 0
320 749 m 0
 361 749 397 731 420 700 c 0
 437.308305694 677.643438479 445.774915933 650.605979365 445.774915933 621.138133948 c 0
 445.774915933 609.74534849 444.509385365 597.989285632 442 586 c 1
 434 542 410 501 376 472 c 0
 341 441 298 424 256 424 c 0
 212 424 178 439 155 470 c 0
 137.691694306 492.356561521 129.225084067 518.873920903 129.225084067 549.17699293 c 0
 129.225084067 560.892691632 130.490614635 573.174252579 133 586 c 0
 142 631 165 670 201 701 c 0
 236 732 276 749 320 749 c 0
EndSplineSet
Validated: 524289
EndChar

StartChar: plusminus
Encoding: 177 177 137
Width: 797
Flags: W
HStem: 0 109<59 633> 343 109<125 351 473 699>
LayerCount: 2
Fore
SplineSet
507 627 m 1
 473 452 l 1
 720 452 l 1
 699 343 l 1
 452 343 l 1
 418 168 l 1
 317 168 l 1
 351 343 l 1
 104 343 l 1
 125 452 l 1
 372 452 l 1
 406 627 l 1
 507 627 l 1
59 109 m 1
 654 109 l 1
 633 0 l 1
 38 0 l 1
 59 109 l 1
EndSplineSet
Validated: 1
EndChar

StartChar: twosuperior
Encoding: 178 178 138
Width: 416
Flags: W
HStem: 326 77<197 363> 679 63<164.99 305.718>
VStem: 315.24 104.821<579.121 669.085>
LayerCount: 2
Fore
SplineSet
197 403 m 1
 378 403 l 1
 363 326 l 1
 50 326 l 1
 64 397 l 1
 239 528 l 2
 287 565 308 591 314 618 c 0
 314.831481558 622.276190868 315.239680515 626.397178116 315.239680515 630.339498299 c 0
 315.239680515 659.586418483 292.773544495 679 254 679 c 0
 216 679 170 664 111 630 c 1
 128 718 l 1
 185 734 239 742 285 742 c 0
 371.707337494 742 420.060780418 707.64130278 420.060780418 651.066217055 c 0
 420.060780418 644.35042713 419.379428996 637.321584669 418 630 c 0
 409 583 384 549 311 493 c 1
 197 403 l 1
EndSplineSet
Validated: 524289
EndChar

StartChar: threesuperior
Encoding: 179 179 139
Width: 416
Flags: W
HStem: 319 62<87.1956 255.467> 514 60<167 276.361> 678 64<134.085 306.27>
VStem: 289.22 100.827<413.842 498.25> 312.871 105.183<596.173 668.418>
LayerCount: 2
Fore
SplineSet
315 547 m 1xe8
 363.318522994 536.646030787 390.047214909 506.191184362 390.047214909 463.986109581 c 0
 390.047214909 457.276523042 389.371692322 450.269969309 388 443 c 0
 371 360 304 319 180 319 c 0
 129 319 84 325 44 339 c 1
 60 419 l 1
 96 394 134 381 171 381 c 0
 236 381 279 405 288 448 c 1
 288.809998438 452.556241214 289.22018748 456.866445876 289.22018748 460.933727882 c 0xf0
 289.22018748 497.037209817 256.90001562 514 185 514 c 2
 155 514 l 1
 167 574 l 1
 202 574 l 2
 271 574 304 591 312 628 c 1
 312.580645161 631.193548387 312.870967742 634.237252862 312.870967742 637.13020711 c 0
 312.870967742 664.131113424 287.580645161 678 237 678 c 0
 203 678 165 669 118 651 c 1
 133 726 l 1
 177 737 224 742 277 742 c 0
 369.127569848 742 418.053668039 713.199018895 418.053668039 658.459369953 c 0
 418.053668039 651.999273256 417.372248466 645.177915052 416 638 c 0
 407 593 369 560 315 547 c 1xe8
EndSplineSet
Validated: 524289
EndChar

StartChar: acute
Encoding: 180 180 140
Width: 475
Flags: W
HStem: 616 184
VStem: 225 298
LayerCount: 2
Fore
SplineSet
396 800 m 1
 523 800 l 1
 311 616 l 1
 225 616 l 1
 396 800 l 1
EndSplineSet
Validated: 1
EndChar

StartChar: mu
Encoding: 181 181 141
Width: 699
Flags: W
HStem: -209 21G<-23 139.852> -11 122<235.215 360.136 491 603.68> 527 20G<120.111 283 483.101 644>
LayerCount: 2
Fore
SplineSet
-23 -209 m 1
 124 547 l 1
 283 547 l 1
 221 229 l 2
 218.213384094 214.323822895 216.807253203 201.028130805 216.807253203 189.10651226 c 0
 216.807253203 136.855570178 243.818433167 111 300 111 c 0
 370 111 410 150 425 229 c 2
 487 547 l 1
 644 547 l 1
 573 181 l 2
 570.283707593 166.875279481 568.895499185 155.406726962 568.895499185 146.193513055 c 0
 568.895499185 121.488383407 578.877247982 113 600 113 c 0
 610 113 619 116 630 125 c 1
 607 9 l 1
 573 -5 545 -11 519 -11 c 0
 463 -11 435 11 424 67 c 1
 382 14 334 -11 279 -11 c 0
 229 -11 197 4 183 35 c 1
 136 -209 l 1
 -23 -209 l 1
EndSplineSet
Validated: 524289
EndChar

StartChar: paragraph
Encoding: 182 182 142
Width: 605
Flags: W
HStem: 665 64<407 509>
LayerCount: 2
Fore
SplineSet
358 729 m 2
 600 729 l 1
 440 -96 l 1
 361 -96 l 1
 509 665 l 1
 407 665 l 1
 259 -96 l 1
 180 -96 l 1
 261 321 l 1
 152.903405881 334.726551634 94.1193927166 391.141606184 94.1193927166 479.510873809 c 0
 94.1193927166 494.146958125 95.731917974 509.65958987 99 526 c 0
 110 586 140 636 186 672 c 0
 235 710 291 729 358 729 c 2
EndSplineSet
Validated: 524289
EndChar

StartChar: periodcentered
Encoding: 183 183 143
Width: 361
Flags: W
HStem: 253 189<119 250>
VStem: 83 203
LayerCount: 2
Fore
SplineSet
119 442 m 1
 286 442 l 1
 250 253 l 1
 83 253 l 1
 119 442 l 1
EndSplineSet
Validated: 1
EndChar

StartChar: cedilla
Encoding: 184 184 144
Width: 476
Flags: W
HStem: -196 65<33.1722 173.775> -20 20G<160 229.434>
VStem: 189.521 60.2635<-114.367 -15.4287>
LayerCount: 2
Fore
SplineSet
219 0 m 1
 239.867543862 -32.1039136332 249.784311723 -60.9870107959 249.784311723 -87.166295557 c 0
 249.784311723 -93.6051956817 249.184412955 -99.8805330657 248 -106 c 0
 236 -167 194 -196 115 -196 c 0
 86 -196 55 -192 23 -185 c 1
 36 -114 l 1
 65 -127 90 -131 110 -131 c 0
 152 -131 183 -113 189 -82 c 0
 189.34770382 -80.0296783543 189.520777273 -77.9384587623 189.520777273 -75.7201135681 c 0
 189.520777273 -58.7985034228 179.450171988 -34.4798503423 160 0 c 1
 219 0 l 1
EndSplineSet
Validated: 524289
EndChar

StartChar: onesuperior
Encoding: 185 185 145
Width: 416
Flags: W
HStem: 326 71<81 179 278 363> 714 20G<142 343>
VStem: 67 310
LayerCount: 2
Fore
SplineSet
81 397 m 1
 179 397 l 1
 231 665 l 1
 118 639 l 1
 132 712 l 1
 242 734 l 1
 343 734 l 1
 278 397 l 1
 377 397 l 1
 363 326 l 1
 67 326 l 1
 81 397 l 1
EndSplineSet
Validated: 1
EndChar

StartChar: ordmasculine
Encoding: 186 186 146
Width: 536
Flags: W
HStem: 182 92<66 432> 345 74<231.073 348.115> 668 74<272.344 386.142>
VStem: 91.2403 122.023<439.811 596.281> 405.841 122.968<489.875 650.313>
LayerCount: 2
Fore
SplineSet
349 742 m 0
 463.25252694 742 528.808623996 685.062635829 528.808623996 589.992920872 c 0
 528.808623996 575.225219445 527.226813284 559.537418079 524 543 c 0
 500 420 405 345 272 345 c 0
 157.573414747 345 91.2402855547 401.359518822 91.2402855547 496.490300234 c 0
 91.2402855547 511.100302561 92.8048336824 526.624772623 96 543 c 0
 120 666 217 742 349 742 c 0
66 274 m 1
 450 274 l 1
 432 182 l 1
 48 182 l 1
 66 274 l 1
334 668 m 0
 275 668 234 623 218 543 c 0
 214.824239179 527.121195893 213.263727297 512.660659149 213.263727297 499.680946403 c 0
 213.263727297 447.266753369 238.710618029 419 286 419 c 0
 345 419 385 463 401 543 c 0
 404.241032386 559.205161932 405.840769315 573.974190339 405.840769315 587.223968162 c 0
 405.840769315 639.384349784 381.048693075 668 334 668 c 0
EndSplineSet
Validated: 524289
EndChar

StartChar: guillemotright
Encoding: 187 187 147
Width: 614
Flags: W
LayerCount: 2
Fore
SplineSet
355 519 m 1
 543 337 l 1
 526 248 l 1
 268 67 l 1
 290 181 l 1
 453 293 l 1
 333 405 l 1
 355 519 l 1
126 519 m 1
 314 337 l 1
 297 248 l 1
 39 67 l 1
 61 181 l 1
 225 293 l 1
 104 405 l 1
 126 519 l 1
EndSplineSet
Validated: 1
EndChar

StartChar: onequarter
Encoding: 188 188 148
Width: 984
Flags: W
HStem: 1 21G<175 284.423 685 785.75> 81 68<589 700 810 862> 330 69<71 166 263 346> 722 10G<131.818 328 742.577 852>
LayerCount: 2
Fore
SplineSet
746 318 m 1
 589 149 l 1
 713 149 l 1
 746 318 l 1
753 404 m 1
 860 404 l 1
 810 149 l 1
 875 149 l 1
 862 81 l 1
 797 81 l 1
 782 1 l 1
 685 1 l 1
 700 81 l 1
 518 81 l 1
 533 157 l 1
 753 404 l 1
269 -14 m 1
 175 -14 l 1
 758 742 l 1
 852 742 l 1
 269 -14 l 1
71 399 m 1
 166 399 l 1
 217 663 l 1
 108 638 l 1
 122 710 l 1
 230 732 l 1
 328 732 l 1
 263 399 l 1
 359 399 l 1
 346 330 l 1
 58 330 l 1
 71 399 l 1
EndSplineSet
Validated: 1
Ligature2: "sous-table Remplacement de ligature lookups11" one fraction four
Ligature2: "sous-table Remplacement de ligature lookups11" one slash four
EndChar

StartChar: onehalf
Encoding: 189 189 149
Width: 984
Flags: W
HStem: -14 21G<175 284.423> 1 76<712 875> 330 69<71 166 263 346> 349 62<680.609 818.497> 722 10G<131.818 328 742.577 852>
VStem: 828.243 101.821<248.652 339.144>
LayerCount: 2
Fore
SplineSet
712 77 m 1x5c
 889 77 l 1
 875 1 l 1
 569 1 l 1
 582 71 l 1
 755 201 l 2
 803 238 822 262 827 288 c 0
 827.834923997 292.293894844 828.243053251 296.431298281 828.243053251 300.388454235 c 0
 828.243053251 329.608080552 805.990456016 349 769 349 c 0
 731 349 689 335 630 302 c 1
 647 387 l 1
 703 403 754 411 798 411 c 0
 881.999293036 411 930.064378809 377.461406555 930.064378809 320.374354909 c 0
 930.064378809 313.577739671 929.383076495 306.447334973 928 299 c 0
 919 253 894 219 824 165 c 2
 712 77 l 1x5c
269 -14 m 1x8c
 175 -14 l 1
 758 742 l 1
 852 742 l 1
 269 -14 l 1x8c
71 399 m 1x2c
 166 399 l 1
 217 663 l 1
 108 638 l 1
 122 710 l 1
 230 732 l 1
 328 732 l 1
 263 399 l 1
 359 399 l 1
 346 330 l 1
 58 330 l 1
 71 399 l 1x2c
EndSplineSet
Validated: 524289
Ligature2: "sous-table Remplacement de ligature lookups11" one fraction two
Ligature2: "sous-table Remplacement de ligature lookups11" one slash two
EndChar

StartChar: threequarters
Encoding: 190 190 150
Width: 983
Flags: W
HStem: 1 21G<174 283.423 684 784.75> 81 68<588 699 809 861> 324 62<91.7379 258.009> 517 58<171 277.402> 678 64<139.158 307.124>
VStem: 288.581 98.5738<414.585 502.81> 312.899 102.191<596.044 669.195>
LayerCount: 2
Fore
SplineSet
752 405 m 1xf8
 859 405 l 1
 809 149 l 1
 874 149 l 1
 861 81 l 1
 796 81 l 1
 781 1 l 1
 684 1 l 1
 699 81 l 1
 517 81 l 1
 532 157 l 1
 752 405 l 1xf8
745 318 m 1
 588 149 l 1
 712 149 l 1
 745 318 l 1
314 549 m 1
 361.933605386 538.728513132 387.154664125 509.407793592 387.154664125 467.936249636 c 0
 387.154664125 460.957307908 386.44042761 453.634266331 385 446 c 0
 369 364 303 324 181 324 c 0
 132 324 89 330 51 344 c 1
 67 423 l 1
 101 398 139 386 174 386 c 0
 238 386 279 409 287 451 c 0
 288.048122559 456.240612793 288.580870869 461.155726061 288.580870869 465.750078184 c 0xfc
 288.580870869 500.606426522 257.916271158 517 189 517 c 2
 160 517 l 1
 171 575 l 1
 205 575 l 2
 272 575 305 593 312 629 c 0
 312.59900332 632.194684371 312.899002492 635.239866668 312.899002492 638.133556841 c 0
 312.899002492 664.22491646 288.509136238 678 239 678 c 0
 206 678 171 669 123 651 c 1
 138 726 l 1
 181 736 227 742 279 742 c 0
 367.357035357 742 415.090129223 713.324276595 415.090129223 659.527405973 c 0xfa
 415.090129223 653.047353879 414.397561014 646.202814456 413 639 c 0
 404 595 368 561 314 549 c 1
268 -14 m 1
 174 -14 l 1
 757 742 l 1
 851 742 l 1
 268 -14 l 1
EndSplineSet
Validated: 524289
Ligature2: "sous-table Remplacement de ligature lookups11" three fraction four
Ligature2: "sous-table Remplacement de ligature lookups11" three slash four
EndChar

StartChar: questiondown
Encoding: 191 191 151
Width: 550
Flags: W
HStem: -14 119<209.933 369.75> 561 168<306 434>
VStem: 30.2842 161.144<122.76 227.144>
LayerCount: 2
Fore
SplineSet
258 479 m 1
 418 479 l 1
 414 459 l 2
 408 432 399 409 384 389 c 0
 370 370 343 343 304 311 c 1
 267 282 l 2
 224 248 200 217 193 184 c 0
 191.947331922 178.385770251 191.428198328 173.004106815 191.428198328 167.877411078 c 0
 191.428198328 129.172378087 221.017787187 105 274 105 c 0
 324 105 387 128 458 172 c 1
 429 24 l 1
 351 -3 287 -14 230 -14 c 0
 98.8229391101 -14 30.2841821634 35.0540934495 30.2841821634 127.917433234 c 0
 30.2841821634 141.950560045 31.8493341812 156.984115421 35 173 c 0
 47 236 77 281 146 338 c 1
 182 366 l 1
 235 409 248 430 254 461 c 2
 258 479 l 1
434 561 m 1
 274 561 l 1
 306 729 l 1
 466 729 l 1
 434 561 l 1
EndSplineSet
Validated: 524289
Position2: "sous-table 'cpsp' Chasses pour composition en capitales dans Latin lookup 1" dx=5 dy=0 dh=10 dv=0
EndChar

StartChar: Agrave
Encoding: 192 192 152
Width: 735
Flags: W
HStem: 0 21G<-58 123.37 493.333 667> 135 129<252 459>
LayerCount: 2
Fore
SplineSet
478 135 m 1
 183 135 l 1
 113 0 l 1
 -58 0 l 1
 342 727 l 1
 549 727 l 1
 667 0 l 1
 496 0 l 1
 478 135 l 1
252 264 m 1
 459 264 l 1
 414 564 l 1
 252 264 l 1
445 927 m 1
 512 803 l 1
 429 803 l 1
 322 927 l 1
 445 927 l 1
EndSplineSet
Validated: 1
Position2: "sous-table 'cpsp' Chasses pour composition en capitales dans Latin lookup 1" dx=5 dy=0 dh=10 dv=0
EndChar

StartChar: Aacute
Encoding: 193 193 153
Width: 735
Flags: W
HStem: 0 21G<-58 123.37 493.333 667> 135 129<252 459>
LayerCount: 2
Fore
SplineSet
478 135 m 1
 183 135 l 1
 113 0 l 1
 -58 0 l 1
 342 727 l 1
 549 727 l 1
 667 0 l 1
 496 0 l 1
 478 135 l 1
252 264 m 1
 459 264 l 1
 414 564 l 1
 252 264 l 1
501 927 m 1
 624 927 l 1
 469 803 l 1
 386 803 l 1
 501 927 l 1
EndSplineSet
Validated: 1
Position2: "sous-table 'cpsp' Chasses pour composition en capitales dans Latin lookup 1" dx=5 dy=0 dh=10 dv=0
EndChar

StartChar: Acircumflex
Encoding: 194 194 154
Width: 735
Flags: W
HStem: 0 21G<-58 123.37 493.333 667> 135 129<252 459> 708 20G<331.011 552.242>
LayerCount: 2
Fore
SplineSet
478 135 m 1
 183 135 l 1
 113 0 l 1
 -58 0 l 1
 342 728 l 1
 549 728 l 1
 667 0 l 1
 496 0 l 1
 478 135 l 1
252 264 m 1
 459 264 l 1
 414 565 l 1
 252 264 l 1
403 927 m 1
 543 927 l 1
 620 805 l 1
 546 805 l 1
 465 887 l 1
 352 805 l 1
 278 805 l 1
 403 927 l 1
EndSplineSet
Validated: 1
Position2: "sous-table 'cpsp' Chasses pour composition en capitales dans Latin lookup 1" dx=5 dy=0 dh=10 dv=0
EndChar

StartChar: Atilde
Encoding: 195 195 155
Width: 735
Flags: W
HStem: 0 21G<-58 123.37 493.333 667> 135 129<252 459> 708 20G<331.011 552.242> 806 65<479.223 563.48> 864 64<358.715 443.323>
VStem: 577 50<882.413 928>
LayerCount: 2
Fore
SplineSet
478 135 m 1xe4
 183 135 l 1
 113 0 l 1
 -58 0 l 1
 342 728 l 1
 549 728 l 1
 667 0 l 1
 496 0 l 1
 478 135 l 1xe4
252 264 m 1
 459 264 l 1
 414 565 l 1
 252 264 l 1
459 830 m 2
 437 847 l 2
 436 848 434 849 432 850 c 0
 417 860 405 864 395 864 c 0xec
 371 864 350 841 343 805 c 1
 290 806 l 1xf4
 291 809 295 814 295 817 c 0
 308 884 351 928 401 928 c 0xec
 424 928 443 920 463 905 c 2
 488 886 l 2
 500 876 513 871 525 871 c 0xf4
 552 871 570 891 577 928 c 1
 632 928 l 1xec
 631 925 627 920 627 918 c 0
 614 850 571 806 521 806 c 0xf4
 498 806 481 813 459 830 c 2
EndSplineSet
Validated: 1
Position2: "sous-table 'cpsp' Chasses pour composition en capitales dans Latin lookup 1" dx=5 dy=0 dh=10 dv=0
EndChar

StartChar: Adieresis
Encoding: 196 196 156
Width: 735
Flags: W
HStem: 0 21G<-58 123.37 493.333 667> 135 129<252 459> 708 20G<331.011 552.242> 814 113<330 407 516 594>
LayerCount: 2
Fore
SplineSet
478 135 m 1
 183 135 l 1
 113 0 l 1
 -58 0 l 1
 342 728 l 1
 549 728 l 1
 667 0 l 1
 496 0 l 1
 478 135 l 1
252 264 m 1
 459 264 l 1
 414 564 l 1
 252 264 l 1
330 927 m 1
 429 927 l 1
 407 814 l 1
 308 814 l 1
 330 927 l 1
516 927 m 1
 616 927 l 1
 594 814 l 1
 494 814 l 1
 516 927 l 1
EndSplineSet
Validated: 1
Position2: "sous-table 'cpsp' Chasses pour composition en capitales dans Latin lookup 1" dx=5 dy=0 dh=10 dv=0
EndChar

StartChar: Aring
Encoding: 197 197 157
Width: 735
Flags: W
HStem: 0 21G<-58 123.37 493.333 667> 135 129<252 459> 862 66<417.467 517.479>
VStem: 328.625 58.9252<734.837 831.76> 529.141 58.6663<754.152 849.961>
LayerCount: 2
Fore
SplineSet
549 719 m 1
 667 0 l 1
 496 0 l 1
 478 135 l 1
 183 135 l 1
 113 0 l 1
 -58 0 l 1
 338 719 l 1
 331.75 732.125 328.625 746.8125 328.625 762.818359375 c 0
 328.625 772.421875 329.75 782.5 332 793 c 0
 339 829 357 861 387 888 c 0
 417 914 450 928 485 928 c 0
 519 928 546 914 566 888 c 0
 580.670016772 868.195477358 587.80770482 845.700837316 587.80770482 820.910720546 c 0
 587.80770482 811.90385241 586.86549413 802.593969811 585 793 c 0
 579 762 568 738 549 719 c 1
389 793 m 0
 388.019982431 788.344916547 387.550195656 783.779873822 387.550195656 779.352669302 c 0
 387.550195656 747.640076665 411.655083453 723 445 723 c 0
 483 723 520 755 528 793 c 0
 528.77070964 797.183852331 529.141382943 801.28284847 529.141382943 805.264956015 c 0
 529.141382943 837.450493672 504.926249046 862 472 862 c 0
 434 862 396 831 389 793 c 0
252 264 m 1
 459 264 l 1
 414 565 l 1
 252 264 l 1
EndSplineSet
Validated: 524289
Position2: "sous-table 'cpsp' Chasses pour composition en capitales dans Latin lookup 1" dx=5 dy=0 dh=10 dv=0
EndChar

StartChar: AE
Encoding: 198 198 158
Width: 1030
Flags: W
HStem: 0 136<607 898> 174 128<280 444> 313 135<668 929> 594 135<696 1003> 611 118<463 529>
LayerCount: 2
Fore
SplineSet
463 611 m 1xe8
 280 302 l 1
 469 302 l 1
 529 611 l 1
 463 611 l 1xe8
368 729 m 1
 1029 729 l 1xe8
 1003 594 l 1
 696 594 l 1xf0
 668 448 l 1
 956 448 l 1
 929 313 l 1
 641 313 l 1
 607 136 l 1
 924 136 l 1
 898 0 l 1
 411 0 l 1
 444 174 l 1
 203 174 l 1
 100 0 l 1
 -63 0 l 1
 368 729 l 1
EndSplineSet
Validated: 1
Ligature2: "sous-table 'dpng' Dipthongs (Obsolete) dans Latin lookup 9" A e
Ligature2: "sous-table 'dpng' Dipthongs (Obsolete) dans Latin lookup 9" A E
Position2: "sous-table 'cpsp' Chasses pour composition en capitales dans Latin lookup 1" dx=5 dy=0 dh=10 dv=0
EndChar

StartChar: Ccedilla
Encoding: 199 199 159
Width: 698
Flags: W
HStem: -196 63<208.625 343.304> 615 127<391.207 604.011>
VStem: 45.2666 175.461<195.434 413.216> 357.604 58.2871<-117.093 -20.3902>
LayerCount: 2
Fore
SplineSet
331.655326774 -11.3327281451 m 1
 230.285752203 -6.28179489204 153.549730285 27.4212376528 103 89 c 0
 64.1588872454 137.021739406 45.2666279125 197.012790864 45.2666279125 268.973154376 c 0
 45.2666279125 298.910489268 48.5364451018 330.91943781 55 365 c 0
 78 481 129 573 210 640 c 0
 291 708 391 742 506 742 c 0
 582 742 649 725 707 689 c 1
 679 544 l 1
 624 593 566 615 495 615 c 0
 359 615 259 521 228 365 c 0
 223.119867878 339.623312964 220.727152218 315.887262318 220.727152218 293.929594683 c 0
 220.727152218 180.905255162 284.123265621 115 398 115 c 0
 469 115 535 136 610 186 c 1
 581 40 l 1
 518.430623289 9.5843307655 454.350858113 -7.23784228151 388.760704476 -11.1227974509 c 1
 407.422700451 -39.6160412348 415.890916785 -65.8255769035 415.89091679 -89.7514045387 c 0
 415.89091679 -96.3408242065 415.248595461 -102.757022694 414 -109 c 0
 403 -168 362 -196 287 -196 c 0
 258 -196 228 -192 198 -185 c 1
 211 -117 l 1
 237 -129 263 -133 282 -133 c 0
 323 -133 351 -116 357 -86 c 0
 357.399421946 -83.8697496213 357.603853136 -81.5622349194 357.603853136 -79.0750957854 c 0
 357.603853136 -63.6195173248 349.709482291 -41.2275125968 331.655326774 -11.3327281451 c 1
EndSplineSet
Validated: 524289
Position2: "sous-table 'cpsp' Chasses pour composition en capitales dans Latin lookup 1" dx=5 dy=0 dh=10 dv=0
EndChar

StartChar: Egrave
Encoding: 200 200 160
Width: 648
Flags: W
HStem: 0 135<221 516> 311 135<281 547> 591 136<309 620>
LayerCount: 2
Fore
SplineSet
165 727 m 1
 647 727 l 1
 620 591 l 1
 309 591 l 1
 281 446 l 1
 573 446 l 1
 547 311 l 1
 255 311 l 1
 221 135 l 1
 542 135 l 1
 516 0 l 1
 24 0 l 1
 165 727 l 1
410 927 m 1
 477 803 l 1
 393 803 l 1
 286 927 l 1
 410 927 l 1
EndSplineSet
Validated: 1
Position2: "sous-table 'cpsp' Chasses pour composition en capitales dans Latin lookup 1" dx=5 dy=0 dh=10 dv=0
EndChar

StartChar: Eacute
Encoding: 201 201 161
Width: 648
Flags: W
HStem: 0 135<221 516> 311 135<281 547> 591 136<309 620>
LayerCount: 2
Fore
SplineSet
165 727 m 1
 647 727 l 1
 620 591 l 1
 309 591 l 1
 281 446 l 1
 573 446 l 1
 547 311 l 1
 255 311 l 1
 221 135 l 1
 542 135 l 1
 516 0 l 1
 24 0 l 1
 165 727 l 1
466 927 m 1
 589 927 l 1
 434 803 l 1
 351 803 l 1
 466 927 l 1
EndSplineSet
Validated: 1
Position2: "sous-table 'cpsp' Chasses pour composition en capitales dans Latin lookup 1" dx=5 dy=0 dh=10 dv=0
EndChar

StartChar: Ecircumflex
Encoding: 202 202 162
Width: 648
Flags: W
HStem: 0 135<221 516> 312 135<281 547> 593 135<310 621>
LayerCount: 2
Fore
SplineSet
165 728 m 1
 647 728 l 1
 621 593 l 1
 310 593 l 1
 281 447 l 1
 573 447 l 1
 547 312 l 1
 255 312 l 1
 221 135 l 1
 542 135 l 1
 516 0 l 1
 24 0 l 1
 165 728 l 1
368 927 m 1
 508 927 l 1
 586 805 l 1
 511 805 l 1
 430 887 l 1
 316 805 l 1
 242 805 l 1
 368 927 l 1
EndSplineSet
Validated: 1
Position2: "sous-table 'cpsp' Chasses pour composition en capitales dans Latin lookup 1" dx=5 dy=0 dh=10 dv=0
EndChar

StartChar: Edieresis
Encoding: 203 203 163
Width: 648
Flags: W
HStem: 0 135<221 516> 312 135<281 547> 592 135<310 621> 814 113<294 372 481 560>
LayerCount: 2
Fore
SplineSet
165 727 m 1
 647 727 l 1
 621 592 l 1
 310 592 l 1
 281 447 l 1
 573 447 l 1
 547 312 l 1
 255 312 l 1
 221 135 l 1
 542 135 l 1
 516 0 l 1
 24 0 l 1
 165 727 l 1
294 927 m 1
 394 927 l 1
 372 814 l 1
 272 814 l 1
 294 927 l 1
481 927 m 1
 582 927 l 1
 560 814 l 1
 459 814 l 1
 481 927 l 1
EndSplineSet
Validated: 1
Position2: "sous-table 'cpsp' Chasses pour composition en capitales dans Latin lookup 1" dx=5 dy=0 dh=10 dv=0
EndChar

StartChar: Igrave
Encoding: 204 204 164
Width: 353
Flags: W
HStem: 0 21G<27 206.879>
VStem: 27 317
LayerCount: 2
Fore
SplineSet
168 727 m 1
 344 727 l 1
 203 0 l 1
 27 0 l 1
 168 727 l 1
254 927 m 1
 324 803 l 1
 238 803 l 1
 127 927 l 1
 254 927 l 1
EndSplineSet
Validated: 1
Position2: "sous-table 'cpsp' Chasses pour composition en capitales dans Latin lookup 1" dx=5 dy=0 dh=10 dv=0
EndChar

StartChar: Iacute
Encoding: 205 205 165
Width: 353
Flags: W
HStem: 0 21G<24 204.879>
LayerCount: 2
Fore
SplineSet
165 727 m 1
 342 727 l 1
 201 0 l 1
 24 0 l 1
 165 727 l 1
310 927 m 1
 437 927 l 1
 278 803 l 1
 191 803 l 1
 310 927 l 1
EndSplineSet
Validated: 1
Position2: "sous-table 'cpsp' Chasses pour composition en capitales dans Latin lookup 1" dx=5 dy=0 dh=10 dv=0
EndChar

StartChar: Icircumflex
Encoding: 206 206 166
Width: 353
Flags: W
HStem: 0 21G<27 204.874> 708 20G<164.126 342>
LayerCount: 2
Fore
SplineSet
168 728 m 1
 342 728 l 1
 201 0 l 1
 27 0 l 1
 168 728 l 1
211 927 m 1
 353 927 l 1
 433 805 l 1
 357 805 l 1
 274 887 l 1
 159 805 l 1
 83 805 l 1
 211 927 l 1
EndSplineSet
Validated: 1
Position2: "sous-table 'cpsp' Chasses pour composition en capitales dans Latin lookup 1" dx=5 dy=0 dh=10 dv=0
EndChar

StartChar: Idieresis
Encoding: 207 207 167
Width: 353
Flags: W
HStem: 0 21G<27 204.879> 814 113<136 216 326 406>
LayerCount: 2
Fore
SplineSet
168 727 m 1
 342 727 l 1
 201 0 l 1
 27 0 l 1
 168 727 l 1
136 927 m 1
 238 927 l 1
 216 814 l 1
 114 814 l 1
 136 927 l 1
326 927 m 1
 428 927 l 1
 406 814 l 1
 304 814 l 1
 326 927 l 1
EndSplineSet
Validated: 1
Position2: "sous-table 'cpsp' Chasses pour composition en capitales dans Latin lookup 1" dx=5 dy=0 dh=10 dv=0
EndChar

StartChar: Eth
Encoding: 208 208 168
Width: 796
Flags: W
HStem: 0 135<231 422.807> 307 120<35 94 288 375> 594 135<320 506.431>
VStem: 590.536 174.626<317.895 516.301>
LayerCount: 2
Fore
SplineSet
320 594 m 1
 288 427 l 1
 399 427 l 1
 375 307 l 1
 264 307 l 1
 231 135 l 1
 301 135 l 2
 454 135 554 216 584 366 c 0
 588.368979708 388.44751643 590.536372712 409.306258951 590.536372712 428.545453232 c 0
 590.536372712 537.010361844 521.648556733 594 390 594 c 2
 320 594 l 1
176 729 m 1
 361 729 l 2
 468 729 545 721 594 705 c 0
 642 690 680 663 710 625 c 0
 746.894279591 578.882150511 765.162837636 522.19294555 765.162837636 454.575221614 c 0
 765.162837636 426.890321847 762.100387088 397.373419311 756 366 c 0
 734 257 687 170 609 105 c 1
 565 67 515 41 460 24 c 1
 404 8 325 0 220 0 c 2
 35 0 l 1
 94 307 l 1
 11 307 l 1
 35 427 l 1
 118 427 l 1
 176 729 l 1
EndSplineSet
Validated: 524289
Position2: "sous-table 'cpsp' Chasses pour composition en capitales dans Latin lookup 1" dx=5 dy=0 dh=10 dv=0
EndChar

StartChar: Ntilde
Encoding: 209 209 169
Width: 794
Flags: W
HStem: 0 21G<24 189.874 444.399 647.874> 708 20G<161.126 364.601 619.126 785> 806 64<504.275 587.437> 864 64<383.023 467.323>
VStem: 602 49<882.47 928>
LayerCount: 2
Fore
SplineSet
165 728 m 1xc8
 358 728 l 1
 525 222 l 1
 623 728 l 1
 785 728 l 1
 644 0 l 1
 451 0 l 1
 284 506 l 1
 186 0 l 1
 24 0 l 1
 165 728 l 1xc8
483 830 m 2
 461 847 l 2
 460 848 458 849 456 850 c 0
 441 860 429 864 419 864 c 0xd8
 395 864 375 841 368 805 c 1
 314 806 l 1xe8
 315 809 319 814 319 817 c 0
 332 884 375 928 425 928 c 0xd8
 448 928 467 920 487 905 c 2
 512 886 l 2
 524 876 537 870 549 870 c 0xe8
 576 870 595 891 602 928 c 1
 656 928 l 1xd8
 655 925 651 920 651 918 c 0
 638 850 595 806 545 806 c 0xe8
 522 806 505 813 483 830 c 2
EndSplineSet
Validated: 1
Position2: "sous-table 'cpsp' Chasses pour composition en capitales dans Latin lookup 1" dx=5 dy=0 dh=10 dv=0
EndChar

StartChar: Ograve
Encoding: 210 210 170
Width: 809
Flags: W
HStem: -14 127<280.804 452.154> 611 127<370.651 539.988>
VStem: 44.0435 174.858<179.315 404.561> 603.628 175.095<316.826 544.996>
LayerCount: 2
Fore
SplineSet
460 611 m 0
 343 611 258 519 228 362 c 0
 221.903839086 331.125894725 218.901387049 302.765427912 218.901387049 277.123927455 c 0
 218.901387049 172.374100428 269.008091193 113 363 113 c 0
 479 113 564 205 595 362 c 0
 600.7808043 392.252875835 603.6282773 420.092251233 603.6282773 445.32494502 c 0
 603.6282773 551.039568317 553.647556708 611 460 611 c 0
485 738 m 0
 595 738 676 704 726 637 c 1
 761.148648649 591.513513514 778.722972973 533.677501826 778.722972973 463.819317217 c 0
 778.722972973 432.314645727 775.148648649 398.364864865 768 362 c 0
 745 245 696 152 619 86 c 1
 543 19 449 -14 339 -14 c 0
 228 -14 147 19 96 86 c 0
 61.1496132847 131.100500455 44.0435092529 188.808780712 44.0435092529 258.167572792 c 0
 44.0435092529 290.308325752 47.7168410677 324.95088717 55 362 c 0
 78 479 126 571 203 637 c 0
 280 704 374 738 485 738 c 0
482 927 m 1
 549 803 l 1
 466 803 l 1
 358 927 l 1
 482 927 l 1
EndSplineSet
Validated: 524289
Position2: "sous-table 'cpsp' Chasses pour composition en capitales dans Latin lookup 1" dx=5 dy=0 dh=10 dv=0
EndChar

StartChar: Oacute
Encoding: 211 211 171
Width: 809
Flags: W
HStem: -14 127<280.804 452.154> 611 127<370.651 539.988>
VStem: 44.0435 174.858<179.315 404.561> 603.628 175.095<316.826 544.996>
LayerCount: 2
Fore
SplineSet
460 611 m 0
 343 611 258 519 228 362 c 0
 221.903839086 331.125894725 218.901387049 302.765427912 218.901387049 277.123927455 c 0
 218.901387049 172.374100428 269.008091193 113 363 113 c 0
 479 113 564 205 595 362 c 0
 600.7808043 392.252875835 603.6282773 420.092251233 603.6282773 445.32494502 c 0
 603.6282773 551.039568317 553.647556708 611 460 611 c 0
485 738 m 0
 595 738 676 704 726 637 c 1
 761.148648649 591.513513514 778.722972973 533.677501826 778.722972973 463.819317217 c 0
 778.722972973 432.314645727 775.148648649 398.364864865 768 362 c 0
 745 245 696 152 619 86 c 1
 543 19 449 -14 339 -14 c 0
 228 -14 147 19 96 86 c 0
 61.1496132847 131.100500455 44.0435092529 188.808780712 44.0435092529 258.167572792 c 0
 44.0435092529 290.308325752 47.7168410677 324.95088717 55 362 c 0
 78 479 126 571 203 637 c 0
 280 704 374 738 485 738 c 0
538 927 m 1
 661 927 l 1
 506 803 l 1
 423 803 l 1
 538 927 l 1
EndSplineSet
Validated: 524289
Position2: "sous-table 'cpsp' Chasses pour composition en capitales dans Latin lookup 1" dx=5 dy=0 dh=10 dv=0
EndChar

StartChar: Ocircumflex
Encoding: 212 212 172
Width: 809
Flags: W
HStem: -14 127<280.804 452.154> 613 127<371.287 540.348>
VStem: 44.0435 174.858<178.372 405.689> 604.106 174.85<320.289 547.32>
LayerCount: 2
Fore
SplineSet
461 613 m 0
 344 613 259 521 228 363 c 0
 221.903839086 331.929244373 218.901387049 303.410798569 218.901387049 277.642385745 c 0
 218.901387049 172.374100428 269.008091193 113 363 113 c 0
 479 113 564 205 595 363 c 0
 601.103900987 394.110205029 604.106232171 422.661614971 604.106232171 448.455752588 c 0
 604.106232171 553.662800584 554.159596308 613 461 613 c 0
485 740 m 0
 595 740 677 706 727 639 c 0
 761.850386715 593.216158629 778.956490747 535.758447071 778.956490747 466.626865327 c 0
 778.956490747 434.591401272 775.283158932 400.04911283 768 363 c 0
 745 246 696 153 619 86 c 0
 543 19 449 -14 339 -14 c 0
 228 -14 147 19 96 86 c 0
 61.1496132847 131.783841371 44.0435092529 189.708507736 44.0435092529 259.135820443 c 0
 44.0435092529 291.308325752 47.7168410677 325.95088717 55 363 c 0
 78 480 127 572 204 639 c 0
 281 706 374 740 485 740 c 0
440 927 m 1
 580 927 l 1
 658 805 l 1
 583 805 l 1
 502 886 l 1
 389 805 l 1
 314 805 l 1
 440 927 l 1
EndSplineSet
Validated: 524289
Position2: "sous-table 'cpsp' Chasses pour composition en capitales dans Latin lookup 1" dx=5 dy=0 dh=10 dv=0
EndChar

StartChar: Otilde
Encoding: 213 213 173
Width: 809
Flags: W
HStem: -14 127<283.895 452.154> 613 127<375.459 540.348> 806 64<516.418 600.437> 864 64<396.018 480.215>
VStem: 44.0435 182.504<174.8 405.689> 604.106 174.85<320.289 547.32> 615 49<882.47 928>
LayerCount: 2
Fore
SplineSet
461 613 m 0xcc
 349 613 267 521 236 363 c 0
 229.667337935 330.723851412 226.547892186 301.201888238 226.547892186 274.655749999 c 0
 226.547892186 171.251754001 273.879295202 113 363 113 c 0
 479 113 564 205 595 363 c 0
 601.103900987 394.110205029 604.106232171 422.661614971 604.106232171 448.455752588 c 0
 604.106232171 553.662800584 554.159596308 613 461 613 c 0xcc
485 740 m 0
 595 740 677 706 727 639 c 0
 761.850386715 593.216158629 778.956490747 535.758447071 778.956490747 466.626865327 c 0
 778.956490747 434.591401272 775.283158932 400.04911283 768 363 c 0
 745 246 696 153 619 86 c 0
 543 19 449 -14 339 -14 c 0
 228 -14 147 19 96 86 c 0
 61.1496132847 131.783841371 44.0435092529 189.708507736 44.0435092529 259.135820443 c 0
 44.0435092529 291.308325752 47.7168410677 325.95088717 55 363 c 0
 78 480 127 572 204 639 c 0
 281 706 374 740 485 740 c 0
496 830 m 2
 474 847 l 2
 473 848 471 849 469 850 c 0
 454 860 442 864 432 864 c 0xda
 408 864 387 841 380 805 c 1
 327 806 l 1xea
 327.111111111 806.333333333 327.160493827 806.691358025 327.160493827 807.068587106 c 0
 327.160493827 810.086419753 324 814.333333333 324 817 c 0
 337 883 383 928 438 928 c 0xda
 460 928 480 920 500 905 c 2
 525 885 l 2
 537 875 550 870 562 870 c 0xea
 589 870 608 891 615 928 c 1
 669 928 l 1xda
 668 925 664 920 664 918 c 0
 651 850 608 806 558 806 c 0xea
 535 806 518 813 496 830 c 2
EndSplineSet
Validated: 524289
Position2: "sous-table 'cpsp' Chasses pour composition en capitales dans Latin lookup 1" dx=5 dy=0 dh=10 dv=0
EndChar

StartChar: Odieresis
Encoding: 214 214 174
Width: 809
Flags: W
HStem: -14 127<280.804 452.154> 612 127<370.883 540.023> 814 113<366 444 554 632>
VStem: 44.0435 174.858<178.231 405.561> 604.006 174.95<320.145 545.222>
LayerCount: 2
Fore
SplineSet
460 612 m 0
 343 612 259 520 228 363 c 0
 221.903839086 331.929244373 218.901387049 303.410798569 218.901387049 277.642385745 c 0
 218.901387049 172.374100428 269.008091193 113 363 113 c 0
 479 113 564 205 595 363 c 0
 601.041103954 393.59526841 604.006151825 421.722096754 604.006151825 447.180670251 c 0
 604.006151825 552.363082985 553.394578755 612 460 612 c 0
485 739 m 0
 595 739 677 705 727 638 c 1
 761.850386715 592.899499545 778.956490747 535.658174096 778.956490747 466.595112979 c 0
 778.956490747 434.591401272 775.283158932 400.04911283 768 363 c 0
 745 245 696 153 619 86 c 0
 543 19 449 -14 339 -14 c 0
 228 -14 147 19 96 86 c 0
 61.1496132847 131.783841371 44.0435092529 189.241552929 44.0435092529 258.692223999 c 0
 44.0435092529 290.875553535 47.7168410677 325.634228086 55 363 c 0
 78 480 127 572 204 638 c 0
 281 705 374 739 485 739 c 0
366 927 m 1
 466 927 l 1
 444 814 l 1
 344 814 l 1
 366 927 l 1
554 927 m 1
 654 927 l 1
 632 814 l 1
 532 814 l 1
 554 927 l 1
EndSplineSet
Validated: 524289
Position2: "sous-table 'cpsp' Chasses pour composition en capitales dans Latin lookup 1" dx=5 dy=0 dh=10 dv=0
EndChar

StartChar: multiply
Encoding: 215 215 175
Width: 796
Flags: W
LayerCount: 2
Fore
SplineSet
716 529 m 1
 467 313 l 1
 633 99 l 1
 545 20 l 1
 380 235 l 1
 131 20 l 1
 75 99 l 1
 323 313 l 1
 158 529 l 1
 245 607 l 1
 411 392 l 1
 659 607 l 1
 716 529 l 1
EndSplineSet
Validated: 1
EndChar

StartChar: Oslash
Encoding: 216 216 176
Width: 808
Flags: W
HStem: -14 127<281.372 451.24> 614 127<371.101 538.299> 745 20G<798.374 834.846>
VStem: 44.6348 176.508<248.581 409.276> 602.209 175.505<318.502 482.443>
LayerCount: 2
Fore
SplineSet
241 178 m 1
 267 135 306 113 362 113 c 0
 478 113 564 206 594 364 c 0
 599.334087473 391.263113753 602.209317858 416.769901014 602.209317858 439.89580184 c 0
 602.209317858 455.789341259 600.851265298 470.558320736 598 484 c 1
 241 178 l 1
580 552 m 1
 554 592 514 614 460 614 c 0
 344 614 259 522 228 364 c 0
 223.428571429 338.857142857 221.142857143 314.693877551 221.142857143 292.816326531 c 0
 221.142857143 276.408163265 222.428571429 261.285714286 225 248 c 1
 580 552 l 1
77 116 m 1
 55.3369901996 157.41457756 44.6348124299 205.730419731 44.6348124299 261.464835037 c 0
 44.6348124299 293.205343016 48.1057995944 327.351882054 55 364 c 0
 78 481 127 573 204 640 c 0
 281 707 374 741 485 741 c 0
 582 741 654 718 709 666 c 1
 821 765 l 1
 857 713 l 1
 743 615 l 1
 766.142857143 572.571428571 777.714285714 522.704081633 777.714285714 465.663629738 c 0
 777.714285714 433.974489796 774.142857143 400.071428571 767 364 c 0
 744 246 695 153 618 86 c 0
 542 19 448 -14 338 -14 c 0
 241 -14 166 11 111 64 c 1
 -3 -36 l 1
 -40 14 l 1
 77 116 l 1
EndSplineSet
Validated: 524289
Position2: "sous-table 'cpsp' Chasses pour composition en capitales dans Latin lookup 1" dx=5 dy=0 dh=10 dv=0
EndChar

StartChar: Ugrave
Encoding: 217 217 177
Width: 771
Flags: W
HStem: -14 129<271.708 425.22>
VStem: 69.8547 170.561<144.332 344.5>
LayerCount: 2
Fore
SplineSet
165 726 m 1
 334 726 l 1
 249 290 l 2
 243.308928288 261.316998572 240.416205457 236.624235363 240.416205457 215.591401545 c 0
 240.416205457 144.230241392 273.715501031 115 344 115 c 0
 436 115 483 164 508 290 c 2
 593 726 l 1
 762 726 l 1
 677 290 l 2
 637 84 521 -14 319 -14 c 0
 151.946332585 -14 69.8547235107 53.6933472952 69.8547235107 194.820940416 c 0
 69.8547235107 223.498935262 73.2445109283 255.209231281 80 290 c 2
 165 726 l 1
463 927 m 1
 530 803 l 1
 446 803 l 1
 339 927 l 1
 463 927 l 1
EndSplineSet
Validated: 524289
Position2: "sous-table 'cpsp' Chasses pour composition en capitales dans Latin lookup 1" dx=5 dy=0 dh=10 dv=0
EndChar

StartChar: Uacute
Encoding: 218 218 178
Width: 771
Flags: W
HStem: -14 129<271.708 425.22>
VStem: 69.8547 170.561<144.332 344.5>
LayerCount: 2
Fore
SplineSet
165 726 m 1
 334 726 l 1
 249 290 l 2
 243.308928288 261.316998572 240.416205457 236.624235363 240.416205457 215.591401545 c 0
 240.416205457 144.230241392 273.715501031 115 344 115 c 0
 436 115 483 164 508 290 c 2
 593 726 l 1
 762 726 l 1
 677 290 l 2
 637 84 521 -14 319 -14 c 0
 151.946332585 -14 69.8547235107 53.6933472952 69.8547235107 194.820940416 c 0
 69.8547235107 223.498935262 73.2445109283 255.209231281 80 290 c 2
 165 726 l 1
519 927 m 1
 642 927 l 1
 487 803 l 1
 404 803 l 1
 519 927 l 1
EndSplineSet
Validated: 524289
Position2: "sous-table 'cpsp' Chasses pour composition en capitales dans Latin lookup 1" dx=5 dy=0 dh=10 dv=0
EndChar

StartChar: Ucircumflex
Encoding: 219 219 179
Width: 771
Flags: W
HStem: -14 129<271.76 425.344> 708 20G<161.119 334 589.119 762>
VStem: 69.8547 170.968<144.573 344.75>
LayerCount: 2
Fore
SplineSet
165 728 m 1
 334 728 l 1
 249 290 l 2
 243.590500609 261.825524006 240.822771271 237.46129328 240.822771271 216.621036718 c 0
 240.822771271 145.000582717 273.511018524 115 344 115 c 0
 436 115 484 165 508 290 c 2
 593 728 l 1
 762 728 l 1
 677 290 l 2
 637 84 521 -14 319 -14 c 0
 151.946332585 -14 69.8547235107 53.6933472952 69.8547235107 194.820940416 c 0
 69.8547235107 223.498935262 73.2445109283 255.209231281 80 290 c 2
 165 728 l 1
421 927 m 1
 561 927 l 1
 639 805 l 1
 564 805 l 1
 483 886 l 1
 370 805 l 1
 295 805 l 1
 421 927 l 1
EndSplineSet
Validated: 524289
Position2: "sous-table 'cpsp' Chasses pour composition en capitales dans Latin lookup 1" dx=5 dy=0 dh=10 dv=0
EndChar

StartChar: Udieresis
Encoding: 220 220 180
Width: 771
Flags: W
HStem: -14 129<271.76 425.344> 814 113<347 425 535 613>
VStem: 69.8547 170.968<144.573 344.625>
LayerCount: 2
Fore
SplineSet
165 727 m 1
 334 727 l 1
 249 290 l 2
 243.590500609 261.825524006 240.822771271 237.46129328 240.822771271 216.621036718 c 0
 240.822771271 145.000582717 273.511018524 115 344 115 c 0
 436 115 484 165 508 290 c 2
 593 727 l 1
 762 727 l 1
 677 290 l 2
 637 84 521 -14 319 -14 c 0
 151.946332585 -14 69.8547235107 53.6933472952 69.8547235107 194.820940416 c 0
 69.8547235107 223.498935262 73.2445109283 255.209231281 80 290 c 2
 165 727 l 1
347 927 m 1
 447 927 l 1
 425 814 l 1
 325 814 l 1
 347 927 l 1
535 927 m 1
 635 927 l 1
 613 814 l 1
 513 814 l 1
 535 927 l 1
EndSplineSet
Validated: 524289
Position2: "sous-table 'cpsp' Chasses pour composition en capitales dans Latin lookup 1" dx=5 dy=0 dh=10 dv=0
EndChar

StartChar: Yacute
Encoding: 221 221 181
Width: 688
Flags: W
HStem: 0 21G<196 368.856> 708 20G<68 265.561 569.636 775>
LayerCount: 2
Fore
SplineSet
68 728 m 1
 257 728 l 1
 370 464 l 1
 586 728 l 1
 775 728 l 1
 424 306 l 1
 365 0 l 1
 196 0 l 1
 255 306 l 1
 68 728 l 1
477 927 m 1
 600 927 l 1
 445 803 l 1
 362 803 l 1
 477 927 l 1
EndSplineSet
Validated: 1
Position2: "sous-table 'cpsp' Chasses pour composition en capitales dans Latin lookup 1" dx=5 dy=0 dh=10 dv=0
EndChar

StartChar: Thorn
Encoding: 222 222 182
Width: 701
Flags: W
HStem: 0 21G<24 199.78> 127 129<245 430.707> 472 128<312 465.508> 709 20G<161.132 337>
VStem: 493.92 176.204<316.813 443.365>
LayerCount: 2
Fore
SplineSet
220 127 m 1
 196 0 l 1
 24 0 l 1
 165 729 l 1
 337 729 l 1
 312 600 l 1
 438 600 l 2
 589.101430959 600 670.123698191 537.376066456 670.123698191 422.427590901 c 0
 670.123698191 404.247061029 668.09689755 384.757614253 664 364 c 0
 635 213 521 127 346 127 c 2
 220 127 l 1
287 472 m 1
 245 256 l 1
 352 256 l 2
 426 256 478 295 491 364 c 0
 492.959200659 373.656060391 493.91961648 382.724600289 493.91961648 391.180953896 c 0
 493.91961648 443.151769888 457.644225088 472 394 472 c 2
 287 472 l 1
EndSplineSet
Validated: 524289
Position2: "sous-table 'cpsp' Chasses pour composition en capitales dans Latin lookup 1" dx=5 dy=0 dh=10 dv=0
EndChar

StartChar: germandbls
Encoding: 223 223 183
Width: 683
Flags: W
HStem: -14 107<277.04 427.885> -1 21G<16 176.889> 652 108<331.89 465.245>
VStem: 312.774 140.897<348.454 452.967> 459.141 156.493<124.482 220.304> 483.344 142.306<551.963 633.263>
LayerCount: 2
Fore
SplineSet
123 546 m 2x74
 150 689 248 760 415 760 c 0
 554.372149097 760 625.650149938 705.228619881 625.650149938 600.780023777 c 0x74
 625.650149938 583.822207779 623.771308484 565.554932879 620 546 c 1
 613 514 l 1
 514 507 465 481 455 431 c 0
 454.170492277 426.686559842 453.671264424 422.675876232 453.671264424 418.826398156 c 0
 453.671264424 399.472487215 466.290486493 384.193445942 513 355 c 1
 542 336 l 1
 592.095280151 304.19347292 615.634612224 263.534963147 615.634612224 210.50508534 c 0
 615.634612224 196.844402844 614.072552345 182.362761725 611 167 c 0
 587 46 507 -14 365 -14 c 0
 325 -14 284 -7 242 8 c 1
 264 122 l 1
 294 103 328 93 361 93 c 0
 412 93 450 122 458 162 c 0
 458.76631206 166.086997655 459.141134672 170.108747069 459.141134672 174.031914565 c 0xb8
 459.141134672 185.467375879 455.956501172 196.065248242 450 205 c 1
 444 216 427 232 398 250 c 1
 369 270 l 1
 331.168269629 294.952843436 312.773929338 327.680642904 312.773929338 369.226448192 c 0
 312.773929338 379.294799311 313.854234768 389.881034705 316 401 c 0
 331 477 384 527 481 558 c 1
 482.568485883 566.840556796 483.344031513 575.071159551 483.344031513 582.686010058 c 0
 483.344031513 628.475118404 455.302032829 652 403 652 c 0
 335 652 293 614 278 539 c 2
 173 -1 l 1
 16 -1 l 1
 123 546 l 2x74
EndSplineSet
Validated: 524289
EndChar

StartChar: agrave
Encoding: 224 224 184
Width: 641
Flags: W
HStem: -14 107<126.5 261.403> 0 21G<344 506.871> 247 96<206.037 392> 448 108<157.259 391.39>
VStem: 4.83333 160.218<107.636 210.25> 415.842 155.533<343.664 425.408>
LayerCount: 2
Fore
SplineSet
297 247 m 2xbc
 221 247 176 221 167 170 c 1
 165.69161212 163.719738178 165.05085699 157.764733336 165.05085699 152.157383489 c 0
 165.05085699 114.907795163 193.326972126 93 242 93 c 0
 310 93 372 149 387 223 c 2
 392 247 l 1
 297 247 l 2xbc
563 310 m 2
 503 0 l 1
 344 0 l 1x7c
 359 82 l 1
 298 14 238 -14 153 -14 c 0
 100 -14 60 2 33 34 c 1
 14.2222222222 57.8333333333 4.83333333333 86.3611111111 4.83333333333 119.960048011 c 0
 4.83333333333 132.882716049 6.22222222222 146.555555556 9 161 c 0
 33 287 125 343 305 343 c 2
 410 343 l 1
 414 363 l 2
 415.224950349 369.458829114 415.842258843 375.533231748 415.842258843 381.228731695 c 0
 415.842258843 426.67856956 376.53224247 448 293 448 c 0
 222 448 157 432 100 402 c 1
 124 529 l 1
 200 547 273 556 347 556 c 0
 501.768695355 556 571.375466366 505.456744088 571.375466366 388.815078931 c 0
 571.375466366 365.277558178 568.541037921 339.048471524 563 310 c 2
348 800 m 1
 444 620 l 1
 359 620 l 1
 224 800 l 1
 348 800 l 1
EndSplineSet
Validated: 524289
EndChar

StartChar: aacute
Encoding: 225 225 185
Width: 641
Flags: W
HStem: -14 107<126.5 261.403> 0 21G<344 506.871> 247 96<205.531 392> 448 108<158.853 394.244>
VStem: 4.83333 160.218<107.636 210.25> 415.842 155.528<343.65 425.385>
LayerCount: 2
Fore
SplineSet
297 247 m 2xbc
 221 247 176 221 167 170 c 1
 165.69161212 163.719738178 165.05085699 157.764733336 165.05085699 152.157383489 c 0
 165.05085699 114.907795163 193.326972126 93 242 93 c 0
 310 93 372 149 387 223 c 2
 392 247 l 1
 297 247 l 2xbc
563 310 m 2
 503 0 l 1
 344 0 l 1x7c
 359 82 l 1
 298 14 238 -14 153 -14 c 0
 100 -14 60 2 33 34 c 1
 14.2222222222 57.8333333333 4.83333333333 86.3611111111 4.83333333333 119.960048011 c 0
 4.83333333333 132.882716049 6.22222222222 146.555555556 9 161 c 0
 33 287 125 343 304 343 c 2
 410 343 l 1
 414 363 l 2
 415.224950349 369.458829114 415.842258843 375.533231748 415.842258843 381.228731695 c 0
 415.842258843 426.67856956 376.53224247 448 293 448 c 0
 222 448 157 432 100 402 c 1
 124 529 l 1
 199 547 273 556 346 556 c 0
 501.626963241 556 571.37073825 505.439735961 571.37073825 388.756202276 c 0
 571.37073825 365.233820837 568.536418252 339.024253259 563 310 c 2
484 800 m 1
 608 800 l 1
 401 620 l 1
 318 620 l 1
 484 800 l 1
EndSplineSet
Validated: 524289
EndChar

StartChar: acircumflex
Encoding: 226 226 186
Width: 641
Flags: W
HStem: -14 107<126.5 261.403> 0 21G<344 506.871> 248 96<205.531 392> 449 107<159.375 394.244>
VStem: 4.83333 160.218<107.636 210.614> 416.111 155.26<344.769 425.961>
LayerCount: 2
Fore
SplineSet
297 248 m 2xbc
 221 248 177 222 167 170 c 0
 165.69161212 163.719738178 165.05085699 157.764733336 165.05085699 152.157383489 c 0
 165.05085699 114.907795163 193.326972126 93 242 93 c 0
 310 93 372 149 387 224 c 2
 392 248 l 1
 297 248 l 2xbc
563 310 m 2
 503 0 l 1
 344 0 l 1x7c
 359 82 l 1
 298 14 238 -14 153 -14 c 0
 100 -14 60 2 33 34 c 1
 14.2222222222 57.8333333333 4.83333333333 86.3611111111 4.83333333333 119.960048011 c 0
 4.83333333333 132.882716049 6.22222222222 146.555555556 9 161 c 0
 33 287 125 344 304 344 c 2
 410 344 l 1
 414 363 l 2
 415.405310789 369.909444715 416.11117839 376.380023116 416.11117839 382.419765717 c 0
 416.11117839 427.9536051 375.991732149 449 293 449 c 0
 222 449 158 433 100 403 c 1
 125 530 l 1
 199 548 273 556 346 556 c 0
 501.626963241 556 571.37073825 505.439735961 571.37073825 388.756202276 c 0
 571.37073825 365.233820837 568.536418252 339.024253259 563 310 c 2
362 800 m 1
 470 800 l 1
 554 621 l 1
 479 621 l 1
 403 734 l 1
 283 621 l 1
 208 621 l 1
 362 800 l 1
EndSplineSet
Validated: 524289
EndChar

StartChar: atilde
Encoding: 227 227 187
Width: 641
Flags: W
HStem: -14 107<126.5 261.403> 0 21G<344 506.859> 248 96<205.531 392> 450 107<159.375 393.38> 646 67<419.046 501.379> 711 67<296.248 377.547>
VStem: 4.83333 160.218<108.549 210.77> 226 54<646 695.629> 416.111 155.609<344.212 427.102> 518 54<728.169 778>
LayerCount: 2
Fore
SplineSet
297 248 m 2xb3
 221 248 177 222 167 170 c 0
 165.69161212 163.850576966 165.05085699 157.992173335 165.05085699 152.453906527 c 0
 165.05085699 115.663236375 193.326972126 93 242 93 c 0
 310 93 372 149 387 224 c 2
 392 248 l 1
 297 248 l 2xb3
563 311 m 2
 503 0 l 1
 344 0 l 1x7380
 359 82 l 1
 298 14 238 -14 153 -14 c 0
 100 -14 60 2 33 34 c 1
 14.2222222222 57.8333333333 4.83333333333 86.3611111111 4.83333333333 119.960048011 c 0
 4.83333333333 132.882716049 6.22222222222 146.555555556 9 161 c 0
 33 288 125 344 304 344 c 2
 410 344 l 1
 414 364 l 2
 415.405310789 370.792335483 416.11117839 377.173233795 416.11117839 383.145907144 c 0
 416.11117839 428.174108992 375.991732149 450 293 450 c 0
 222 450 158 434 100 403 c 1
 125 531 l 1
 199 549 273 557 346 557 c 0
 501.248864068 557 571.720588249 506.685112099 571.720588249 390.605487336 c 0xb380
 571.720588249 366.865152957 568.772933806 340.374045541 563 311 c 2
397 674 m 1
 374 692 l 2
 373 693 371 694 370 695 c 0
 355 706 343 711 335 711 c 0x3740
 308 711 288 689 280 646 c 1
 226 646 l 1x3b40
 242 730 284 778 340 778 c 0x3740
 360 778 380 770 400 751 c 1
 426 729 l 1
 441 719 453 713 462 713 c 0x3b40
 491 713 510 737 518 778 c 1
 572 778 l 1x3740
 555 694 514 646 458 646 c 0x3b40
 437 646 420 653 397 674 c 1
EndSplineSet
Validated: 524289
EndChar

StartChar: adieresis
Encoding: 228 228 188
Width: 641
Flags: W
HStem: -14 107<126.5 261.403> 0 21G<344 506.859> 248 96<205.531 392> 449 107<159.375 394.2> 661 113<266 345 455 534>
VStem: 4.83333 160.218<107.636 210.614> 416.111 155.609<344.198 426.709>
LayerCount: 2
Fore
SplineSet
297 248 m 2xbe
 221 248 177 222 167 170 c 0
 165.69161212 163.719738178 165.05085699 157.764733336 165.05085699 152.157383489 c 0
 165.05085699 114.907795163 193.326972126 93 242 93 c 0
 310 93 372 149 387 224 c 2
 392 248 l 1
 297 248 l 2xbe
563 311 m 2
 503 0 l 1
 344 0 l 1x7e
 359 82 l 1
 298 14 238 -14 153 -14 c 0
 100 -14 60 2 33 34 c 1
 14.2222222222 57.8333333333 4.83333333333 86.3611111111 4.83333333333 119.960048011 c 0
 4.83333333333 132.882716049 6.22222222222 146.555555556 9 161 c 0
 33 287 125 344 304 344 c 2
 410 344 l 1
 414 363 l 2
 415.405310789 369.909444715 416.11117839 376.380023116 416.11117839 382.419765717 c 0
 416.11117839 427.9536051 375.991732149 449 293 449 c 0
 222 449 158 433 100 403 c 1
 125 530 l 1
 199 548 273 556 346 556 c 0
 501.248864068 556 571.720588249 506.374357139 571.720588249 390.528789198 c 0
 571.720588249 366.836323576 568.772933806 340.374045541 563 311 c 2
266 774 m 1
 367 774 l 1
 345 661 l 1
 244 661 l 1
 266 774 l 1
455 774 m 1
 556 774 l 1
 534 661 l 1
 433 661 l 1
 455 774 l 1
EndSplineSet
Validated: 524289
EndChar

StartChar: aring
Encoding: 229 229 189
Width: 641
Flags: W
HStem: -14 107<126.5 261.403> 0 21G<344 506.871> 248 96<205.531 392> 449 107<159.375 394.244> 617 66<346.944 447.892> 822 66<365.553 465.809>
VStem: 4.83333 160.218<107.636 210.614> 275.571 59.9788<694.184 792.286> 416.111 155.26<344.769 425.961> 478.14 59.5008<713.469 810.104>
LayerCount: 2
Fore
SplineSet
297 248 m 2xbf
 221 248 177 222 167 170 c 0
 165.69161212 163.719738178 165.05085699 157.764733336 165.05085699 152.157383489 c 0
 165.05085699 114.907795163 193.326972126 93 242 93 c 0
 310 93 372 149 387 224 c 2
 392 248 l 1
 297 248 l 2xbf
563 310 m 2
 503 0 l 1
 344 0 l 1x7f80
 359 82 l 1
 298 14 238 -14 153 -14 c 0
 100 -14 60 2 33 34 c 1
 14.2222222222 57.8333333333 4.83333333333 86.3611111111 4.83333333333 119.960048011 c 0
 4.83333333333 132.882716049 6.22222222222 146.555555556 9 161 c 0
 33 287 125 344 304 344 c 2
 410 344 l 1
 414 363 l 2
 415.405310789 369.909444715 416.11117839 376.380023116 416.11117839 382.419765717 c 0
 416.11117839 427.9536051 375.991732149 449 293 449 c 0
 222 449 158 433 100 403 c 1
 125 530 l 1
 199 548 273 556 346 556 c 0
 501.626963241 556 571.37073825 505.439735961 571.37073825 388.756202276 c 0xbf80
 571.37073825 365.233820837 568.536418252 339.024253259 563 310 c 2
337 752 m 0
 336.019982431 747.222414351 335.550195656 742.579889794 335.550195656 738.111031984 c 0
 335.550195656 706.100071874 359.655083453 683 393 683 c 0
 432 683 469 714 477 752 c 1
 477.769327165 756.286251345 478.140051851 760.475871786 478.140051851 764.538328504 c 0x3f40
 478.140051851 797.439595848 453.823652535 822 420 822 c 0
 381 822 344 791 337 752 c 0
279 752 m 1
 286 790 304 821 334 847 c 0
 364 874 397 888 433 888 c 0
 469 888 495 874 515 847 c 0
 529.954541697 827.559095793 537.64083808 805.32271262 537.64083808 779.454748343 c 0
 537.64083808 770.727250184 536.765910406 761.586370775 535 752 c 1
 527 715 508 683 478 656 c 0
 448 630 416 617 380 617 c 0
 344 617 317 630 297 656 c 0
 282.714285714 675.285714286 275.571428571 697.12244898 275.571428571 721.510204082 c 0
 275.571428571 731.265306122 276.714285714 741.428571429 279 752 c 1
EndSplineSet
Validated: 524289
EndChar

StartChar: ae
Encoding: 230 230 190
Width: 996
Flags: W
HStem: -14 108<114.235 280.73 576.772 787.283> 227 103<560 792.841> 249 97<204.618 389> 452 108<159.506 389.24 632.07 767.417>
VStem: 4.86282 159.138<109.139 211.797> 793.179 154.346<330.751 425.572>
LayerCount: 2
Fore
SplineSet
790 330 m 1xdc
 792.137167375 341.143801314 793.179070637 351.728318825 793.179070637 361.664617779 c 0
 793.179070637 416.818300529 761.077437186 452 706 452 c 0
 639 452 587 409 560 330 c 1
 790 330 l 1xdc
295 249 m 2xbc
 219 249 176 223 166 171 c 0
 164.65814976 164.559118846 164.000513105 158.460344485 164.000513105 152.727837763 c 0
 164.000513105 115.739431605 191.380176323 94 239 94 c 0
 308 94 370 150 384 225 c 1
 389 249 l 1
 295 249 l 2xbc
125 533 m 1
 201 552 272 560 331 560 c 0
 425 560 488 534 523 482 c 1
 582 532 651 560 728 560 c 0
 808 560 868 533 906 481 c 1
 933.451035742 445.806364433 947.525278053 400.70399299 947.525278053 347.08778343 c 0
 947.525278053 324.530831712 945.034163907 300.466946825 940 275 c 2
 931 227 l 1
 538 227 l 1xdc
 537.191452775 219.184043489 536.786454078 211.698996771 536.786454078 204.548485268 c 0
 536.786454078 132.106115232 578.354987995 94 663 94 c 0
 732 94 809 116 894 162 c 1
 869 32 l 1
 785 1 705 -14 627 -14 c 0
 515 -14 437 22 404 89 c 1
 328 18 253 -14 165 -14 c 0
 63.4696881961 -14 4.86282151275 37.2069169859 4.86282151275 121.323425801 c 0
 4.86282151275 134.139856091 6.22338929813 147.720287819 9 162 c 0
 34 289 125 346 302 346 c 2
 408 346 l 1
 411 365 l 1
 412.429778665 372.029745102 413.149742389 378.619404941 413.149742389 384.774053907 c 0
 413.149742389 430.274804069 373.800067125 452 291 452 c 0
 221 452 158 436 100 405 c 1
 125 533 l 1
EndSplineSet
Validated: 524289
Ligature2: "sous-table 'dpng' Dipthongs (Obsolete) dans Latin lookup 9" a e
EndChar

StartChar: ccedilla
Encoding: 231 231 191
Width: 564
Flags: W
HStem: -196 63<119.95 255.762> 444 116<293.984 474.469>
VStem: 23.6287 164.516<152.387 324.745> 270.561 59.7621<-116.099 -21.4744>
LayerCount: 2
Fore
SplineSet
540 532 m 1
 513 394 l 1
 475 429 434 444 386 444 c 0
 286 444 214 382 193 275 c 0
 189.74208482 258.245007644 188.144865288 242.597145721 188.144865288 228.116156459 c 0
 188.144865288 149.255005833 235.513881811 105 320 105 c 0
 372 105 422 122 467 155 c 1
 440 17 l 1
 393.347454052 1.17145762469 346.694908103 -7.71684226511 301.776897769 -10.24307819 c 1
 321.297188306 -40.6430640635 330.322675285 -67.3829880034 330.322675284 -91.9321665717 c 0
 330.322675284 -97.3910501724 329.876398411 -102.741609537 329 -108 c 0
 317 -167 275 -196 199 -196 c 0
 171 -196 140 -192 110 -184 c 1
 123 -117 l 1
 150 -129 175 -133 195 -133 c 0
 236 -133 264 -116 270 -85 c 0
 270.373066959 -83.0103095523 270.560561977 -80.8814401487 270.560561977 -78.6056994826 c 0
 270.560561977 -63.232156133 262.004140971 -41.1560754556 244.298441597 -10.0060280047 c 1
 102.185855673 -0.545229505275 23.6287123814 76.0667848016 23.6287123814 203.27641419 c 0
 23.6287123814 225.649231923 26.0586049705 249.587111277 31 275 c 0
 66 454 198 560 386 560 c 0
 440 560 491 551 540 532 c 1
EndSplineSet
Validated: 524289
EndChar

StartChar: egrave
Encoding: 232 232 192
Width: 644
Flags: W
HStem: -14 107<221.546 434.176> 225 102<203 438.837> 448 108<275.03 413.031>
VStem: 22.5713 157.28<133.264 224.719> 439.176 155.859<327.718 421.973>
LayerCount: 2
Fore
SplineSet
588 273 m 1
 578 225 l 1
 181 225 l 1
 180.233384911 217.589387474 179.851313412 210.483507605 179.851313412 203.684214461 c 0
 179.851313412 130.660348386 223.921689252 93 309 93 c 0
 378 93 456 115 542 161 c 1
 517 31 l 1
 432 1 351 -14 272 -14 c 0
 111.603903643 -14 22.5713020803 63.2491438503 22.5713020803 198.816245729 c 0
 22.5713020803 221.301918369 25.020659746 245.391964408 30 271 c 0
 47 359 86 428 147 479 c 0
 207 529 284 556 373 556 c 0
 454 556 514 529 552 478 c 1
 581.04549703 441.870235402 595.034939966 397.208706818 595.034939966 343.659877195 c 0
 595.034939966 321.620328616 592.665171891 298.075298913 588 273 c 1
436 327 m 1
 438.133531452 338.124842569 439.175522325 348.669078448 439.175522325 358.551304548 c 0
 439.175522325 413.515165108 406.941923157 448 351 448 c 0
 282 448 229 406 203 327 c 1
 436 327 l 1
362 800 m 1
 458 620 l 1
 375 620 l 1
 238 800 l 1
 362 800 l 1
EndSplineSet
Validated: 524289
EndChar

StartChar: eacute
Encoding: 233 233 193
Width: 644
Flags: W
HStem: -14 107<221.546 434.176> 225 102<203 438.837> 448 108<275.03 413.031>
VStem: 22.5713 157.28<133.264 224.719> 439.176 155.859<327.718 421.973>
LayerCount: 2
Fore
SplineSet
588 273 m 1
 578 225 l 1
 181 225 l 1
 180.233384911 217.589387474 179.851313412 210.483507605 179.851313412 203.684214461 c 0
 179.851313412 130.660348386 223.921689252 93 309 93 c 0
 378 93 456 115 542 161 c 1
 517 31 l 1
 432 1 351 -14 272 -14 c 0
 111.603903643 -14 22.5713020803 63.2491438503 22.5713020803 198.816245729 c 0
 22.5713020803 221.301918369 25.020659746 245.391964408 30 271 c 0
 47 359 86 428 147 479 c 0
 207 529 284 556 373 556 c 0
 454 556 514 529 552 478 c 1
 581.04549703 441.870235402 595.034939966 397.208706818 595.034939966 343.659877195 c 0
 595.034939966 321.620328616 592.665171891 298.075298913 588 273 c 1
436 327 m 1
 438.133531452 338.124842569 439.175522325 348.669078448 439.175522325 358.551304548 c 0
 439.175522325 413.515165108 406.941923157 448 351 448 c 0
 282 448 229 406 203 327 c 1
 436 327 l 1
498 800 m 1
 622 800 l 1
 416 620 l 1
 332 620 l 1
 498 800 l 1
EndSplineSet
Validated: 524289
EndChar

StartChar: ecircumflex
Encoding: 234 234 194
Width: 644
Flags: W
HStem: -14 107<222.609 434.176> 226 102<203 438.869> 449 107<275.316 413.068>
VStem: 22.5713 157.487<133.836 225.788> 439.176 155.859<328.272 422.534>
LayerCount: 2
Fore
SplineSet
588 273 m 1
 578 226 l 1
 181 226 l 1
 180.372065807 219.171215653 180.058340503 212.595030609 180.058340503 206.27386279 c 0
 180.058340503 132.062160878 223.299734992 93 309 93 c 0
 378 93 456 115 542 161 c 1
 517 31 l 1
 432 1 351 -14 272 -14 c 0
 111.603903643 -14 22.5713020803 63.2491438503 22.5713020803 198.816245729 c 0
 22.5713020803 221.301918369 25.020659746 245.391964408 30 271 c 0
 47 359 86 429 147 479 c 0
 208 530 284 556 373 556 c 0
 454 556 515 530 552 478 c 1
 581.04549703 442.578662159 595.034939966 397.621823392 595.034939966 343.840557804 c 0
 595.034939966 321.705343572 592.665171891 298.075298913 588 273 c 1
436 328 m 1
 438.133531452 338.972447466 439.175522325 349.410736776 439.175522325 359.222847049 c 0
 439.175522325 413.796731048 406.941923157 449 351 449 c 0
 282 449 230 407 203 328 c 1
 436 328 l 1
376 800 m 1
 484 800 l 1
 568 621 l 1
 493 621 l 1
 417 734 l 1
 298 621 l 1
 223 621 l 1
 376 800 l 1
EndSplineSet
Validated: 524289
EndChar

StartChar: edieresis
Encoding: 235 235 195
Width: 644
Flags: W
HStem: -14 107<222.609 434.176> 226 102<203 438.837> 449 107<275.316 413.07> 661 113<281 359 469 547>
VStem: 22.5713 157.487<133.836 225.788> 439.176 155.884<328.42 422.913>
LayerCount: 2
Fore
SplineSet
588 273 m 1
 578 226 l 1
 181 226 l 1
 180.372065807 219.171215653 180.058340503 212.595030609 180.058340503 206.27386279 c 0
 180.058340503 132.062160878 223.299734992 93 309 93 c 0
 378 93 456 115 542 161 c 1
 517 31 l 1
 432 1 351 -14 272 -14 c 0
 111.603903643 -14 22.5713020803 63.2491438503 22.5713020803 198.816245729 c 0
 22.5713020803 221.301918369 25.020659746 245.391964408 30 271 c 0
 47 359 86 429 147 480 c 0
 208 530 284 556 373 556 c 0
 454 556 515 530 553 479 c 1
 581.275431035 442.948825431 595.059924566 397.903275859 595.059924566 344.216573272 c 0
 595.059924566 321.955075428 592.689827586 298.207823276 588 273 c 1
436 328 m 1
 438.133531452 339.124842569 439.175522325 349.669078448 439.175522325 359.551304548 c 0
 439.175522325 414.515165108 406.941923157 449 351 449 c 0
 282 449 230 407 203 328 c 1
 436 328 l 1
281 774 m 1
 381 774 l 1
 359 661 l 1
 259 661 l 1
 281 774 l 1
469 774 m 1
 569 774 l 1
 547 661 l 1
 447 661 l 1
 469 774 l 1
EndSplineSet
Validated: 524289
EndChar

StartChar: igrave
Encoding: 236 236 196
Width: 326
Flags: W
HStem: 0 21G<21 186.86>
VStem: 21 277
LayerCount: 2
Fore
SplineSet
126 544 m 1
 288 544 l 1
 183 0 l 1
 21 0 l 1
 126 544 l 1
199 800 m 1
 298 620 l 1
 212 620 l 1
 72 800 l 1
 199 800 l 1
EndSplineSet
Validated: 1
EndChar

StartChar: iacute
Encoding: 237 237 197
Width: 326
Flags: W
HStem: 0 21G<17 182.86>
LayerCount: 2
Fore
SplineSet
122 544 m 1
 284 544 l 1
 179 0 l 1
 17 0 l 1
 122 544 l 1
334 800 m 1
 460 800 l 1
 250 620 l 1
 165 620 l 1
 334 800 l 1
EndSplineSet
Validated: 1
EndChar

StartChar: icircumflex
Encoding: 238 238 198
Width: 326
Flags: W
HStem: 0 21G<19 183.86>
LayerCount: 2
Fore
SplineSet
124 544 m 1
 285 544 l 1
 180 0 l 1
 19 0 l 1
 124 544 l 1
211 800 m 1
 320 800 l 1
 406 621 l 1
 329 621 l 1
 253 734 l 1
 132 621 l 1
 56 621 l 1
 211 800 l 1
EndSplineSet
Validated: 1
EndChar

StartChar: idieresis
Encoding: 239 239 199
Width: 325
Flags: W
HStem: 0 21G<18 182.853> 661 113<114 193 304 384>
LayerCount: 2
Fore
SplineSet
123 545 m 1
 284 545 l 1
 179 0 l 1
 18 0 l 1
 123 545 l 1
114 774 m 1
 215 774 l 1
 193 661 l 1
 92 661 l 1
 114 774 l 1
304 774 m 1
 406 774 l 1
 384 661 l 1
 282 661 l 1
 304 774 l 1
EndSplineSet
Validated: 1
EndChar

StartChar: eth
Encoding: 240 240 200
Width: 653
Flags: W
HStem: -14 116<219.571 355.652> 394 117<262.415 418.316> 557 21G<157.596 222.39> 740 20G<240 412.576 564.172 630.034>
VStem: 22.3783 163.17<137.639 311.945> 444.4 164.067<220.902 369.156>
LayerCount: 2
Fore
SplineSet
442 365 m 1
 409 384 376 394 340 394 c 0
 261 394 207 346 191 263 c 0
 187.332495807 244.662479036 185.548073795 227.636390304 185.548073795 212.057391537 c 0
 185.548073795 142.679438942 220.936515933 102 283 102 c 0
 362 102 418 162 439 271 c 0
 442.6 289.6 444.4 308.2 444.4 327.016 c 0
 444.4 339.56 443.6 352.2 442 365 c 1
547 535 m 2
 588.381231444 469.972350588 608.466593527 409.313084635 608.466593527 343.338143911 c 0
 608.466593527 320.031143242 605.959939331 296.060746096 601 271 c 0
 566 92 439 -14 261 -14 c 0
 108.145779218 -14 22.378290392 63.2955824709 22.378290392 197.337914856 c 0
 22.378290392 220.265912594 24.8876968009 244.854220782 30 271 c 0
 59 421 175 511 338 511 c 0
 370 511 395 508 419 500 c 1
 346 616 l 1
 159 557 l 1
 155 614 l 1
 312 663 l 1
 240 760 l 1
 398 760 l 1
 441 701 l 1
 629 759 l 1
 632 701 l 1
 471 653 l 1
 547 535 l 2
EndSplineSet
Validated: 524289
EndChar

StartChar: ntilde
Encoding: 241 241 201
Width: 676
Flags: W
HStem: 0 21G<17 178.881 381 542.844> 434 123<365.511 514.09> 647 66<445.268 526.274> 711 67<322.62 404.438>
VStem: 252 54<647 693.137> 448.444 162.883<264.097 418.912> 544 54<731.476 778>
LayerCount: 2
Fore
SplineSet
603 333 m 2xcc
 539 0 l 1
 381 0 l 1
 390 51 l 1
 430 254 l 2
 439 302 445 336 447 353 c 0
 448 359 448.444444444 364.666666667 448.444444444 369.888888889 c 0
 448.444444444 380.333333333 446.666666667 389 444 395 c 0
 435 420 410 434 379 434 c 0
 304 434 247 372 227 268 c 2
 175 0 l 1
 17 0 l 1
 122 545 l 1
 280 545 l 1
 264 463 l 1
 330 528 394 557 466 557 c 0
 562.180901983 557 611.327332865 506.699246185 611.327332865 409.793668174 c 0
 611.327332865 386.80263942 608.56095666 361.188297551 603 333 c 2xcc
423 674 m 2
 401 692 l 2
 400 693 397 694 396 695 c 0
 381 706 370 711 361 711 c 0xda
 335 711 314 689 306 647 c 1
 252 647 l 1xea
 268 730 311 778 366 778 c 0xda
 386 778 406 770 426 751 c 1
 452 729 l 1
 467 719 479 713 488 713 c 0xea
 517 713 536 738 544 778 c 1
 598 778 l 1xda
 581 694 540 647 484 647 c 0xea
 463 647 447 654 423 674 c 2
EndSplineSet
Validated: 524289
EndChar

StartChar: ograve
Encoding: 242 242 202
Width: 653
Flags: W
HStem: -14 116<218.324 355.652> 439 117<276.211 413.655>
VStem: 22.3783 163.342<133.512 320.944> 445.288 163.395<220.902 405.486>
LayerCount: 2
Fore
SplineSet
349 439 m 0
 269 439 213 380 192 271 c 0
 187.8 249.2 185.72 229.36 185.72 211.568 c 0
 185.72 140.4 219 102 283 102 c 0
 362 102 418 162 439 271 c 0
 443.208108289 292.842085883 445.288023166 312.676442132 445.288023166 330.430650943 c 0
 445.288023166 401.276439896 412.169497387 439 349 439 c 0
372 556 m 0
 523.793850259 556 608.683069984 478.187005792 608.683069984 344.886714304 c 0
 608.683069984 321.873348523 606.152894612 297.206149741 601 271 c 0
 566 92 439 -14 261 -14 c 0
 108.145779218 -14 22.378290392 63.2955824709 22.378290392 197.337914856 c 0
 22.378290392 220.265912594 24.8876968009 244.854220782 30 271 c 0
 65 449 193 556 372 556 c 0
361 800 m 1
 458 620 l 1
 374 620 l 1
 237 800 l 1
 361 800 l 1
EndSplineSet
Validated: 524289
EndChar

StartChar: oacute
Encoding: 243 243 203
Width: 653
Flags: W
HStem: -14 116<218.324 355.652> 439 117<276.211 413.655>
VStem: 22.3783 163.342<133.512 320.944> 445.288 163.395<220.902 405.486>
LayerCount: 2
Fore
SplineSet
349 439 m 0
 269 439 213 380 192 271 c 0
 187.8 249.2 185.72 229.36 185.72 211.568 c 0
 185.72 140.4 219 102 283 102 c 0
 362 102 418 162 439 271 c 0
 443.208108289 292.842085883 445.288023166 312.676442132 445.288023166 330.430650943 c 0
 445.288023166 401.276439896 412.169497387 439 349 439 c 0
372 556 m 0
 523.793850259 556 608.683069984 478.187005792 608.683069984 344.886714304 c 0
 608.683069984 321.873348523 606.152894612 297.206149741 601 271 c 0
 566 92 439 -14 261 -14 c 0
 108.145779218 -14 22.378290392 63.2955824709 22.378290392 197.337914856 c 0
 22.378290392 220.265912594 24.8876968009 244.854220782 30 271 c 0
 65 449 193 556 372 556 c 0
498 800 m 1
 622 800 l 1
 415 620 l 1
 331 620 l 1
 498 800 l 1
EndSplineSet
Validated: 524289
EndChar

StartChar: ocircumflex
Encoding: 244 244 204
Width: 653
Flags: W
HStem: -14 116<218.324 355.652> 440 116<276.211 413.655>
VStem: 22.3783 163.342<133.512 321.098> 445.288 163.395<220.902 406.01>
LayerCount: 2
Fore
SplineSet
349 440 m 0
 269 440 213 380 192 271 c 0
 187.8 249.2 185.72 229.36 185.72 211.568 c 0
 185.72 140.4 219 102 283 102 c 0
 362 102 418 162 439 271 c 0
 443.208108289 292.842085883 445.288023166 312.716596725 445.288023166 330.535021876 c 0
 445.288023166 401.637057521 412.169497387 440 349 440 c 0
372 556 m 0
 523.793850259 556 608.683069984 478.914230037 608.683069984 345.207912295 c 0
 608.683069984 322.124448913 606.152894612 297.353375301 601 271 c 0
 566 92 439 -14 261 -14 c 0
 108.145779218 -14 22.378290392 63.2955824709 22.378290392 197.337914856 c 0
 22.378290392 220.265912594 24.8876968009 244.854220782 30 271 c 0
 65 450 193 556 372 556 c 0
376 800 m 1
 483 800 l 1
 567 621 l 1
 492 621 l 1
 416 734 l 1
 297 621 l 1
 222 621 l 1
 376 800 l 1
EndSplineSet
Validated: 524289
EndChar

StartChar: otilde
Encoding: 245 245 205
Width: 653
Flags: W
HStem: -14 116<218.324 355.652> 441 116<276.328 413.684> 646 67<433.259 514.999> 711 67<309.62 391.223>
VStem: 22.3783 163.342<133.512 321.442> 239 54<646 695.629> 445.674 163.009<220.902 409.598> 532 54<731.369 778>
LayerCount: 2
Fore
SplineSet
349 441 m 0xce
 269 441 214 381 192 271 c 0
 187.8 249.2 185.72 229.36 185.72 211.568 c 0
 185.72 140.4 219 102 283 102 c 0
 362 102 418 162 439 271 c 0
 443.474457406 293.372287028 445.673827416 313.676312788 445.673827416 331.827946854 c 0
 445.673827416 402.924217782 411.932630225 441 349 441 c 0xce
372 557 m 0
 523.793850259 557 608.683069984 479.914230037 608.683069984 345.587754047 c 0
 608.683069984 322.397224668 606.152894612 297.500600862 601 271 c 0
 566 92 439 -14 261 -14 c 0
 108.145779218 -14 22.378290392 63.2955824709 22.378290392 197.337914856 c 0
 22.378290392 220.265912594 24.8876968009 244.854220782 30 271 c 0
 65 451 193 557 372 557 c 0
410 674 m 1
 388 692 l 2
 387 693 384 694 383 695 c 0
 369 706 357 711 348 711 c 0xdd
 322 711 301 689 293 646 c 1
 239 646 l 1xed
 255 730 298 778 353 778 c 0xdd
 374 778 393 770 414 751 c 2
 440 729 l 1
 454 719 466 713 476 713 c 0xed
 504 713 524 737 532 778 c 1
 586 778 l 1xdd
 569 694 527 646 472 646 c 0xed
 450 646 434 653 410 674 c 1
EndSplineSet
Validated: 524289
EndChar

StartChar: odieresis
Encoding: 246 246 206
Width: 653
Flags: W
HStem: -14 116<218.324 355.652> 440 116<276.211 413.655> 661 113<280 359 468 547>
VStem: 22.3783 163.342<133.512 321.098> 445.288 163.395<220.902 406.01>
LayerCount: 2
Fore
SplineSet
349 440 m 0
 269 440 213 380 192 271 c 0
 187.8 249.2 185.72 229.36 185.72 211.568 c 0
 185.72 140.4 219 102 283 102 c 0
 362 102 418 162 439 271 c 0
 443.208108289 292.842085883 445.288023166 312.716596725 445.288023166 330.535021876 c 0
 445.288023166 401.637057521 412.169497387 440 349 440 c 0
372 556 m 0
 523.793850259 556 608.683069984 478.914230037 608.683069984 345.207912295 c 0
 608.683069984 322.124448913 606.152894612 297.353375301 601 271 c 0
 566 92 439 -14 261 -14 c 0
 108.145779218 -14 22.378290392 63.2955824709 22.378290392 197.337914856 c 0
 22.378290392 220.265912594 24.8876968009 244.854220782 30 271 c 0
 65 450 193 556 372 556 c 0
280 774 m 1
 381 774 l 1
 359 661 l 1
 258 661 l 1
 280 774 l 1
468 774 m 1
 569 774 l 1
 547 661 l 1
 446 661 l 1
 468 774 l 1
EndSplineSet
Validated: 524289
EndChar

StartChar: divide
Encoding: 247 247 207
Width: 797
Flags: W
HStem: 42 145<305 411> 259 108<109 683> 440 145<382 488>
LayerCount: 2
Fore
SplineSet
305 187 m 1
 439 187 l 1
 411 42 l 1
 277 42 l 1
 305 187 l 1
382 585 m 1
 516 585 l 1
 488 440 l 1
 354 440 l 1
 382 585 l 1
109 367 m 1
 704 367 l 1
 683 259 l 1
 88 259 l 1
 109 367 l 1
EndSplineSet
Validated: 1
EndChar

StartChar: oslash
Encoding: 248 248 208
Width: 653
Flags: W
HStem: -13 117<218.343 356.082> 443 117<276.758 412.734>
VStem: 23.0367 165.578<173.643 323.455> 443.885 165.559<222.889 371.39>
LayerCount: 2
Fore
SplineSet
423 410 m 1
 407 434 383 443 350 443 c 0
 270 443 214 383 193 273 c 0
 189.830678732 257.681613873 188.614473606 244.037327295 188.614473606 231.772375861 c 0
 188.614473606 220.817936647 189.584660634 210.963815985 191 202 c 1
 423 410 l 1
207 138 m 1
 224 115 250 104 284 104 c 0
 363 104 418 164 440 273 c 0
 442.836786492 287.656730206 443.885271295 300.525158724 443.885271295 312.133726186 c 0
 443.885271295 325.078083302 442.581606754 336.455954972 441 347 c 1
 207 138 l 1
56 74 m 1
 33.9246539994 108.785393698 23.0366565076 149.835702561 23.0366565076 197.450277606 c 0
 23.0366565076 221.013793108 25.7031980609 246.184940183 31 273 c 0
 66 453 193 560 372 560 c 0
 439 560 495 546 536 516 c 1
 621 594 l 1
 656 550 l 1
 574 475 l 1
 597.411636375 439.193967897 609.443936049 396.275850355 609.443936049 345.919165889 c 0
 609.443936049 323.144385112 606.982759353 298.848064143 602 273 c 0
 567 94 439 -13 261 -13 c 0
 193 -13 138 2 94 32 c 1
 10 -46 l 1
 -28 -4 l 1
 56 74 l 1
EndSplineSet
Validated: 524289
EndChar

StartChar: ugrave
Encoding: 249 249 209
Width: 676
Flags: W
HStem: -14 123<141.528 289.174> -1 21G<373 535.897>
VStem: 43.2316 162.296<125.629 281.91>
LayerCount: 2
Fore
SplineSet
51 210 m 2xa0
 116 543 l 1
 273 543 l 1
 263 492 l 2
 257 463 250 424 239 379 c 1
 222 289 l 2
 210.496575182 230.843796752 205.527905057 196.37607927 205.527905057 174.373241472 c 0
 205.527905057 161.947108192 207.112633253 153.496575182 210 147 c 0
 221 123 243 109 276 109 c 0xa0
 350 109 407 171 427 275 c 2
 479 543 l 1
 638 543 l 1
 532 -1 l 1
 373 -1 l 1x60
 389 80 l 1
 324 15 261 -14 190 -14 c 0
 93.0555191074 -14 43.2316157633 37.7662682926 43.2316157633 135.892153286 c 0
 43.2316157633 158.216449744 45.8104660924 182.940287482 51 210 c 2xa0
373 800 m 1
 469 620 l 1
 386 620 l 1
 249 800 l 1
 373 800 l 1
EndSplineSet
Validated: 524289
EndChar

StartChar: uacute
Encoding: 250 250 210
Width: 676
Flags: W
HStem: -14 123<141.528 289.174> -1 21G<373 535.897>
VStem: 43.2316 162.296<125.629 281.91>
LayerCount: 2
Fore
SplineSet
51 210 m 2xa0
 116 543 l 1
 273 543 l 1
 263 492 l 2
 257 463 250 424 239 379 c 1
 222 289 l 2
 210.496575182 230.843796752 205.527905057 196.37607927 205.527905057 174.373241472 c 0
 205.527905057 161.947108192 207.112633253 153.496575182 210 147 c 0
 221 123 243 109 276 109 c 0xa0
 350 109 407 171 427 275 c 2
 479 543 l 1
 638 543 l 1
 532 -1 l 1
 373 -1 l 1x60
 389 80 l 1
 324 15 261 -14 190 -14 c 0
 93.0555191074 -14 43.2316157633 37.7662682926 43.2316157633 135.892153286 c 0
 43.2316157633 158.216449744 45.8104660924 182.940287482 51 210 c 2xa0
509 800 m 1
 633 800 l 1
 426 620 l 1
 343 620 l 1
 509 800 l 1
EndSplineSet
Validated: 524289
EndChar

StartChar: ucircumflex
Encoding: 251 251 211
Width: 676
Flags: W
HStem: -14 123<141.528 289.174> -1 21G<373 535.89>
VStem: 43.2316 162.296<125.751 282.02>
LayerCount: 2
Fore
SplineSet
51 210 m 2xa0
 116 544 l 1
 273 544 l 1
 263 493 l 2
 257 463 250 425 239 379 c 1
 222 289 l 2
 210.496575182 230.843796752 205.527905057 196.37607927 205.527905057 174.634255567 c 0
 205.527905057 162.35553036 207.112633253 154.135654338 210 148 c 0
 221 123 243 109 276 109 c 0xa0
 350 109 407 171 427 275 c 2
 479 544 l 1
 638 544 l 1
 532 -1 l 1
 373 -1 l 1x60
 389 80 l 1
 324 15 261 -14 190 -14 c 0
 93.0555191074 -14 43.2316157633 37.7662682926 43.2316157633 135.892153286 c 0
 43.2316157633 158.216449744 45.8104660924 182.940287482 51 210 c 2xa0
388 800 m 1
 495 800 l 1
 578 621 l 1
 503 621 l 1
 428 734 l 1
 309 621 l 1
 234 621 l 1
 388 800 l 1
EndSplineSet
Validated: 524289
EndChar

StartChar: udieresis
Encoding: 252 252 212
Width: 676
Flags: W
HStem: -14 123<141.528 289.174> -1 21G<373 535.89> 661 113<292 370 480 558>
VStem: 43.2316 162.296<125.751 282.02>
LayerCount: 2
Fore
SplineSet
51 210 m 2xb0
 116 544 l 1
 273 544 l 1
 263 493 l 2
 257 463 250 425 239 379 c 1
 222 289 l 2
 210.496575182 230.843796752 205.527905057 196.37607927 205.527905057 174.634255567 c 0
 205.527905057 162.35553036 207.112633253 154.135654338 210 148 c 0
 221 123 243 109 276 109 c 0xb0
 350 109 407 171 427 275 c 2
 479 544 l 1
 638 544 l 1
 532 -1 l 1
 373 -1 l 1x70
 389 80 l 1
 324 15 261 -14 190 -14 c 0
 93.0555191074 -14 43.2316157633 37.7662682926 43.2316157633 135.892153286 c 0
 43.2316157633 158.216449744 45.8104660924 182.940287482 51 210 c 2xb0
292 774 m 1
 392 774 l 1
 370 661 l 1
 270 661 l 1
 292 774 l 1
480 774 m 1
 580 774 l 1
 558 661 l 1
 458 661 l 1
 480 774 l 1
EndSplineSet
Validated: 524289
EndChar

StartChar: yacute
Encoding: 253 253 213
Width: 619
Flags: W
HStem: -216 107<11 139.108>
LayerCount: 2
Fore
SplineSet
53 544 m 1
 213 544 l 1
 287 169 l 1
 486 544 l 1
 644 544 l 1
 305 -53 l 2
 271 -114 237 -155 204 -179 c 0
 170 -204 131 -216 83 -216 c 2
 -9 -216 l 1
 11 -109 l 1
 59 -109 l 2
 121 -109 147 -93 174 -41 c 1
 182 -24 l 1
 53 544 l 1
470 800 m 1
 593 800 l 1
 387 621 l 1
 304 621 l 1
 470 800 l 1
EndSplineSet
Validated: 1
EndChar

StartChar: thorn
Encoding: 254 254 214
Width: 680
Flags: W
HStem: -208 21G<-24 137.918> -11 118<259.69 385.798> 440 118<361.736 496.5> 740 20G<160.116 322>
VStem: 473.402 161.904<220.917 409.43>
LayerCount: 2
Fore
SplineSet
191 83 m 1
 134 -208 l 1
 -24 -208 l 1
 164 760 l 1
 322 760 l 1
 265 464 l 1
 326 528 388 558 465 558 c 0
 528 558 576 531 605 478 c 1
 625.297713144 443.952223113 635.306215245 402.616255069 635.306215245 354.553513757 c 0
 635.306215245 329.211681358 632.523760958 301.999745028 627 273 c 0
 610 189 577 120 526 68 c 0
 475 15 417 -11 354 -11 c 0
 277 -11 227 18 191 83 c 1
379 440 m 0
 302 440 249 381 228 273 c 0
 223.640987887 250.582223418 221.479368782 230.318753707 221.479368782 212.281138675 c 0
 221.479368782 143.420643345 252.983044415 107 314 107 c 0
 392 107 446 165 467 273 c 0
 471.282368778 295.02361086 473.402353243 315.009590347 473.402353243 332.873138763 c 0
 473.402353243 402.609359578 441.094058824 440 379 440 c 0
EndSplineSet
Validated: 524289
EndChar

StartChar: ydieresis
Encoding: 255 255 215
Width: 619
Flags: W
HStem: -216 107<11 139.108> 661 113<253 331 441 519>
LayerCount: 2
Fore
SplineSet
53 545 m 1
 213 545 l 1
 288 170 l 1
 486 545 l 1
 644 545 l 1
 305 -53 l 2
 271 -114 237 -155 204 -180 c 1
 170 -204 131 -216 83 -216 c 2
 -9 -216 l 1
 11 -109 l 1
 59 -109 l 2
 121 -109 147 -93 174 -41 c 1
 182 -24 l 1
 53 545 l 1
253 774 m 1
 353 774 l 1
 331 661 l 1
 231 661 l 1
 253 774 l 1
441 774 m 1
 541 774 l 1
 519 661 l 1
 419 661 l 1
 441 774 l 1
EndSplineSet
Validated: 1
EndChar

StartChar: fraction
Encoding: 8260 8260 216
Width: 159
Flags: W
HStem: -14 21G<-255 -144.418> 722 20G<317.444 429>
LayerCount: 2
Fore
SplineSet
-160 -14 m 1
 -255 -14 l 1
 333 742 l 1
 429 742 l 1
 -160 -14 l 1
EndSplineSet
Validated: 1
EndChar

StartChar: fi
Encoding: 64257 64257 217
Width: 704
Flags: W
HStem: 0 21G<40 201.879 403 564.876> 428 119<63 123 304 486> 624 136<550 682> 653 107<332.664 482>
LayerCount: 2
Fore
SplineSet
550 760 m 1xe0
 708 760 l 1xd0
 682 624 l 1
 524 624 l 1
 550 760 l 1xe0
503 760 m 1
 482 653 l 1
 394 653 l 2
 343 653 321 636 312 588 c 2
 304 547 l 1
 667 547 l 1
 561 0 l 1
 403 0 l 1
 486 428 l 1
 281 428 l 1
 198 0 l 1
 40 0 l 1
 123 428 l 1
 40 428 l 1
 63 547 l 1
 146 547 l 1
 154 588 l 2
 177 705 248 760 379 760 c 2
 503 760 l 1
EndSplineSet
Validated: 1
Ligature2: "sous-table 'liga' Ligatures standard dans Latin lookup 6" f i
EndChar

StartChar: fl
Encoding: 64258 64258 218
Width: 704
Flags: W
HStem: 0 21G<39 199.879 403 564.868> 428 119<61 122 302 413> 653 107<331.664 529>
LayerCount: 2
Fore
SplineSet
378 760 m 2
 708 760 l 1
 561 0 l 1
 403 0 l 1
 529 653 l 1
 393 653 l 2
 341 653 319 636 310 588 c 2
 302 547 l 1
 436 547 l 1
 413 428 l 1
 279 428 l 1
 196 0 l 1
 39 0 l 1
 122 428 l 1
 38 428 l 1
 61 547 l 1
 145 547 l 1
 153 588 l 2
 176 705 247 760 378 760 c 2
EndSplineSet
Validated: 1
Ligature2: "sous-table 'liga' Ligatures standard dans Latin lookup 7" f l
EndChar

StartChar: breve
Encoding: 728 728 219
Width: 475
Flags: W
HStem: 639 69<245.96 385.411>
VStem: 168.534 60.2483<726.891 784> 424 58<747.229 784>
LayerCount: 2
Fore
SplineSet
171 784 m 1
 229 784 l 1
 228.854725243 781.627178973 228.782144642 779.305947347 228.782144642 777.036872898 c 0
 228.782144642 732.448368643 256.808645297 708 312 708 c 0
 369 708 407 735 424 784 c 1
 482 784 l 1
 460 691 394 639 299 639 c 0
 214.311059078 639 168.533884185 679.468236671 168.533884185 752.852760262 c 0
 168.533884185 762.65400081 169.350470551 773.042411519 171 784 c 1
EndSplineSet
Validated: 524289
EndChar

StartChar: dotaccent
Encoding: 729 729 220
Width: 478
Flags: W
HStem: 654 120<262 367>
VStem: 239 151
LayerCount: 2
Fore
SplineSet
262 774 m 1
 390 774 l 1
 367 654 l 1
 239 654 l 1
 262 774 l 1
EndSplineSet
Validated: 1
EndChar

StartChar: ring
Encoding: 730 730 221
Width: 474
Flags: W
HStem: 610 67<257.675 360.78> 821 67<277.821 379.752>
VStem: 184.03 60.6001<689.702 787.69> 393.37 60.4193<709.4 807.698>
LayerCount: 2
Fore
SplineSet
246 749 m 0
 245.073885029 744.253660772 244.630220086 739.64133544 244.630220086 735.195603479 c 0
 244.630220086 701.238052052 270.514810485 677 305 677 c 0
 345 677 385 710 392 749 c 0
 392.926114971 753.514810485 393.369779914 757.949212633 393.369779914 762.261318548 c 0
 393.369779914 795.198202654 367.485189515 821 333 821 c 0
 293 821 254 788 246 749 c 0
187 749 m 0
 194 787 213 819 244 846 c 0
 274 873 309 888 346 888 c 0
 383 888 411 873 431 846 c 0
 446.458632786 826.124614989 453.78905715 803.539827171 453.78905715 777.846744516 c 0
 453.78905715 768.636692902 452.847122405 759.027235911 451 749 c 0
 444 711 424 677 393 650 c 0
 363 623 329 610 292 610 c 0
 255 610 226 623 206 650 c 0
 190.853104505 669.474579922 184.030143455 692.590881163 184.030143455 718.223173679 c 0
 184.030143455 728.128073785 185.048965165 738.408668038 187 749 c 0
EndSplineSet
Validated: 524289
EndChar

StartChar: hungarumlaut
Encoding: 733 733 222
Width: 474
Flags: W
HStem: 616 184
LayerCount: 2
Fore
SplineSet
271 800 m 1
 365 800 l 1
 213 616 l 1
 145 616 l 1
 271 800 l 1
446 800 m 1
 546 800 l 1
 382 616 l 1
 309 616 l 1
 446 800 l 1
EndSplineSet
Validated: 1
EndChar

StartChar: ogonek
Encoding: 731 731 223
Width: 476
Flags: W
HStem: -196 65<149.388 258.204> -20 20G<124 206>
VStem: 71.9256 72.0233<-152.512 -62.762>
LayerCount: 2
Fore
SplineSet
146 0 m 1
 206 0 l 1
 163 -44 148 -65 145 -81 c 0
 144.294946129 -84.5252693539 143.948909619 -87.9124551077 143.948909619 -91.1453311984 c 0
 143.948909619 -115.424191938 163.465341182 -131 197 -131 c 0
 220 -131 245 -126 273 -113 c 1
 258 -187 l 1
 222 -193 193 -196 167 -196 c 0
 104.951956653 -196 71.9256288309 -173.088119322 71.9256288309 -131.936405647 c 0
 71.9256288309 -125.999258605 72.6130771383 -119.682446516 74 -113 c 0
 81 -76 102 -42 146 0 c 1
EndSplineSet
Validated: 524289
EndChar

StartChar: caron
Encoding: 711 711 224
Width: 476
Flags: W
HStem: 616 184
LayerCount: 2
Fore
SplineSet
240 616 m 1
 155 800 l 1
 231 800 l 1
 307 683 l 1
 429 800 l 1
 505 800 l 1
 348 616 l 1
 240 616 l 1
EndSplineSet
Validated: 1
EndChar

StartChar: Lslash
Encoding: 321 321 225
Width: 610
Flags: W
HStem: 0 136<227 521> 709 20G<166.154 342>
LayerCount: 2
Fore
SplineSet
170 729 m 1
 342 729 l 1
 302 524 l 1
 445 614 l 1
 489 525 l 1
 277 391 l 1
 227 136 l 1
 547 136 l 1
 521 0 l 1
 29 0 l 1
 79 259 l 1
 -5 207 l 1
 -49 295 l 1
 105 391 l 1
 170 729 l 1
EndSplineSet
Validated: 1
Position2: "sous-table 'cpsp' Chasses pour composition en capitales dans Latin lookup 1" dx=5 dy=0 dh=10 dv=0
EndChar

StartChar: dotlessi
Encoding: 305 305 226
Width: 326
Flags: W
HStem: 0 21G<17 186.876> 527 20G<119.124 289>
VStem: 17 272
LayerCount: 2
Fore
SplineSet
123 547 m 1
 289 547 l 1
 183 0 l 1
 17 0 l 1
 123 547 l 1
EndSplineSet
Validated: 1
EndChar

StartChar: lslash
Encoding: 322 322 227
Width: 353
Flags: W
HStem: 0 21G<31 197.852> 535 20G<333.116 377.714> 740 20G<174.119 341>
LayerCount: 2
Fore
SplineSet
178 760 m 1
 341 760 l 1
 293 512 l 1
 368 555 l 1
 402 485 l 1
 272 405 l 1
 194 0 l 1
 31 0 l 1
 92 316 l 1
 20 275 l 1
 -13 345 l 1
 113 425 l 1
 178 760 l 1
EndSplineSet
Validated: 1
EndChar

StartChar: Zcaron
Encoding: 381 381 228
Width: 690
Flags: W
HStem: 0 136<219 584> 591 136<131 474>
LayerCount: 2
Fore
SplineSet
131 727 m 1
 713 727 l 1
 692 618 l 1
 219 136 l 1
 610 136 l 1
 584 0 l 1
 -20 0 l 1
 1 109 l 1
 474 591 l 1
 104 591 l 1
 131 727 l 1
357 806 m 1
 279 927 l 1
 353 927 l 1
 434 846 l 1
 547 927 l 1
 622 927 l 1
 496 806 l 1
 357 806 l 1
EndSplineSet
Validated: 1
Position2: "sous-table 'cpsp' Chasses pour composition en capitales dans Latin lookup 1" dx=5 dy=0 dh=10 dv=0
EndChar

StartChar: zcaron
Encoding: 382 382 229
Width: 553
Flags: W
HStem: 0 119<186 444> 425 119<96 344>
LayerCount: 2
Fore
SplineSet
96 544 m 1
 549 544 l 1
 527 427 l 1
 186 119 l 1
 467 119 l 1
 444 0 l 1
 -20 0 l 1
 2 117 l 1
 344 425 l 1
 73 425 l 1
 96 544 l 1
280 622 m 1
 196 800 l 1
 271 800 l 1
 347 687 l 1
 467 800 l 1
 542 800 l 1
 388 622 l 1
 280 622 l 1
EndSplineSet
Validated: 1
EndChar

StartChar: notequal
Encoding: 8800 8800 231
Width: 797
Flags: W
HStem: -5 21G<126.414 163.463> 144 111<87 178 401 660> 371 110<131 395 614 705>
LayerCount: 2
Fore
SplineSet
131 481 m 1
 502 481 l 1
 649 631 l 1
 700 574 l 1
 614 481 l 1
 726 481 l 1
 705 371 l 1
 510 371 l 1
 401 255 l 1
 682 255 l 1
 660 144 l 1
 289 144 l 1
 144 -5 l 1
 93 53 l 1
 178 144 l 1
 65 144 l 1
 87 255 l 1
 285 255 l 1
 395 371 l 1
 110 371 l 1
 131 481 l 1
EndSplineSet
Validated: 1
EndChar

StartChar: infinity
Encoding: 8734 8734 232
Width: 791
Flags: W
HStem: 91 114<144.488 264.424 459.374 585.826> 391 113<195.278 321.449 516.404 635.301>
VStem: 78.4069 46.4342<225.011 343.835> 656.161 46.3914<251.457 371.058>
LayerCount: 2
Fore
SplineSet
427 274 m 1
 446 226 482 201 532 201 c 0
 594 201 643 240 654 296 c 0
 655.458710617 303.160943027 656.161247874 310.093275503 656.161247874 316.731701304 c 0
 656.161247874 360.15302209 626.104277085 391 581 391 c 0
 532 391 489 359 427 274 c 1
354 322 m 1
 334 370 300 394 249 394 c 0
 187 394 138 355 127 299 c 0
 125.543702253 291.718511264 124.841078345 284.717459306 124.841078345 278.050214507 c 0
 124.841078345 234.35708971 155.016707327 205 201 205 c 0
 249 205 294 239 354 322 c 1
376 219 m 1
 316 132 259 91 197 91 c 0
 155 91 123 111 101 150 c 0
 85.7433180061 175.87002599 78.4068519259 206.140171931 78.4068519259 240.810437825 c 0
 78.4068519259 258.406851926 80.2966739971 277.136705984 84 297 c 0
 96 359 119 409 153 447 c 0
 188 485 225 503 267 503 c 0
 324 503 361 471 404 375 c 1
 467 462 524 504 583 504 c 0
 626 504 659 485 680 446 c 1
 695.386425355 420.997058798 702.552639418 391.88401195 702.552639418 358.397360149 c 0
 702.552639418 339.650980256 700.306787322 319.533936612 696 298 c 1
 685 237 662 187 627 148 c 0
 594 110 556 91 514 91 c 0
 456 91 421 122 376 219 c 1
EndSplineSet
Validated: 524289
EndChar

StartChar: lessequal
Encoding: 8804 8804 233
Width: 797
Flags: W
HStem: 0 110<59 633>
LayerCount: 2
Fore
SplineSet
654 110 m 1
 633 0 l 1
 38 0 l 1
 59 110 l 1
 654 110 l 1
723 468 m 1
 277 362 l 1
 682 256 l 1
 660 142 l 1
 97 307 l 1
 119 418 l 1
 746 582 l 1
 723 468 l 1
EndSplineSet
Validated: 1
EndChar

StartChar: greaterequal
Encoding: 8805 8805 234
Width: 797
Flags: W
HStem: 0 110<59 633>
LayerCount: 2
Fore
SplineSet
59 110 m 1
 654 110 l 1
 633 0 l 1
 38 0 l 1
 59 110 l 1
128 468 m 1
 151 582 l 1
 714 418 l 1
 692 307 l 1
 65 142 l 1
 87 256 l 1
 535 362 l 1
 128 468 l 1
EndSplineSet
Validated: 1
EndChar

StartChar: partialdiff
Encoding: 8706 8706 235
Width: 518
Flags: W
HStem: -12 27<121.122 200.887> 382 34<222.23 308.856> 619 46<326.537 416.704>
VStem: -3.72888 104.722<58.6898 202.475> 427.383 81.4692<447.93 580.825>
LayerCount: 2
Fore
SplineSet
360 329 m 1
 392 405 416 472 424 511 c 0
 426.3076813 523.587352544 427.383040257 535.646566942 427.383040257 546.84525014 c 0
 427.383040257 589.027211483 412.125902146 619 390 619 c 0
 378 619 352 604 311 572 c 1
 277 542 247 527 223 527 c 0
 199.816699627 527 184.743302653 543.957070744 184.743302653 567.742494307 c 0
 184.743302653 571.658322328 185.151844527 575.759222637 186 580 c 0
 190 601 208 620 238 637 c 0
 271 656 308 665 346 665 c 0
 411 665 457 640 484 587 c 0
 500.568181818 555.090909091 508.852272727 515.650826446 508.852272727 468.910816585 c 0
 508.852272727 439.481921488 505.568181818 407.159090909 499 372 c 0
 477 259 434 167 368 94 c 0
 304 23 233 -12 154 -12 c 0
 98 -12 56 7 27 45 c 0
 6.27059396632 71.4478628706 -3.72887893455 104.027116103 -3.72887893455 141.642069349 c 0
 -3.72887893455 156.649639023 -2.1371218493 172.458812067 1 189 c 0
 14 255 43 310 88 352 c 0
 133 395 183 416 238 416 c 0
 302 416 341 389 360 329 c 1
322 259 m 0
 325.364306663 276.270107539 327.018253251 291.980769126 327.018253251 305.962744297 c 0
 327.018253251 354.320397629 307.234218677 382 270 382 c 0
 237 382 203 358 172 311 c 0
 141 265 120 208 106 137 c 0
 102.647090179 119.11781429 100.992972114 103.134278189 100.992972114 89.0940653881 c 0
 100.992972114 40.3222124672 120.952838747 15 159 15 c 0
 192 15 225 39 256 85 c 0
 287 131 308 188 322 259 c 0
EndSplineSet
Validated: 524289
EndChar

StartChar: summation
Encoding: 8721 8721 236
Width: 682
Flags: W
HStem: -192 124<143 561> 596 123<273 689>
LayerCount: 2
Fore
SplineSet
107 719 m 1
 713 719 l 1
 689 596 l 1
 273 596 l 1
 503 275 l 1
 143 -68 l 1
 585 -68 l 1
 561 -192 l 1
 -82 -192 l 1
 -66 -113 l 1
 340 269 l 1
 86 611 l 1
 107 719 l 1
EndSplineSet
Validated: 1
EndChar

StartChar: product
Encoding: 8719 8719 237
Width: 748
Flags: W
HStem: 585 134<271 575>
LayerCount: 2
Fore
SplineSet
145 719 m 1
 753 719 l 1
 576 -192 l 1
 424 -192 l 1
 575 585 l 1
 271 585 l 1
 120 -192 l 1
 -32 -192 l 1
 145 719 l 1
EndSplineSet
Validated: 1
EndChar

StartChar: pi
Encoding: 960 960 238
Width: 612
Flags: W
HStem: 0 21G<20 152.163 268 399.256> 430 103<106.314 175 299 422 548 631>
LayerCount: 2
Fore
SplineSet
668 533 m 1
 631 430 l 1
 548 430 l 1
 392 0 l 1
 268 0 l 1
 422 430 l 1
 299 430 l 1
 145 0 l 1
 20 0 l 1
 175 430 l 1
 157 430 l 2
 119 430 98 410 81 365 c 1
 -9 365 l 1
 13 428 40 470 74 495 c 0
 108 520 157 533 224 533 c 2
 668 533 l 1
EndSplineSet
Validated: 1
EndChar

StartChar: integral
Encoding: 8747 8747 239
Width: 580
Flags: W
HStem: -182 52<2.07671 103.633> 710 50<463.254 564.098>
VStem: -59.6908 115.398<-129.955 -70.8443> 510.987 114.672<629.654 709.103>
LayerCount: 2
Fore
SplineSet
76 -130 m 0
 111 -130 155 -18 206 204 c 0
 214 238 219 263 223 280 c 0
 260 451 305 573 355 649 c 0
 403 723 464 760 537 760 c 0
 591.196350203 760 625.658459776 731.582693493 625.658459776 688.073295239 c 0
 625.658459776 682.611253837 625.115352426 676.911367857 624 671 c 0
 617 633 586 605 549 605 c 0
 520.329719202 605 506.247135182 620.856192149 506.247135182 650.043012663 c 0
 506.247135182 657.504788161 507.167570199 665.837850997 509 675 c 0
 510.295630141 682.514654818 510.986943596 688.48494477 510.986943596 693.206658869 c 0
 510.986943596 706.706634547 505.335731492 710 492 710 c 0
 456 710 412 598 361 376 c 0
 356 356 353 341 350 331 c 0
 326 222 306 146 290 98 c 0
 274 51 260 12 240 -21 c 1
 182 -128 112 -182 30 -182 c 0
 -25.8465758169 -182 -59.6907528297 -154.497001495 -59.6907528297 -110.636207505 c 0
 -59.6907528297 -105.018049904 -59.135464156 -99.1315064427 -58 -93 c 0
 -50 -53 -18 -27 21 -27 c 0
 48.1480729575 -27 63.1140324388 -41.8892498041 63.1140324388 -70.5542110103 c 0
 63.1140324388 -76.7331122501 62.41864898 -83.552092855 61 -91 c 0
 60 -95 59 -98 58 -102 c 2
 57 -104 l 1
 56.1511421982 -108.244289009 55.7075991532 -111.858088396 55.7075991532 -114.917854738 c 0
 55.7075991532 -126.276363568 61.8198601081 -130 76 -130 c 0
EndSplineSet
Validated: 524289
EndChar

StartChar: Omega
Encoding: 8486 8486 240
Width: 731
Flags: W
HStem: 0 120<-14 124 526 641> 615 122<325.888 508.328>
VStem: 53.8195 129.954<214.295 444.887> 571.836 133.255<352.567 549.652>
LayerCount: 2
Fore
SplineSet
526 120 m 1
 664 120 l 1
 641 0 l 1
 366 0 l 1
 392 138 l 1
 482 194 544 285 565 394 c 0
 569.586570489 417.272598408 571.835737772 439.015784841 571.835737772 459.077597434 c 0
 571.835737772 557.114687126 518.124861214 615 421 615 c 0
 304 615 218 531 191 394 c 0
 186.170301258 368.931563672 183.773698972 344.815208566 183.773698972 321.857734981 c 0
 183.773698972 244.993879944 210.639024498 181.120803354 263 138 c 1
 237 0 l 1
 -37 0 l 1
 -14 120 l 1
 124 120 l 1
 76.5330642448 179.333669694 53.8195341413 245.268247562 53.8195341413 319.843609152 c 0
 53.8195341413 345.818726876 56.5750882947 372.842124958 62 401 c 0
 82 502 126 584 196 645 c 0
 266 706 348 737 445 737 c 0
 541 737 611 706 657 645 c 0
 689.060606061 602.484848485 705.090909091 549.768595041 705.090909091 487.52836909 c 0
 705.090909091 460.467401286 702.060606061 431.606060606 696 401 c 0
 675 292 620 200 526 120 c 1
EndSplineSet
Validated: 524289
EndChar

StartChar: radical
Encoding: 8730 8730 241
Width: 633
Flags: W
HStem: 771 66<676 721>
LayerCount: 2
Fore
SplineSet
643 837 m 1
 734 837 l 1
 721 771 l 1
 676 771 l 1
 244 -20 l 1
 198 -20 l 1
 131 398 l 1
 57 369 l 1
 55 427 l 1
 227 487 l 1
 274 174 l 1
 643 837 l 1
EndSplineSet
Validated: 1
EndChar

StartChar: approxequal
Encoding: 8776 8776 242
Width: 797
Flags: W
HStem: 121 107<419.976 580.943> 190 106<169.383 331.024> 330 107<460.379 621.635> 399 106<210.021 371.91>
LayerCount: 2
Fore
SplineSet
733 517 m 1x20
 711 402 l 1
 636 351 581 330 522 330 c 0x20
 489 330 453 341 411 360 c 0
 407 361 406 363 403 364 c 0
 401 365 398 366 393 368 c 0
 348 389 310 399 279 399 c 0
 226 399 170 373 100 319 c 1
 122 434 l 1
 196 484 252 505 311 505 c 0x10
 345 505 382 494 423 475 c 0
 426 474 427 473 429 472 c 0
 432 471 435 470 439 468 c 0
 484 447 522 437 553 437 c 0
 605 437 659 461 733 517 c 1x20
692 308 m 1
 670 193 l 1
 595 142 540 121 481 121 c 0x80
 448 121 412 130 371 150 c 0
 366 152 365 154 363 155 c 0
 361 156 357 157 352 159 c 0
 307 180 269 190 238 190 c 0
 185 190 130 166 59 110 c 1
 81 225 l 1
 156 276 211 296 270 296 c 0x40
 303 296 339 286 380 267 c 1
 385 266 387 264 389 263 c 0
 391 262 394 261 399 259 c 0
 444 238 482 228 513 228 c 0x80
 565 228 618 250 692 308 c 1
EndSplineSet
Validated: 1
EndChar

StartChar: increment
Encoding: 57355 57355 243
Width: 662
Flags: W
HStem: 0 120<129 452>
LayerCount: 2
Fore
SplineSet
373 549 m 1
 129 120 l 1
 452 120 l 1
 373 549 l 1
340 719 m 1
 473 719 l 1
 599 0 l 1
 -63 0 l 1
 340 719 l 1
EndSplineSet
Validated: 1
EndChar

StartChar: lozenge
Encoding: 9674 9674 245
Width: 469
Flags: W
LayerCount: 2
Fore
SplineSet
307 697 m 1
 35 289 l 1
 148 -123 l 1
 420 289 l 1
 307 697 l 1
328 807 m 1
 459 289 l 1
 126 -233 l 1
 -4 289 l 1
 328 807 l 1
EndSplineSet
Validated: 1
EndChar

StartChar: middot
Encoding: 57356 57356 246
Width: 361
Flags: W
HStem: 253 189<119 250>
VStem: 83 203
LayerCount: 2
Fore
SplineSet
119 442 m 1
 286 442 l 1
 250 253 l 1
 83 253 l 1
 119 442 l 1
EndSplineSet
Validated: 1
EndChar

StartChar: overscore
Encoding: 57358 57358 247
Width: 474
Flags: W
HStem: 668 92<175 449>
VStem: 157 310
LayerCount: 2
Fore
SplineSet
175 760 m 1
 467 760 l 1
 449 668 l 1
 157 668 l 1
 175 760 l 1
EndSplineSet
Validated: 1
EndChar

StartChar: Gbreve
Encoding: 286 286 248
Width: 779
Flags: W
HStem: -14 127<300.222 508.959> 281 119<452 540> 612 127<395.997 635.055> 806 60<417.687 557.376>
VStem: 43.8011 175.546<193.851 408.222>
LayerCount: 2
Fore
SplineSet
656 53 m 1
 559 8 459 -14 357 -14 c 0
 242 -14 156 20 101 87 c 1
 62.9837321207 134.872337329 43.8011376611 194.144003308 43.8011376611 265.861761054 c 0
 43.8011376611 296.015100455 47.1921140967 328.368580405 54 363 c 0
 77 479 129 572 210 638 c 0
 293 705 393 739 513 739 c 0
 605 739 686 722 754 687 c 1
 726 541 l 1
 659 590 587 612 510 612 c 0
 361 612 258 522 227 363 c 0
 221.875220636 336.549525864 219.346715502 312.012095898 219.346715502 289.478068896 c 0
 219.346715502 175.702844815 283.805426722 113 404 113 c 0
 445 113 480 118 511 130 c 1
 540 281 l 1
 429 281 l 1
 452 400 l 1
 723 400 l 1
 656 53 l 1
342 927 m 1
 399 927 l 1
 405 886 433 866 483 866 c 0
 534 866 570 886 592 927 c 1
 649 927 l 1
 622 848 561 806 471 806 c 0
 386.463430706 806 341.624246605 843.892958593 341.624246605 915.394043356 c 0
 341.624246605 919.169215922 341.749245466 923.038078362 342 927 c 1
EndSplineSet
Validated: 524289
EndChar

StartChar: gbreve
Encoding: 287 287 249
Width: 680
Flags: W
HStem: -216 107<86.5 293.259> 2 118<165.5 299.74> 439 117<274.083 398.712> 647 65<349.004 489.036>
VStem: 25.6938 163.29<149.508 332.938> 272.803 59.9788<729.946 783.715> 526 57<749.217 784>
LayerCount: 2
Fore
SplineSet
395 96 m 1
 336 31 273 2 197 2 c 0
 134 2 87 27 56 80 c 0
 35.7022868556 114.047776887 25.6937847553 154.526310677 25.6937847553 201.154892426 c 0
 25.6937847553 225.740541755 28.4762390423 252.035960152 34 280 c 0
 49 360 83 427 133 478 c 0
 185 531 242 556 305 556 c 0
 381 556 432 527 466 462 c 1
 482 545 l 1
 642 545 l 1
 547 52 l 2
 513 -122 386 -216 185 -216 c 0
 121 -216 62 -206 5 -186 c 1
 31 -55 l 1
 82 -92 133 -109 189 -109 c 0
 304 -109 365 -58 387 52 c 1
 395 96 l 1
345 439 m 0
 270 439 214 380 195 280 c 0
 190.983870705 259.116127669 188.983903225 240.167770678 188.983903225 223.219706362 c 0
 188.983903225 155.767777182 220.662904249 120 283 120 c 0
 358 120 411 179 431 280 c 0
 434.713294426 299.543654876 436.555012068 317.521296524 436.555012068 333.798558797 c 0
 436.555012068 400.807981523 405.342258843 439 345 439 c 0
275 784 m 1
 333 784 l 1
 332.854611421 781.770708457 332.782030954 779.588389889 332.782030954 777.453727229 c 0
 332.782030954 735.540996167 360.762382999 712 415 712 c 0
 472 712 510 738 526 784 c 1
 583 784 l 1
 562 696 497 647 402 647 c 0
 317.730134878 647 272.803262375 685.556132766 272.803262375 755.688548443 c 0
 272.803262375 764.618553 273.531665754 774.060506639 275 784 c 1
EndSplineSet
Validated: 524289
EndChar

StartChar: Idot
Encoding: 57345 57345 250
Width: 355
Flags: W
HStem: 0 21G<25 207.879> 814 113<221 322>
VStem: 25 320
LayerCount: 2
Fore
SplineSet
166 727 m 1
 345 727 l 1
 204 0 l 1
 25 0 l 1
 166 727 l 1
221 927 m 1
 344 927 l 1
 322 814 l 1
 199 814 l 1
 221 927 l 1
EndSplineSet
Validated: 1
EndChar

StartChar: Scedilla
Encoding: 350 350 251
Width: 683
Flags: W
HStem: -196 63<137.624 272.433> -11.9006 126.901<159.57 272.513> 559 21G<580.5 618.893> 615 127<304.44 534.21>
VStem: 99.99 157.417<427.792 572.123> 286.604 59.1805<-117.093 -21.3516> 430.415 169.462<165.925 277.429>
LayerCount: 2
Fore
SplineSet
644 708 m 1
 615 559 l 1
 546 596 476 615 411 615 c 0
 320 615 270 588 259 533 c 0
 257.957455544 527.266005493 257.407412172 521.956580885 257.407412172 517.020823383 c 0
 257.407412172 484.081879427 281.90417233 467.784593031 348 453 c 2
 422 437 l 2
 546.08475464 410.170863862 599.876291904 363.659626858 599.876291904 277.428534565 c 0
 599.876291904 260.808944707 597.878147896 242.713918472 594 223 c 0
 565.542191606 77.9569765715 476.409072265 1.17367795748 317.317381882 -10.444315503 c 1
 336.602411456 -39.6039892954 345.78431175 -66.3779490237 345.784311723 -90.7661943253 c 0
 345.784311723 -97 345.184412955 -103.077935225 344 -109 c 0
 333 -168 292 -196 215 -196 c 0
 187 -196 157 -192 127 -185 c 1
 140 -117 l 1
 166 -129 191 -133 211 -133 c 0
 252 -133 280 -116 286 -86 c 0
 286.399421946 -83.8697496213 286.603853136 -81.5622349194 286.603853136 -79.0750957854 c 0
 286.603853136 -63.717534565 278.809294902 -41.5112479003 260.997592714 -11.9005893613 c 1
 177.01042204 -10.5078858996 93.2718044029 5.54583719895 15 38 c 1
 45 192 l 1
 124 142 203 115 280 115 c 0
 364 115 418 146 428 200 c 0
 429.560412714 207.6460223 430.414707955 214.634624883 430.414707955 221.064592929 c 0
 430.414707955 255.841467064 405.424409386 274.2768667 332 292 c 2
 264 308 l 2
 152.826348762 335.15692244 99.989976185 385.360671017 99.989976185 470.224269685 c 0
 99.989976185 485.358568915 101.670384177 501.595190018 105 519 c 0
 133 662 240 742 407 742 c 0
 483 742 562 731 644 708 c 1
EndSplineSet
Validated: 524289
EndChar

StartChar: scedilla
Encoding: 351 351 252
Width: 565
Flags: W
HStem: -196 63<79.6247 214.96> -10.9736 106.974<87.2428 215.178> 453 107<219.553 436.888>
VStem: 56.9809 139.041<309.641 428.785> 229.561 59.7621<-116.099 -22.0527> 341.495 150.943<124.925 206.021>
LayerCount: 2
Fore
SplineSet
527 532 m 1
 502 404 l 1
 436 437 373 453 313 453 c 0
 243 453 205 435 197 396 c 0
 196.355151549 392.668283004 196.022175242 389.53292995 196.022175242 386.579043781 c 0
 196.022175242 362.04846133 218.985858218 350.032727324 277 342 c 1
 306 337 l 1
 390 326 443 308 468 282 c 1
 484.175741035 263.714379699 492.437543377 238.504063042 492.437543377 206.021186379 c 0
 492.437543377 192.317235396 490.967069115 177.318880133 488 161 c 0
 468.356979028 59.2134367821 392.112248602 2.07047538748 259.977606797 -9.00528829554 c 1
 280.050938372 -39.9180034636 289.322675265 -67.0503435506 289.322675284 -91.9321665717 c 0
 289.322675284 -97.3910501724 288.876398411 -102.741609537 288 -108 c 0
 276 -167 235 -196 158 -196 c 0
 129 -196 99 -192 69 -184 c 1
 82 -117 l 1
 108 -129 134 -133 153 -133 c 0
 195 -133 223 -116 229 -85 c 0
 229.373066959 -83.0103095523 229.560561977 -80.8814401487 229.560561977 -78.6056994826 c 0
 229.560561977 -63.3918069758 221.180931289 -41.6138630466 203.847091488 -10.9735539828 c 1
 136.611883492 -10.3962159707 64.8643846011 -0.347450851122 -5 21 c 1
 19 149 l 1
 78 113 146 96 219 96 c 0
 291 96 332 118 340 158 c 0
 340.966569233 162.970927486 341.494610101 167.522393058 341.494610101 171.699152966 c 0
 341.494610101 197.77094468 320.920063708 209.242731872 258 217 c 2
 227 221 l 2
 106.468076858 236.171850465 56.980921168 272.657131167 56.980921168 346.624050926 c 0
 56.980921168 360.412053264 58.7004922097 375.502461049 62 392 c 0
 84 507 168 560 324 560 c 0
 385 560 451 551 527 532 c 1
EndSplineSet
Validated: 524289
EndChar

StartChar: Cacute
Encoding: 262 262 253
Width: 698
Flags: W
HStem: -14 127<302.097 503.873> 611 127<390.218 603.315>
VStem: 44.614 176.042<192.239 410.068>
LayerCount: 2
Fore
SplineSet
581 38 m 1
 509 3 435 -14 359 -14 c 0
 244 -14 157 20 102 87 c 0
 63.514248609 133.882642604 44.613992228 193.006219588 44.613992228 264.02811164 c 0
 44.613992228 294.503628932 48.0940414908 327.169948388 55 362 c 0
 77 478 128 570 209 636 c 1
 290 704 390 738 505 738 c 0
 581 738 649 721 707 686 c 1
 679 541 l 1
 623 590 565 611 494 611 c 0
 358 611 258 517 228 362 c 0
 223.074328904 336.550699338 220.655755502 312.745839099 220.655755502 290.731484363 c 0
 220.655755502 178.666516866 283.329708968 113 397 113 c 0
 468 113 535 134 609 184 c 1
 581 38 l 1
550 927 m 1
 674 927 l 1
 518 803 l 1
 435 803 l 1
 550 927 l 1
EndSplineSet
Validated: 524289
EndChar

StartChar: cacute
Encoding: 263 263 254
Width: 563
Flags: W
HStem: -14 116<236.76 418.14> 439 117<293.445 473.673>
VStem: 22.6825 164.462<150.459 320.59>
LayerCount: 2
Fore
SplineSet
539 527 m 1
 512 390 l 1
 474 424 433 439 385 439 c 0
 285 439 213 378 192 271 c 0
 188.74208482 254.400146462 187.144865288 238.883355304 187.144865288 224.513102644 c 0
 187.144865288 146.255005833 234.513881811 102 319 102 c 0
 371 102 421 118 466 152 c 1
 439 14 l 1
 384 -5 328 -14 275 -14 c 0
 113.356478964 -14 22.6825221459 64.3622271574 22.6825221459 200.111037737 c 0
 22.6825221459 222.245303605 25.0932087035 245.905267369 30 271 c 0
 65 449 198 556 386 556 c 0
 440 556 490 546 539 527 c 1
497 800 m 1
 621 800 l 1
 414 620 l 1
 330 620 l 1
 497 800 l 1
EndSplineSet
Validated: 524289
EndChar

StartChar: Ccaron
Encoding: 268 268 255
Width: 698
Flags: W
HStem: -14 127<302.097 503.873> 612 127<390.334 603.315>
VStem: 44.8011 175.855<192.937 411.068>
LayerCount: 2
Fore
SplineSet
581 38 m 1
 509 3 435 -14 359 -14 c 0
 244 -14 157 20 102 87 c 1
 63.9837321207 134.872337329 44.8011376611 194.144003308 44.8011376611 265.861761054 c 0
 44.8011376611 296.015100455 48.1921140967 328.368580405 55 363 c 0
 78 479 128 571 209 637 c 0
 291 705 390 739 505 739 c 0
 581 739 649 722 707 687 c 1
 679 541 l 1
 623 591 565 612 494 612 c 0
 358 612 258 518 228 363 c 0
 223.074328904 337.386510302 220.655755502 313.444419065 220.655755502 291.315365158 c 0
 220.655755502 178.666516866 283.329708968 113 397 113 c 0
 468 113 535 134 609 184 c 1
 581 38 l 1
428 806 m 1
 350 927 l 1
 425 927 l 1
 506 846 l 1
 619 927 l 1
 694 927 l 1
 568 806 l 1
 428 806 l 1
EndSplineSet
Validated: 524289
EndChar

StartChar: ccaron
Encoding: 269 269 256
Width: 563
Flags: W
HStem: -14 116<237.446 418.305> 440 116<294.042 472.908>
VStem: 22.7356 165.344<150.531 322.861>
LayerCount: 2
Fore
SplineSet
539 528 m 1
 512 390 l 1
 474 425 433 440 385 440 c 0
 285 440 214 378 193 271 c 0
 189.700163221 254.186545934 188.079344011 238.484206437 188.079344011 223.95893965 c 0
 188.079344011 146.046118455 234.713508473 102 319 102 c 0
 371 102 421 118 466 152 c 1
 439 14 l 1
 385 -5 329 -14 276 -14 c 0
 114.172821374 -14 22.7356211178 64.5403969175 22.7356211178 200.573968865 c 0
 22.7356211178 222.57510866 25.1274002761 246.080132841 30 271 c 0
 65 450 199 556 387 556 c 0
 441 556 491 547 539 528 c 1
340 622 m 1
 255 800 l 1
 331 800 l 1
 407 687 l 1
 527 800 l 1
 602 800 l 1
 448 622 l 1
 340 622 l 1
EndSplineSet
Validated: 524289
EndChar

StartChar: dslash
Encoding: 57354 57354 257
Width: 681
Flags: W
HStem: -14 118<162.5 294.713> -1 21G<375 539.895> 438 119<273.342 398.062> 610 93<359 494 673 727> 740 20G<519.14 684>
VStem: 23.6938 162.794<133.976 323.128>
LayerCount: 2
Fore
SplineSet
465 462 m 1xbc
 494 610 l 1
 341 610 l 1
 359 703 l 1
 512 703 l 1
 523 760 l 1
 684 760 l 1
 673 703 l 1
 745 703 l 1
 727 610 l 1
 655 610 l 1
 536 -1 l 1
 375 -1 l 1x7c
 391 80 l 1
 331 15 270 -14 194 -14 c 0
 131 -14 83 12 54 65 c 1
 33.7022868556 99.0477768874 23.6937847553 140.383744931 23.6937847553 188.727195187 c 0
 23.6937847553 214.217035769 26.4762390423 241.655019912 32 271 c 1
 49 355 83 424 134 477 c 0
 184 530 242 557 305 557 c 0
 381 557 431 527 465 462 c 1xbc
280 104 m 0xbc
 356 104 407 163 428 271 c 0
 432.509882917 294.193683575 434.759872065 315.12747338 434.759872065 333.702323193 c 0
 434.759872065 401.620150289 404.678518966 438 345 438 c 0
 267 438 214 379 193 271 c 0
 188.649968099 248.628407365 186.488284621 228.359345567 186.488284621 210.281697759 c 0
 186.488284621 141.088582366 218.157261348 104 280 104 c 0xbc
EndSplineSet
Validated: 524289
EndChar

StartChar: sfthyphen
Encoding: 57359 57359 258
Width: 394
Flags: W
HStem: 217 142<57 322>
VStem: 30 319
LayerCount: 2
Fore
SplineSet
57 359 m 1
 349 359 l 1
 322 217 l 1
 30 217 l 1
 57 359 l 1
EndSplineSet
Validated: 1
EndChar

StartChar: c6459
Encoding: 57346 57346 259
Width: 474
Flags: W
HStem: 625 120<172 251 363 441>
VStem: 149 315
LayerCount: 2
Fore
SplineSet
172 745 m 1
 274 745 l 1
 251 625 l 1
 149 625 l 1
 172 745 l 1
363 745 m 1
 464 745 l 1
 441 625 l 1
 340 625 l 1
 363 745 l 1
EndSplineSet
Validated: 1
EndChar

StartChar: c6460
Encoding: 57347 57347 260
Width: 475
Flags: W
HStem: 616 129
VStem: 225 248
LayerCount: 2
Fore
SplineSet
345 745 m 1
 473 745 l 1
 312 616 l 1
 225 616 l 1
 345 745 l 1
EndSplineSet
Validated: 1
EndChar

StartChar: c6461
Encoding: 57348 57348 261
Width: 475
Flags: W
HStem: 617 68<326.777 410.046> 678 68<203.092 286.468>
VStem: 426 49<700.634 746>
LayerCount: 2
Fore
SplineSet
303 642 m 1xa0
 282 660 l 2
 281 661 278 662 277 664 c 1
 262 674 249 678 239 678 c 0x60
 215 678 194 654 186 616 c 1
 132 617 l 1xa0
 133 620 137 625 138 628 c 0
 151 699 195 746 246 746 c 0x60
 269 746 289 737 309 721 c 2
 334 701 l 1
 346 690 359 685 371 685 c 0xa0
 399 685 418 706 426 746 c 1
 481 746 l 1x60
 480 742 476 737 475 735 c 0
 462 664 417 617 366 617 c 0
 343 617 326 624 303 642 c 1xa0
EndSplineSet
Validated: 1
EndChar

StartChar: c6462
Encoding: 57349 57349 262
Width: 475
Flags: W
HStem: 616 129<275 292>
VStem: 164 198
LayerCount: 2
Fore
SplineSet
292 745 m 1
 362 616 l 1
 275 616 l 1
 164 745 l 1
 292 745 l 1
EndSplineSet
Validated: 1
EndChar

StartChar: c6463
Encoding: 57350 57350 263
Width: 476
Flags: W
HStem: 616 129
LayerCount: 2
Fore
SplineSet
248 745 m 1
 390 745 l 1
 469 616 l 1
 393 616 l 1
 311 702 l 1
 195 616 l 1
 119 616 l 1
 248 745 l 1
EndSplineSet
Validated: 1
EndChar

StartChar: c6466
Encoding: 57351 57351 264
Width: 476
Flags: W
HStem: 616 129
LayerCount: 2
Fore
SplineSet
223 616 m 1
 144 745 l 1
 220 745 l 1
 303 659 l 1
 418 745 l 1
 494 745 l 1
 365 616 l 1
 223 616 l 1
EndSplineSet
Validated: 1
EndChar

StartChar: c6467
Encoding: 57352 57352 265
Width: 475
Flags: W
HStem: 616 64<240.298 380.379> 725 20G<162.875 224 405 474>
VStem: 163 311
LayerCount: 2
Fore
SplineSet
163 745 m 1
 221 745 l 1
 227 701 255 680 307 680 c 0
 358 680 394 701 416 745 c 1
 474 745 l 1
 447 661 384 616 294 616 c 0
 207.559136583 616 162.624498494 656.603916082 162.624498494 732.669129103 c 0
 162.624498494 736.681024423 162.74949799 740.791566231 163 745 c 1
EndSplineSet
Validated: 524289
EndChar

StartChar: c6468
Encoding: 57353 57353 266
Width: 478
Flags: W
HStem: 625 120<256 361>
VStem: 233 151
LayerCount: 2
Fore
SplineSet
256 745 m 1
 384 745 l 1
 361 625 l 1
 233 625 l 1
 256 745 l 1
EndSplineSet
Validated: 1
EndChar

StartChar: uni00AD
Encoding: 173 173 268
Width: 394
Flags: W
HStem: 217 142<57 322>
VStem: 30 319
LayerCount: 2
Fore
SplineSet
57 359 m 1
 349 359 l 1
 322 217 l 1
 30 217 l 1
 57 359 l 1
EndSplineSet
Validated: 1
EndChar
